<svg xmlns:oi="http://oimotion.optimistik.fr/namespace/svg/OIdata" viewBox="0 0 802 362" width="802" height="362" xmlns="http://www.w3.org/2000/svg" xmlns:svg="http://www.w3.org/2000/svg">
 <style type="text/css">.st0{fill:#25213F;}
	.st1{fill:#C1BECB;stroke:#25213F;stroke-width:0.5;}
	.st2{fill:#C4C4C4;stroke:#25213F;stroke-width:0.5;}
	.st3{fill:#FFFFFF;}
	.st4{fill:#F4F3F6;}
	.st5{fill:none;stroke:#25213F;}
	.st6{clip-path:url(#SVGID_2_);}</style>
 <g class="layer">
  <title>Layer 1</title>
  <g id="СТЕНЫ">
   <g id="svg_1">
    <path class="st0" d="m802,362l-802,0l0,-362l802,0l0,362zm-796,-6l790,0l0,-350l-790,0l0,350z" id="svg_2"/>
   </g>
   <rect class="st1" height="47.5" id="svg_3" width="0.5" x="112.2" y="38.2"/>
   <rect class="st1" height="120.5" id="svg_4" width="0.5" x="70.2" y="6.2"/>
   <rect class="st1" height="126.5" id="svg_5" width="0.5" x="232.2" y="229.2"/>
   <rect class="st1" height="126.5" id="svg_6" width="0.5" x="388.2" y="229.2"/>
   <rect class="st1" height="62.5" id="svg_7" width="0.5" x="122.2" y="176.2"/>
   <rect class="st1" height="30.5" id="svg_8" width="0.5" x="725.2" y="128.2"/>
   <rect class="st1" height="59.5" id="svg_9" width="0.5" x="710.2" y="179.2"/>
   <rect class="st1" height="3.5" id="svg_10" width="0.5" x="710.2" y="159.2"/>
   <rect class="st1" height="55.5" id="svg_11" width="0.5" x="466.2" y="155.2"/>
   <rect class="st1" height="55.5" id="svg_12" width="0.5" x="586.2" y="155.2"/>
   <rect class="st1" height="15.5" id="svg_13" width="0.5" x="682.2" y="155.2"/>
   <rect class="st1" height="22.5" id="svg_14" width="0.5" x="682.2" y="188.2"/>
   <rect class="st1" height="55.5" id="svg_15" width="0.5" x="399.2" y="155.2"/>
   <rect class="st1" height="55.5" id="svg_16" width="0.5" x="337.2" y="155.2"/>
   <rect class="st1" height="4.5" id="svg_17" width="0.5" x="122.2" y="155.2"/>
   <rect class="st1" height="54.5" id="svg_18" width="0.5" x="168.2" y="155.2"/>
   <rect class="st1" height="54.5" id="svg_19" width="0.5" x="299.2" y="155.2"/>
   <rect class="st1" height="9.5" id="svg_20" width="0.5" x="428.2" y="155.2"/>
   <rect class="st1" height="10.5" id="svg_21" width="0.5" x="428.2" y="178.2"/>
   <rect class="st2" height="0.5" id="svg_22" width="36.5" x="429.2" y="183.2"/>
   <rect class="st1" height="9.5" id="svg_23" width="0.5" x="428.2" y="201.2"/>
   <rect class="st1" height="9.5" id="svg_24" width="0.5" x="364.2" y="155.2"/>
   <rect class="st1" height="10.5" id="svg_25" width="0.5" x="364.2" y="178.2"/>
   <rect class="st2" height="0.5" id="svg_26" width="25.5" x="338.2" y="183.2"/>
   <rect class="st1" height="9.5" id="svg_27" width="0.5" x="364.2" y="201.2"/>
   <rect class="st1" height="120.5" id="svg_28" width="0.5" x="343.2" y="6.2"/>
   <rect class="st1" height="120.5" id="svg_29" width="0.5" x="171.2" y="6.2"/>
   <rect class="st1" height="120.5" id="svg_30" width="0.5" x="563.2" y="6.2"/>
   <rect class="st1" height="120.5" id="svg_31" width="0.5" x="670.2" y="6.2"/>
   <rect class="st1" height="54.5" id="svg_32" width="0.5" x="706.2" y="42.2"/>
   <rect class="st1" height="54.5" id="svg_33" width="0.5" x="760.2" y="42.2"/>
   <rect class="st1" height="91.5" id="svg_34" width="0.5" x="646.2" y="35.2"/>
   <rect class="st2" height="0.5" id="svg_35" width="82.5" x="6.2" y="177.2"/>
   <rect class="st2" height="0.5" id="svg_36" width="54.5" x="122.2" y="154.2"/>
   <rect class="st2" height="0.5" id="svg_37" width="106.5" x="193.2" y="154.2"/>
   <rect class="st2" height="0.5" id="svg_38" width="67.5" x="123.2" y="210.2"/>
   <rect class="st2" height="0.5" id="svg_39" width="44.5" x="123.2" y="178.2"/>
   <rect class="st2" height="0.5" id="svg_40" width="91.5" x="208.2" y="210.2"/>
   <rect class="st2" height="0.5" id="svg_41" width="39.5" x="337.2" y="154.2"/>
   <rect class="st2" height="0.5" id="svg_42" width="10.5" x="392.2" y="154.2"/>
   <rect class="st2" height="0.5" id="svg_43" width="147.5" x="416.2" y="154.2"/>
   <rect class="st2" height="0.5" id="svg_44" width="102.5" x="580.2" y="154.2"/>
   <rect class="st2" height="0.5" id="svg_45" width="102.5" x="580.2" y="211.2"/>
   <rect class="st2" height="0.5" id="svg_46" width="220.5" x="343.2" y="127.2"/>
   <rect class="st2" height="0.5" id="svg_47" width="17.5" x="53.2" y="126.2"/>
   <rect class="st2" height="0.5" id="svg_48" width="17.5" x="6.2" y="126.2"/>
   <rect class="st2" height="0.5" id="svg_49" width="41.5" x="71.2" y="37.2"/>
   <rect class="st2" height="0.5" id="svg_50" width="11.5" x="71.2" y="85.2"/>
   <rect class="st2" height="0.5" id="svg_51" width="11.5" x="100.2" y="85.2"/>
   <rect class="st2" height="0.5" id="svg_52" width="4.5" x="646.2" y="127.2"/>
   <rect class="st2" height="0.5" id="svg_53" width="4.5" x="666.2" y="127.2"/>
   <rect class="st2" height="0.5" id="svg_54" width="16.5" x="671.2" y="127.2"/>
   <rect class="st2" height="0.5" id="svg_55" width="83.5" x="712.2" y="127.2"/>
   <rect class="st2" height="0.5" id="svg_56" width="54.5" x="706.2" y="41.2"/>
   <rect class="st2" height="0.5" id="svg_57" width="16.5" x="706.2" y="97.2"/>
   <rect class="st2" height="0.5" id="svg_58" width="16.5" x="744.2" y="97.2"/>
   <rect class="st2" height="0.5" id="svg_59" width="119.5" x="676.2" y="238.2"/>
   <rect class="st2" height="0.5" id="svg_60" width="14.5" x="710.2" y="158.2"/>
   <rect class="st2" height="0.5" id="svg_61" width="226.5" x="337.2" y="211.2"/>
   <rect class="st2" height="0.5" id="svg_62" width="22.5" x="647.2" y="35.2"/>
   <rect class="st3" height="4" id="svg_63" width="31" x="82" y="1"/>
   <rect class="st3" height="4" id="svg_64" width="31" x="82" y="357"/>
   <rect class="st3" height="4" id="svg_65" width="31" x="27" y="1"/>
   <rect class="st3" height="4" id="svg_66" width="31" x="27" y="357"/>
   <rect class="st3" height="4" id="svg_67" width="31" x="137" y="1"/>
   <rect class="st3" height="4" id="svg_68" width="31" x="137" y="357"/>
   <rect class="st3" height="4" id="svg_69" width="31" x="192" y="1"/>
   <rect class="st3" height="4" id="svg_70" width="31" x="192" y="357"/>
   <rect class="st3" height="4" id="svg_71" width="31" x="249" y="1"/>
   <rect class="st3" height="4" id="svg_72" width="86" x="249" y="357"/>
   <rect class="st3" height="4" id="svg_73" width="31" x="303" y="1"/>
   <rect class="st3" height="4" id="svg_74" width="31" x="359" y="1"/>
   <rect class="st3" height="4" id="svg_75" width="86" x="359" y="357"/>
   <rect class="st3" height="4" id="svg_76" width="31" x="414" y="1"/>
   <rect class="st3" height="4" id="svg_77" width="31" x="469" y="1"/>
   <rect class="st3" height="4" id="svg_78" width="85" x="469" y="357"/>
   <rect class="st3" height="4" id="svg_79" width="31" x="524" y="1"/>
   <rect class="st3" height="4" id="svg_80" width="31" x="577" y="1"/>
   <rect class="st3" height="4" id="svg_81" width="31" x="578" y="357"/>
   <rect class="st3" height="4" id="svg_82" width="31" x="634" y="1"/>
   <rect class="st3" height="4" id="svg_83" width="31" x="634" y="357"/>
   <rect class="st3" height="4" id="svg_84" width="31" x="688" y="1"/>
   <rect class="st3" height="4" id="svg_85" width="31" x="688" y="357"/>
   <rect class="st3" height="4" id="svg_86" width="31" x="744" y="1"/>
   <rect class="st3" height="4" id="svg_87" width="31" x="744" y="357"/>
   <rect class="st4" height="30" id="svg_88" width="4" x="797" y="193"/>
   <rect class="st4" height="30" id="svg_89" width="4" x="797" y="138"/>
   <rect class="st4" height="30" id="svg_90" width="4" x="1" y="138"/>
   <rect class="st4" height="30" id="svg_91" width="4" x="1" y="194"/>
   <rect class="st4" height="30" id="svg_92" width="4" x="1" y="250"/>
   <rect class="st4" height="30" id="svg_93" width="4" x="1" y="306"/>
  </g>
 </g>
</svg>