<svg xmlns:oi="http://oimotion.optimistik.fr/namespace/svg/OIdata" viewBox="0 0 804 362" width="804" height="362" xmlns="http://www.w3.org/2000/svg" xmlns:svg="http://www.w3.org/2000/svg" xmlns:xlink="http://www.w3.org/1999/xlink" xmlns:se="http://svg-edit.googlecode.com">
 <style type="text/css">.level1st0{fill:#25213F;}.level1st1{fill:#C1BECB;stroke:#25213F;stroke-width:0.5;}.level1st2{fill:#C4C4C4;stroke:#25213F;stroke-width:0.5;}.level1st3{fill:#FFFFFF;}.level1st4{fill:none;stroke:#25213F;}.level1level1st10{fill-rule:evenodd;clip-rule:evenodd;fill:#25213F;}</style>
 <defs>
  <symbol id="svg_6" viewBox="0 0 26 17" xmlns="http://www.w3.org/2000/svg">
   <rect fill="white" height="13" id="svg_28" stroke="#25213F" transform="rotate(180 25.5 13.5)" width="25" x="25.5" y="13.5"/>
   <rect fill="#25213F" height="1" id="svg_29" transform="rotate(180 21 4)" width="16" x="21" y="4"/>
   <rect fill="#25213F" height="1" id="svg_30" transform="rotate(180 19 17)" width="12" x="19" y="17"/>
   <rect fill="#25213F" height="2" id="svg_31" transform="rotate(180 17 16)" width="8" x="17" y="16"/>
  </symbol>
  <symbol id="svg_26" viewBox="0 0 26 17" xmlns="http://www.w3.org/2000/svg">
   <rect fill="white" height="13" id="svg_32" stroke="#25213F" width="25" x="0.5" y="3.5"/>
   <rect fill="#25213F" height="1" id="svg_33" width="16" x="5" y="13"/>
   <rect fill="#25213F" height="1" id="svg_34" width="12" x="7"/>
   <rect fill="#25213F" height="2" id="svg_35" width="8" x="9" y="1"/>
  </symbol>
 </defs>
 <g class="level1layer layer">
  <title>Общий слой</title>
  <g id="walls">
   <rect class="level1st1" height="149.50334" id="svg_5" transform="rotate(90.0628 82.4517 154.914)" width="0.5" x="82.20169" y="80.16218"/>
   <path class="level1st0" d="m803,363l-802,0l0,-362l802,0l0,362zm-796,-6l790,0l0,-350l-790,0l0,350z" id="svg_2"/>
   <rect class="level1st3" height="4" id="svg_114" width="31" x="28" y="2"/>
   <rect class="level1st3" height="36" id="svg_141" width="6" x="797" y="139"/>
   <rect class="level1st3" height="32" id="svg_143" transform="matrix(1 0 0 1 0 0)" width="6" x="1" y="167"/>
   <rect class="level1st1" height="23.50561" id="svg_3" transform="rotate(90.0628 206.451 154.985)" width="0.5" x="206.20058" y="143.23233"/>
   <rect class="level1st1" height="149.10274" id="svg_1" width="0.5" x="218.20058" y="5.60807"/>
   <rect class="level1st3" height="4" id="svg_4" width="31" x="78" y="2"/>
   <rect class="level1st3" height="4" id="svg_7" width="31" x="128" y="2"/>
   <rect class="level1st3" height="4" id="svg_8" width="31" x="178" y="2"/>
   <rect class="level1st3" height="4" id="svg_9" width="31" x="228" y="2"/>
   <rect class="level1st3" height="4" id="svg_10" width="31" x="278" y="2"/>
   <rect class="level1st3" height="4" id="svg_11" width="31" x="327" y="2"/>
   <rect class="level1st3" height="4" id="svg_12" width="31" x="375" y="2"/>
   <rect class="level1st3" height="4" id="svg_13" width="31" x="426" y="2"/>
   <rect class="level1st3" height="4" id="svg_14" width="31" x="474" y="2"/>
   <rect class="level1st3" height="4" id="svg_15" width="31" x="525" y="2"/>
   <rect class="level1st3" height="4" id="svg_16" width="31" x="579" y="2"/>
   <rect class="level1st3" height="4" id="svg_17" width="31" x="632" y="2"/>
   <rect class="level1st3" height="4" id="svg_18" width="31" x="684" y="2"/>
   <rect class="level1st3" height="4" id="svg_19" width="31" x="741" y="2"/>
   <rect class="level1st3" height="4" id="svg_20" transform="rotate(90 4.02631 34.5263)" width="31" x="-11" y="32.5"/>
   <rect class="level1st3" height="4" id="svg_21" transform="rotate(90 4.55263 97.0526)" width="31" x="-10" y="95.5"/>
   <rect class="level1st3" height="4" id="svg_22" transform="rotate(90 4 263)" width="31" x="-10" y="261"/>
   <rect class="level1st3" height="4" id="svg_23" transform="rotate(90 3.07895 327.579)" width="31" x="-12" y="324.5"/>
   <rect class="level1st3" height="4" id="svg_25" width="31" x="26" y="358"/>
  </g>
  <g id="Layer_2" opacity="0.33"/>
 </g>
 <g class="layer" id="areas">
  <title>Зоны</title>
 </g>
 <g class="layer" id="workplaces">
  <title>Рабочие столы</title>
  <use data-workplaceid="7788" id="svg_24" transform="matrix(4.64103 0 0 4.64103 0 0)" x="74" xlink:href="#svg_6" y="30"/>
  <use id="svg_27" transform="matrix(4.64103 0 0 4.64103 0 0)" x="74" xlink:href="#svg_26" y="30"/>
 </g>
</svg>