<svg width="16" height="16" viewBox="0 0 16 16" fill="none" xmlns="http://www.w3.org/2000/svg">
<g clip-path="url(#clip0)">
<path d="M7.52944 5.00833L9.03694 5.40556C9.08814 5.41753 9.13395 5.44608 9.16726 5.48676C9.20056 5.52745 9.21949 5.578 9.22111 5.63056C9.22111 5.75833 9.1075 5.86389 8.96778 5.86389H7.97889C7.87232 5.86358 7.76681 5.84283 7.66805 5.80278C7.5225 5.74167 7.35472 5.75556 7.24306 5.85833L6.71528 6.34444C6.69087 6.36581 6.6698 6.39072 6.65278 6.41833C6.63099 6.45407 6.61649 6.49378 6.61011 6.53515C6.60374 6.57652 6.60561 6.61874 6.61563 6.65939C6.62565 6.70003 6.64361 6.73829 6.66849 6.77196C6.69336 6.80562 6.72465 6.83404 6.76056 6.85556C7.05284 7.03097 7.38009 7.14002 7.71917 7.175V7.66667C7.71917 7.91111 7.93667 8.11111 8.20167 8.11111H8.68417C8.94944 8.11111 9.16694 7.91111 9.16694 7.66667V7.17778C10.0817 7.07778 10.7736 6.31667 10.6531 5.42778C10.5656 4.78889 10.0292 4.28056 9.35972 4.10278L7.85222 3.70556C7.80102 3.69358 7.75521 3.66504 7.72191 3.62435C7.68861 3.58366 7.66967 3.53311 7.66805 3.48056C7.66805 3.35278 7.78167 3.24722 7.92139 3.24722H8.91028C9.01722 3.24739 9.12312 3.26814 9.22222 3.30833C9.3675 3.36944 9.53555 3.35556 9.64722 3.25278L10.175 2.76667C10.1986 2.74575 10.2189 2.72141 10.2353 2.69444C10.2573 2.65871 10.2719 2.61898 10.2785 2.57755C10.285 2.53611 10.2832 2.4938 10.2733 2.45304C10.2634 2.41228 10.2455 2.37389 10.2207 2.34009C10.1958 2.30629 10.1645 2.27775 10.1286 2.25611C9.83623 2.0807 9.50889 1.97165 9.16972 1.93667V1.44444C9.16972 1.2 8.9525 1 8.68722 1H8.20472C7.93944 1 7.72222 1.2 7.72222 1.44444V1.93333C6.80861 2.03333 6.11528 2.79444 6.23583 3.68333C6.32306 4.32222 6.86111 4.83056 7.52944 5.00833ZM15.7019 10.1139C15.3742 9.81667 14.8631 9.83611 14.5186 10.1139L11.9519 12.1667C11.6369 12.4194 11.2448 12.5567 10.8408 12.5556H7.55556C7.43768 12.5556 7.32463 12.5087 7.24129 12.4254C7.15794 12.342 7.11111 12.229 7.11111 12.1111C7.11111 11.9932 7.15794 11.8802 7.24129 11.7968C7.32463 11.7135 7.43768 11.6667 7.55556 11.6667H9.73028C10.1719 11.6667 10.5833 11.3639 10.6539 10.9278C10.6626 10.8777 10.6669 10.8269 10.6667 10.7761C10.6662 10.5407 10.5724 10.315 10.4057 10.1486C10.2391 9.98231 10.0132 9.88889 9.77778 9.88889H5.33333C4.58378 9.88909 3.85707 10.1469 3.275 10.6192L1.98333 11.6667H0.444444C0.32657 11.6667 0.213524 11.7135 0.130175 11.7968C0.0468253 11.8802 0 11.9932 0 12.1111L0 14.7778C0 14.8957 0.0468253 15.0087 0.130175 15.092C0.213524 15.1754 0.32657 15.2222 0.444444 15.2222H10.3547C10.7585 15.2225 11.1504 15.0854 11.4658 14.8333L15.6667 11.4722C15.7677 11.3914 15.8499 11.2895 15.9075 11.1736C15.9651 11.0577 15.9967 10.9307 16 10.8013C16.0034 10.672 15.9785 10.5434 15.9271 10.4247C15.8756 10.306 15.7989 10.1999 15.7022 10.1139H15.7019Z" fill="#25213F"/>
</g>
<defs>
<clipPath id="clip0">
<rect width="16" height="16" fill="white"/>
</clipPath>
</defs>
</svg>
