<svg width="16" height="16" viewBox="0 0 16 16" fill="none" xmlns="http://www.w3.org/2000/svg">
<g clip-path="url(#clip0)">
<path d="M7.99996 3.5C8.34608 3.5 8.68442 3.39737 8.97221 3.20507C9.25999 3.01278 9.4843 2.73947 9.61675 2.4197C9.7492 2.09993 9.78386 1.74806 9.71634 1.40859C9.64881 1.06913 9.48214 0.757306 9.2374 0.512564C8.99266 0.267822 8.68084 0.101151 8.34137 0.0336265C8.0019 -0.0338976 7.65004 0.00075826 7.33027 0.133212C7.01049 0.265665 6.73718 0.489967 6.54489 0.777753C6.3526 1.06554 6.24996 1.40388 6.24996 1.75C6.24996 2.21413 6.43434 2.65925 6.76252 2.98744C7.09071 3.31563 7.53583 3.5 7.99996 3.5ZM13.5 14H2.49996C2.36735 14 2.24018 14.0527 2.14641 14.1464C2.05264 14.2402 1.99996 14.3674 1.99996 14.5V15.5C1.99996 15.6326 2.05264 15.7598 2.14641 15.8536C2.24018 15.9473 2.36735 16 2.49996 16H13.5C13.6326 16 13.7597 15.9473 13.8535 15.8536C13.9473 15.7598 14 15.6326 14 15.5V14.5C14 14.3674 13.9473 14.2402 13.8535 14.1464C13.7597 14.0527 13.6326 14 13.5 14ZM15.7771 5.755L14.8862 5.2575C14.6537 5.10125 14.3578 5.18063 14.1896 5.40375C14.0222 5.62796 13.7948 5.80036 13.5337 5.90114C13.2726 6.00191 12.9884 6.02697 12.7137 5.97344C11.9906 5.83938 11.5 5.15406 11.5 4.41875C11.5 4.30769 11.4558 4.20118 11.3773 4.12265C11.2988 4.04412 11.1923 4 11.0812 4H9.86965C9.68215 4 9.50684 4.125 9.46777 4.30969C9.39686 4.64646 9.2123 4.9486 8.94505 5.16543C8.6778 5.38227 8.34411 5.50062 7.99996 5.50062C7.65581 5.50062 7.32212 5.38227 7.05487 5.16543C6.78762 4.9486 6.60306 4.64646 6.53215 4.30969C6.49309 4.12469 6.31902 4 6.13027 4H4.91871C4.80765 4 4.70114 4.04412 4.62261 4.12265C4.54408 4.20118 4.49996 4.30769 4.49996 4.41875C4.49996 5.22156 3.90621 5.94219 3.10402 5.99656C2.85477 6.01414 2.60511 5.9685 2.37818 5.86389C2.15126 5.75928 1.95442 5.59908 1.8059 5.39813C1.6409 5.17656 1.34559 5.10281 1.11559 5.25625L0.222774 5.75625C0.121337 5.82383 0.0480793 5.92614 0.0167736 6.04394C-0.0145321 6.16174 -0.00172979 6.28692 0.0527737 6.39594L3.25746 13H12.7425L15.9471 6.39469C16.0017 6.28567 16.0145 6.16049 15.9831 6.04269C15.9518 5.92489 15.8786 5.82258 15.7771 5.755Z" fill="#25213F"/>
</g>
<defs>
<clipPath id="clip0">
<rect width="16" height="16" fill="white"/>
</clipPath>
</defs>
</svg>
