<svg width="16" height="12" viewBox="0 0 16 12" fill="none" xmlns="http://www.w3.org/2000/svg">
<path d="M4.79993 8.8H9.59993C10.9249 8.8 11.9999 7.725 11.9999 6.4H12.7999C14.5649 6.4 15.9999 4.965 15.9999 3.2C15.9999 1.435 14.5649 0 12.7999 0H2.99993C2.66743 0 2.39993 0.2675 2.39993 0.6V6.4C2.39993 7.725 3.47493 8.8 4.79993 8.8ZM12.7999 1.6C13.6824 1.6 14.3999 2.3175 14.3999 3.2C14.3999 4.0825 13.6824 4.8 12.7999 4.8H11.9999V1.6H12.7999ZM13.9924 11.2H1.20743C0.0174331 11.2 -0.317567 9.6 0.307433 9.6H14.8899C15.5149 9.6 15.1849 11.2 13.9924 11.2Z" fill="#25213F"/>
</svg>
