<svg width="16" height="16" viewBox="0 0 16 16" fill="none" xmlns="http://www.w3.org/2000/svg">
<path d="M4 7.16667V8.83333H12V7.16667C12 6.2474 12.7175 5.5 13.6 5.5H14.4C14.4 4.11979 13.325 3 12 3H4C2.675 3 1.6 4.11979 1.6 5.5H2.4C3.2825 5.5 4 6.2474 4 7.16667ZM14.4 6.33333H13.6C13.1575 6.33333 12.8 6.70573 12.8 7.16667V9.66667H3.2V7.16667C3.2 6.70573 2.8425 6.33333 2.4 6.33333H1.6C0.7175 6.33333 0 7.08073 0 8C0 8.61458 0.325 9.14583 0.8 9.4349V12.5833C0.8 12.8125 0.98 13 1.2 13H2.8C3.02 13 3.2 12.8125 3.2 12.5833V12.1667H12.8V12.5833C12.8 12.8125 12.98 13 13.2 13H14.8C15.02 13 15.2 12.8125 15.2 12.5833V9.4349C15.675 9.14583 16 8.61458 16 8C16 7.08073 15.2825 6.33333 14.4 6.33333Z" fill="#25213F"/>
</svg>
