<svg width="16" height="16" viewBox="0 0 16 16" fill="none" xmlns="http://www.w3.org/2000/svg">
<path d="M4.09563 6.9874H11.9047C12.2421 6.9874 12.5512 6.79904 12.7057 6.49918C12.8604 6.19944 12.8346 5.8383 12.6391 5.56348L9.07367 0.553631C8.82647 0.206389 8.42644 0 8.00014 0C7.57385 0 7.17382 0.206324 6.92661 0.553631L3.36129 5.56348C3.16572 5.83836 3.13997 6.19944 3.2946 6.49918C3.44917 6.79904 3.7583 6.9874 4.09563 6.9874Z" fill="#25213F"/>
<path d="M11.9047 9.0127H4.09563C3.7583 9.0127 3.44917 9.20106 3.2946 9.50092C3.13997 9.80065 3.16572 10.1618 3.36129 10.4366L6.92668 15.4465C7.17388 15.7938 7.57391 16.0001 8.00021 16.0001C8.4265 16.0001 8.82653 15.7938 9.07374 15.4465L12.6391 10.4366C12.8347 10.1617 12.8604 9.80065 12.7058 9.50092C12.5512 9.20106 12.2421 9.0127 11.9047 9.0127Z" fill="#25213F"/>
</svg>
