<svg width="16" height="16" viewBox="0 0 16 16" fill="none" xmlns="http://www.w3.org/2000/svg">
<path d="M7.75032 0C8.85488 0 9.75032 0.895437 9.75032 2C9.75032 3.10456 8.85488 4 7.75032 4C6.64575 4 5.75032 3.10456 5.75032 2C5.75032 0.895437 6.64575 0 7.75032 0ZM11.4779 11.0681L9.97791 5.06809C9.93734 4.90583 9.8437 4.76178 9.71187 4.65885C9.58003 4.55591 9.41757 4.5 9.25032 4.5H8.89532C8.1856 4.82634 7.34563 4.84044 6.60532 4.5H6.25032C6.08306 4.5 5.9206 4.55591 5.78877 4.65885C5.65693 4.76178 5.56329 4.90583 5.52272 5.06809L4.02272 11.0681C3.90454 11.5408 4.26229 12 4.75032 12H6.50032V15.25C6.50032 15.6642 6.8361 16 7.25032 16H8.25032C8.66454 16 9.00032 15.6642 9.00032 15.25V12H10.7503C11.2375 12 11.5963 11.5415 11.4779 11.0681Z" fill="#25213F"/>
</svg>
