<svg width="16" height="16" viewBox="0 0 16 16" fill="none" xmlns="http://www.w3.org/2000/svg">
<path d="M15.3333 2.77778H12.4444V1.66667C12.4444 1.29722 12.1472 1 11.7778 1H4.22222C3.85278 1 3.55556 1.29722 3.55556 1.66667V2.77778H0.666667C0.297222 2.77778 0 3.075 0 3.44444V5C0 5.99167 0.625 7.01111 1.71944 7.79722C2.59444 8.42778 3.65833 8.82778 4.775 8.95556C5.64722 10.4028 6.66667 11 6.66667 11V13H5.33333C4.35278 13 3.55556 13.575 3.55556 14.5556V14.8889C3.55556 15.0722 3.70556 15.2222 3.88889 15.2222H12.1111C12.2944 15.2222 12.4444 15.0722 12.4444 14.8889V14.5556C12.4444 13.575 11.6472 13 10.6667 13H9.33333V11C9.33333 11 10.3528 10.4028 11.225 8.95556C12.3444 8.82778 13.4083 8.42778 14.2806 7.79722C15.3722 7.01111 16 5.99167 16 5V3.44444C16 3.075 15.7028 2.77778 15.3333 2.77778ZM2.75833 6.35556C2.08056 5.86667 1.77778 5.32222 1.77778 5V4.55556H3.56111C3.58889 5.46111 3.72222 6.25556 3.91667 6.95C3.49722 6.80556 3.10556 6.60556 2.75833 6.35556ZM14.2222 5C14.2222 5.44722 13.7306 6.00278 13.2417 6.35556C12.8944 6.60556 12.5 6.80556 12.0806 6.95C12.275 6.25556 12.4083 5.46111 12.4361 4.55556H14.2222V5Z" fill="#25213F"/>
</svg>
