<svg width="16" height="16" viewBox="0 0 16 16" fill="none" xmlns="http://www.w3.org/2000/svg">
<g clip-path="url(#clip0)">
<path d="M7.99687 0.475045C8.02187 0.62192 8.5 3.42817 8.5 4.50004C8.5 6.13442 7.63125 7.30005 6.34688 7.7688L6.75 15.2094C6.77187 15.6375 6.43125 16 6 16H4C3.57188 16 3.22812 15.6407 3.25 15.2094L3.65313 7.7688C2.36563 7.30005 1.5 6.13129 1.5 4.50004C1.5 3.42504 1.97813 0.62192 2.00313 0.475045C2.10313 -0.15933 3.41875 -0.168705 3.5 0.50942V4.92192C3.54063 5.02817 3.97187 5.02192 4 4.92192C4.04375 4.13129 4.24688 0.57192 4.25 0.49067C4.35313 -0.15933 5.64687 -0.15933 5.74687 0.49067C5.75312 0.575045 5.95312 4.13129 5.99687 4.92192C6.025 5.02192 6.45937 5.02817 6.49687 4.92192V0.50942C6.57812 -0.16558 7.89687 -0.15933 7.99687 0.475045ZM11.7219 9.40317L11.2531 15.1875C11.2156 15.625 11.5625 16 12 16H13.75C14.1656 16 14.5 15.6657 14.5 15.25V0.750045C14.5 0.337545 14.1656 4.46642e-05 13.75 4.46642e-05C11.1719 4.46642e-05 6.83125 5.57817 11.7219 9.40317Z" fill="#25213F"/>
</g>
<defs>
<clipPath id="clip0">
<rect width="16" height="16" fill="white"/>
</clipPath>
</defs>
</svg>
