<svg width="16" height="16" viewBox="0 0 16 16" fill="none" xmlns="http://www.w3.org/2000/svg">
<path d="M8 0C9.10456 0 10 0.895437 10 2C10 3.10456 9.10456 4 8 4C6.89544 4 6 3.10456 6 2C6 0.895437 6.89544 0 8 0ZM9.5 4.5H9.145C8.43528 4.82634 7.59531 4.84044 6.855 4.5H6.5C5.67156 4.5 5 5.17156 5 6V10.25C5 10.6642 5.33578 11 5.75 11H6.25V15.25C6.25 15.6642 6.58578 16 7 16H9C9.41422 16 9.75 15.6642 9.75 15.25V11H10.25C10.6642 11 11 10.6642 11 10.25V6C11 5.17156 10.3284 4.5 9.5 4.5Z" fill="#25213F"/>
</svg>
