<svg width="16" height="16" viewBox="0 0 16 16" fill="none" xmlns="http://www.w3.org/2000/svg">
<g clip-path="url(#clip0)">
<path d="M2.71712 10.5228L2.71711 5.47764C2.71711 5.37268 2.81073 5.28803 2.92681 5.28803L13.2617 5.28802C13.3778 5.28802 13.4714 5.37267 13.4714 5.47764L13.4714 10.5228C13.4714 10.6278 13.3778 10.7124 13.2617 10.7124L2.92681 10.7124C2.81073 10.7124 2.71712 10.6278 2.71712 10.5228Z" fill="#25213F"/>
<path d="M2.99771 10.5225C2.99771 10.1974 2.99771 9.87068 2.99771 9.54563C2.99771 8.87012 2.99771 8.19462 2.99771 7.51912C2.99771 6.94689 2.99771 6.37296 2.99771 5.80073C2.99771 5.72624 2.99771 5.65006 2.99771 5.57557C2.99771 5.55525 3.00895 5.49769 2.99771 5.48076C2.99771 5.48076 2.98461 5.51631 2.98086 5.52308C3.0052 5.47568 2.94529 5.54678 2.96588 5.53155C2.99397 5.51123 2.9378 5.55186 2.92657 5.54171C2.92844 5.5434 2.9378 5.54171 2.94154 5.54171C2.96963 5.54509 3.00333 5.54171 3.03141 5.54171C3.39463 5.54171 3.75973 5.54171 4.12295 5.54171C4.76139 5.54171 5.40171 5.54171 6.04015 5.54171C6.80965 5.54171 7.57729 5.54171 8.34679 5.54171C9.09944 5.54171 9.85397 5.5417 10.6066 5.5417C11.1983 5.5417 11.7918 5.5417 12.3834 5.5417C12.6661 5.5417 12.9563 5.55694 13.239 5.5417C13.2409 5.5417 13.2578 5.5434 13.2596 5.5417C13.2634 5.53832 13.3738 5.59927 13.2353 5.53832C13.2184 5.53155 13.2016 5.51123 13.2334 5.53663C13.2241 5.52985 13.2147 5.52139 13.2053 5.51292C13.1791 5.49091 13.2128 5.5434 13.2035 5.51123C13.2016 5.50615 13.1791 5.48076 13.1922 5.47737C13.1885 5.47737 13.1922 5.54848 13.1922 5.55356C13.1922 5.72624 13.1922 5.89723 13.1922 6.06992C13.1922 6.7014 13.1922 7.33458 13.1922 7.96607C13.1922 8.60771 13.1922 9.24766 13.1922 9.8893C13.1922 10.0688 13.1922 10.2499 13.1922 10.4294C13.1922 10.4395 13.1829 10.514 13.1922 10.5208C13.1754 10.5089 13.2372 10.4581 13.1978 10.4971C13.2053 10.4886 13.2147 10.4802 13.2241 10.4717C13.2484 10.448 13.1904 10.4785 13.2259 10.47C13.2334 10.4683 13.2578 10.4497 13.2634 10.4598C13.2634 10.4581 13.2484 10.4598 13.2484 10.4598C13.1623 10.4514 13.0687 10.4598 12.9807 10.4598C12.7953 10.4598 12.6099 10.4598 12.4246 10.4598C11.8386 10.4598 11.2544 10.4598 10.6684 10.4598C9.91762 10.4598 9.16684 10.4598 8.41606 10.4598C7.64469 10.4598 6.87519 10.4598 6.10381 10.4598C5.45975 10.4598 4.81569 10.4598 4.16975 10.4598C3.79717 10.4598 3.42459 10.4598 3.05201 10.4598C3.02018 10.4598 2.98648 10.4581 2.95465 10.4598C2.95091 10.4598 2.9378 10.4581 2.93406 10.4598L2.93218 10.4598C2.93967 10.4531 2.97899 10.4751 2.98086 10.4751C2.96401 10.4683 2.94903 10.4497 2.98086 10.4785C2.98274 10.4802 3.01082 10.5106 2.99022 10.4886C2.96776 10.4666 2.99584 10.5106 2.99771 10.5225C2.98835 10.3904 2.87414 10.2618 2.71687 10.2685C2.57271 10.2736 2.42667 10.3803 2.43603 10.5225C2.45288 10.773 2.65322 10.9593 2.93406 10.966C2.96027 10.966 2.98648 10.966 3.01456 10.966C3.1475 10.966 3.28043 10.966 3.41336 10.966C3.93572 10.966 4.45996 10.966 4.98232 10.966C5.71438 10.966 6.44831 10.966 7.18037 10.966C7.97795 10.966 8.77554 10.966 9.57313 10.966C10.2696 10.966 10.9642 10.966 11.6607 10.966C12.1101 10.966 12.5575 10.966 13.0069 10.966C13.0893 10.966 13.1716 10.9677 13.254 10.966C13.518 10.9593 13.7352 10.7866 13.752 10.5445C13.7539 10.514 13.7539 10.4835 13.7539 10.4531C13.7539 9.98919 13.7539 9.52531 13.7539 9.06143C13.7539 8.35545 13.7539 7.65117 13.7539 6.94519C13.7539 6.47962 13.7539 6.01236 13.7539 5.54678C13.7539 5.51631 13.7539 5.48584 13.752 5.45536C13.7333 5.21157 13.518 5.04058 13.254 5.03381C13.1716 5.03212 13.0892 5.03381 13.0069 5.03381C12.5575 5.03381 12.1101 5.03381 11.6607 5.03381C10.9642 5.03381 10.2696 5.03381 9.57313 5.03381C8.77928 5.03381 7.98544 5.03381 7.18973 5.03381C6.45392 5.03381 5.71812 5.03381 4.98232 5.03381C4.45996 5.03381 3.93572 5.03381 3.41336 5.03381C3.28043 5.03381 3.14749 5.03381 3.01456 5.03381C2.98835 5.03381 2.96214 5.03381 2.93593 5.03381C2.65883 5.04058 2.44914 5.22681 2.4379 5.47737C2.42293 5.81089 2.4379 6.1478 2.4379 6.48132C2.4379 7.17206 2.4379 7.86279 2.4379 8.55353C2.4379 9.12069 2.4379 9.68953 2.4379 10.2567C2.4379 10.3447 2.4379 10.4328 2.4379 10.5208C2.4379 10.6528 2.56709 10.7815 2.71875 10.7747C2.86853 10.7697 2.99771 10.6647 2.99771 10.5225Z" fill="#25213F"/>
<path d="M8.95004 12.5086L9.25896 11.7298L12.0393 11.7298L12.3482 12.5086C12.3819 12.6288 12.2808 12.7456 12.1441 12.7456L9.15412 12.7456C9.01744 12.7439 8.91821 12.6288 8.95004 12.5086Z" fill="#25213F"/>
<path d="M9.22115 12.576C9.32412 12.317 9.4271 12.0562 9.53007 11.7972C9.44021 11.8598 9.35034 11.9208 9.2586 11.9834C10.0712 11.9834 10.8837 11.9834 11.6944 11.9834C11.8086 11.9834 11.9228 11.9834 12.0389 11.9834C11.949 11.9208 11.8592 11.8598 11.7674 11.7972C11.8667 12.0461 11.9603 12.2983 12.0633 12.5438C12.0651 12.5472 12.0707 12.5726 12.0764 12.5743C12.067 12.5709 12.0839 12.5049 12.0745 12.5387C12.067 12.5675 12.0801 12.5252 12.0876 12.5167C12.1026 12.4981 12.1325 12.4913 12.0951 12.5049C12.1381 12.4896 12.1569 12.4913 12.1138 12.4896C12.0258 12.488 11.9378 12.4896 11.8498 12.4896C11.1252 12.4896 10.4026 12.4896 9.67798 12.4896C9.54131 12.4896 9.40276 12.4896 9.26608 12.4896C9.23426 12.4896 9.19868 12.4846 9.16685 12.4896L9.15375 12.4896C9.15562 12.4795 9.1837 12.4981 9.18932 12.4981C9.2043 12.5049 9.2043 12.5049 9.18932 12.4981C9.17247 12.488 9.17622 12.4913 9.20056 12.5066C9.20804 12.5218 9.21553 12.5303 9.22489 12.5472C9.20804 12.51 9.22677 12.5523 9.22115 12.576C9.24736 12.4456 9.18183 12.2949 9.02456 12.2628C8.88601 12.234 8.70815 12.3 8.67819 12.4405C8.61641 12.7385 8.83546 12.9942 9.17434 12.9992C9.26796 13.0009 9.36344 12.9992 9.45706 12.9992C9.839 12.9992 10.2191 12.9992 10.601 12.9992C10.9942 12.9992 11.3892 12.9992 11.7824 12.9992C11.8873 12.9992 11.994 12.9992 12.0988 12.9992C12.3404 12.9992 12.5781 12.874 12.6212 12.642C12.6568 12.4541 12.5482 12.2712 12.4808 12.0986C12.4227 11.953 12.3647 11.8074 12.3067 11.6617C12.2636 11.5551 12.1662 11.4755 12.0352 11.4755C11.2226 11.4755 10.41 11.4755 9.59935 11.4755C9.48514 11.4755 9.37093 11.4755 9.25485 11.4755C9.12379 11.4755 9.02643 11.5551 8.98337 11.6617C8.8804 11.9208 8.77742 12.1815 8.67445 12.4405C8.6239 12.5658 8.73062 12.7233 8.87104 12.7538C9.03392 12.7842 9.16873 12.7097 9.22115 12.576Z" fill="#25213F"/>
<path d="M12.0388 4.27148L9.25845 4.27148L8.94953 3.4927C8.91583 3.3725 9.01693 3.25568 9.15361 3.25568L12.1436 3.25568C12.2803 3.25568 12.3814 3.3725 12.3477 3.4927L12.0388 4.27148Z" fill="#25213F"/>
<path d="M12.0386 4.01741C11.226 4.01741 10.4135 4.01741 9.60277 4.01741C9.48856 4.01741 9.37435 4.01741 9.25827 4.01741C9.34814 4.08005 9.43801 4.141 9.52975 4.20364C9.47171 4.05804 9.41367 3.91244 9.35563 3.76684C9.32006 3.67711 9.28449 3.58738 9.24891 3.49765C9.24142 3.47902 9.23581 3.45194 9.22457 3.43501L9.22083 3.42485C9.23019 3.42315 9.21895 3.46887 9.21895 3.47225C9.22832 3.44347 9.22832 3.44516 9.21708 3.47394C9.21147 3.4841 9.2021 3.49257 9.19087 3.49934C9.16091 3.52643 9.24329 3.47733 9.17776 3.50611L9.15343 3.5095C9.15343 3.5095 9.15717 3.5095 9.15904 3.5095C9.16653 3.51288 9.18525 3.5095 9.19087 3.5095C9.23955 3.5095 9.28636 3.5095 9.33504 3.5095C9.50916 3.5095 9.68141 3.5095 9.85553 3.5095C10.3311 3.5095 10.8085 3.5095 11.2841 3.5095C11.4751 3.5095 11.666 3.5095 11.857 3.5095C11.9207 3.5095 11.9843 3.5095 12.0461 3.5095C12.0667 3.5095 12.1191 3.51796 12.1378 3.5095C12.1397 3.5095 12.1416 3.5095 12.1435 3.5095C12.1341 3.51796 12.1023 3.49765 12.0967 3.49426C12.1378 3.5095 12.0967 3.49257 12.0817 3.47394C12.0573 3.44516 12.0779 3.45024 12.0798 3.47225C12.0798 3.46717 12.0686 3.42993 12.0779 3.42654C12.0761 3.42654 12.0723 3.44178 12.0704 3.44516C12.0311 3.52304 12.0049 3.60939 11.9731 3.69065C11.9057 3.86165 11.8364 4.03264 11.769 4.20533C11.7185 4.33062 11.8252 4.48807 11.9656 4.51854C12.1229 4.55071 12.2577 4.47452 12.312 4.34077C12.3756 4.17994 12.4393 4.0191 12.5029 3.85657C12.5891 3.64155 12.7164 3.42146 12.5535 3.20137C12.458 3.0727 12.3026 3.00498 12.1322 3.00159C12.0929 3.00159 12.0555 3.00159 12.0161 3.00159C11.8401 3.00159 11.666 3.00159 11.49 3.00159C10.9864 3.00159 10.4827 3.00159 9.9791 3.00159C9.77877 3.00159 9.58031 3.00159 9.37997 3.00159C9.27325 3.00159 9.15904 2.99313 9.05419 3.01175C8.78646 3.06085 8.60297 3.32157 8.67974 3.56198C8.70408 3.63648 8.73778 3.70758 8.76586 3.78038C8.83888 3.96661 8.91377 4.15285 8.98679 4.33908C9.02985 4.44574 9.12721 4.52531 9.25827 4.52531C10.0708 4.52531 10.8834 4.52531 11.6941 4.52531C11.8083 4.52531 11.9225 4.52531 12.0386 4.52531C12.1846 4.52531 12.3269 4.40849 12.3195 4.27136C12.3138 4.13253 12.1959 4.01741 12.0386 4.01741Z" fill="#25213F"/>
<path d="M3.65328 12.5086L3.96221 11.7298L6.7407 11.7298L7.04962 12.5086C7.08333 12.6288 6.98222 12.7456 6.84554 12.7456L3.85549 12.7456C3.71881 12.7439 3.61958 12.6288 3.65328 12.5086Z" fill="#25213F"/>
<path d="M3.92257 12.576C4.02554 12.317 4.12852 12.0562 4.23149 11.7972C4.14162 11.8598 4.05175 11.9208 3.96001 11.9834C4.77258 11.9834 5.58514 11.9834 6.39583 11.9834C6.51004 11.9834 6.62425 11.9834 6.74033 11.9834C6.65046 11.9208 6.5606 11.8598 6.46885 11.7972C6.56808 12.0461 6.6617 12.2983 6.76467 12.5438C6.76654 12.5472 6.77216 12.5726 6.77778 12.5743C6.76842 12.5709 6.78527 12.5049 6.77591 12.5387C6.76842 12.5675 6.78152 12.5252 6.78901 12.5167C6.80399 12.4981 6.83395 12.4913 6.7965 12.5049C6.83956 12.4896 6.85829 12.4913 6.81522 12.4896C6.72723 12.488 6.63923 12.4896 6.55123 12.4896C5.82666 12.4896 5.10397 12.4896 4.3794 12.4896C4.24272 12.4896 4.10418 12.4896 3.9675 12.4896C3.93567 12.4896 3.9001 12.4846 3.86827 12.4896L3.85516 12.4896C3.85704 12.4795 3.88512 12.4981 3.89074 12.4981C3.90572 12.5049 3.90572 12.5049 3.89074 12.4981C3.87389 12.488 3.87763 12.4913 3.90197 12.5066C3.90946 12.5218 3.91695 12.5303 3.92631 12.5472C3.90946 12.51 3.92818 12.5523 3.92257 12.576C3.94878 12.4456 3.88325 12.2949 3.72598 12.2628C3.58743 12.234 3.40956 12.3 3.37961 12.4405C3.31782 12.7385 3.53688 12.9942 3.87576 12.9992C3.96937 13.0009 4.06486 12.9992 4.15847 12.9992C4.54042 12.9992 4.92049 12.9992 5.30243 12.9992C5.69561 12.9992 6.09066 12.9992 6.48383 12.9992C6.58868 12.9992 6.6954 12.9992 6.80025 12.9992C7.04177 12.9992 7.27955 12.874 7.32261 12.642C7.35818 12.4541 7.24959 12.2712 7.18219 12.0986C7.12415 11.953 7.06611 11.8074 7.00807 11.6617C6.96501 11.5551 6.86765 11.4755 6.73659 11.4755C5.92402 11.4755 5.11146 11.4755 4.30076 11.4755C4.18656 11.4755 4.07235 11.4755 3.95627 11.4755C3.82521 11.4755 3.72785 11.5551 3.68479 11.6617C3.58181 11.9208 3.47884 12.1815 3.37586 12.4405C3.32531 12.5658 3.43203 12.7233 3.57245 12.7538C3.73534 12.7842 3.87014 12.7097 3.92257 12.576Z" fill="#25213F"/>
<path d="M6.7407 4.27148L3.96036 4.27148L3.65143 3.4927C3.61773 3.3725 3.71883 3.25568 3.85551 3.25568L6.84555 3.25568C6.98222 3.25568 7.08333 3.3725 7.04962 3.4927L6.7407 4.27148Z" fill="#25213F"/>
<path d="M6.74076 4.01741C5.92819 4.01741 5.11562 4.01741 4.30492 4.01741C4.19071 4.01741 4.0765 4.01741 3.96042 4.01741C4.05029 4.08005 4.14016 4.141 4.2319 4.20364C4.17386 4.05804 4.11582 3.91244 4.05778 3.76684C4.02221 3.67711 3.98663 3.58738 3.95106 3.49765C3.94357 3.47902 3.93796 3.45194 3.92672 3.43501L3.92298 3.42485C3.93234 3.42315 3.9211 3.46887 3.9211 3.47225C3.93047 3.44347 3.93047 3.44516 3.91923 3.47394C3.91361 3.4841 3.90425 3.49257 3.89302 3.49934C3.86306 3.52643 3.94544 3.47733 3.87991 3.50611L3.85557 3.5095C3.85557 3.5095 3.85932 3.5095 3.86119 3.5095C3.86868 3.51288 3.8874 3.5095 3.89302 3.5095C3.9417 3.5095 3.98851 3.5095 4.03719 3.5095C4.21131 3.5095 4.38356 3.5095 4.55768 3.5095C5.03324 3.5095 5.51067 3.5095 5.98623 3.5095C6.1772 3.5095 6.36818 3.5095 6.55915 3.5095C6.62281 3.5095 6.68646 3.5095 6.74825 3.5095C6.76884 3.5095 6.82127 3.51796 6.83999 3.5095C6.84186 3.5095 6.84373 3.5095 6.84561 3.5095C6.83625 3.51796 6.80442 3.49765 6.7988 3.49426C6.83999 3.5095 6.7988 3.49257 6.78382 3.47394C6.75948 3.44516 6.78008 3.45024 6.78195 3.47225C6.78195 3.46717 6.77072 3.42993 6.78008 3.42654C6.7782 3.42654 6.77446 3.44178 6.77259 3.44516C6.73327 3.52304 6.70706 3.60939 6.67523 3.69065C6.60783 3.86165 6.53855 4.03264 6.47115 4.20533C6.4206 4.33062 6.52732 4.48807 6.66774 4.51854C6.82501 4.55071 6.95982 4.47452 7.01411 4.34077C7.07777 4.17994 7.14143 4.0191 7.20508 3.85657C7.29121 3.64155 7.41852 3.42146 7.25564 3.20137C7.16015 3.0727 7.00475 3.00498 6.83437 3.00159C6.79506 3.00159 6.75761 3.00159 6.71829 3.00159C6.5423 3.00159 6.36818 3.00159 6.19218 3.00159C5.68854 3.00159 5.18489 3.00159 4.68125 3.00159C4.48092 3.00159 4.28245 3.00159 4.08212 3.00159C3.9754 3.00159 3.86119 2.99313 3.75634 3.01175C3.48861 3.06085 3.30512 3.32157 3.38189 3.56198C3.40623 3.63648 3.43993 3.70758 3.46801 3.78038C3.54103 3.96661 3.61592 4.15285 3.68894 4.33908C3.732 4.44574 3.82936 4.52531 3.96042 4.52531C4.77299 4.52531 5.58556 4.52531 6.39626 4.52531C6.51047 4.52531 6.62468 4.52531 6.74076 4.52531C6.8868 4.52531 7.02909 4.40849 7.0216 4.27136C7.01598 4.13253 6.8999 4.01741 6.74076 4.01741Z" fill="#25213F"/>
<path d="M15.4579 9.53708L14.5966 9.25773L14.5966 6.74363L15.4579 6.46428C15.5908 6.43381 15.72 6.52523 15.72 6.64882L15.72 9.35085C15.7181 9.47613 15.5908 9.56586 15.4579 9.53708Z" fill="#25213F"/>
<path d="M15.5311 9.2917C15.2446 9.19858 14.9563 9.10546 14.6698 9.01235C14.7391 9.09361 14.8065 9.17488 14.8758 9.25783C14.8758 8.52306 14.8758 7.78829 14.8758 7.05521C14.8758 6.95194 14.8758 6.84867 14.8758 6.7437C14.8065 6.82496 14.7391 6.90623 14.6698 6.98919C14.9451 6.89946 15.224 6.81481 15.4955 6.72169C15.4993 6.72 15.5274 6.71492 15.5292 6.70984C15.5255 6.7183 15.4525 6.70307 15.4899 6.71153C15.5217 6.7183 15.4749 6.70645 15.4656 6.69968C15.445 6.68614 15.4375 6.65905 15.4525 6.69291C15.4356 6.65397 15.4375 6.63704 15.4356 6.67598C15.4337 6.75555 15.4356 6.83512 15.4356 6.91469C15.4356 7.56989 15.4356 8.2234 15.4356 8.8786C15.4356 9.00219 15.4356 9.12747 15.4356 9.25106C15.4356 9.27984 15.43 9.31201 15.4356 9.34079L15.4356 9.35264C15.4244 9.35095 15.445 9.32556 15.445 9.32048C15.4525 9.30693 15.4525 9.30693 15.445 9.32048C15.4337 9.33571 15.4375 9.33233 15.4543 9.31032C15.4712 9.30355 15.4805 9.29677 15.4993 9.28831C15.46 9.30355 15.5068 9.28662 15.5311 9.2917C15.3869 9.26799 15.2203 9.32725 15.1847 9.46946C15.1529 9.59475 15.2259 9.75558 15.3813 9.78267C15.7108 9.83854 15.9936 9.64046 15.9992 9.33402C16.001 9.24937 15.9992 9.16303 15.9992 9.07837C15.9992 8.733 15.9992 8.38931 15.9992 8.04394C15.9992 7.6884 15.9992 7.33118 15.9992 6.97564C15.9992 6.87914 15.9992 6.78433 15.9992 6.68783C15.9992 6.46943 15.8606 6.25442 15.6041 6.21548C15.3963 6.18331 15.1941 6.2815 15.0031 6.34245C14.8421 6.39494 14.6811 6.44742 14.5201 6.4999C14.4021 6.53884 14.3141 6.62688 14.3141 6.74539C14.3141 7.48016 14.3141 8.21493 14.3141 8.94801C14.3141 9.05129 14.3141 9.15456 14.3141 9.25953C14.3141 9.37804 14.4021 9.46608 14.5201 9.50502C14.8065 9.59813 15.0949 9.69125 15.3813 9.78436C15.5199 9.83008 15.694 9.73357 15.7277 9.6066C15.7633 9.461 15.6809 9.3391 15.5311 9.2917Z" fill="#25213F"/>
<path d="M0.282428 9.3505L0.282427 6.64679C0.282427 6.52321 0.411614 6.43179 0.544545 6.46226L1.59302 6.7416L1.59302 9.25569L0.544546 9.53504C0.409742 9.56551 0.282428 9.47578 0.282428 9.3505Z" fill="#25213F"/>
<path d="M0.563435 9.35064C0.563435 8.83596 0.563435 8.3196 0.563435 7.80493C0.563435 7.49511 0.563435 7.18529 0.563435 6.87547C0.563435 6.80606 0.572796 6.72987 0.563435 6.66046C0.563435 6.65876 0.565307 6.64861 0.563435 6.64691C0.569051 6.65369 0.548457 6.68585 0.546585 6.68924C0.557818 6.66384 0.570924 6.67739 0.544712 6.68924C0.537223 6.69262 0.479183 6.71463 0.511011 6.70786C0.544712 6.70109 0.477311 6.71294 0.471694 6.70617C0.473566 6.70786 0.481055 6.70786 0.482927 6.70955C0.499778 6.71802 0.524117 6.71971 0.54284 6.72479C0.868615 6.81113 1.19439 6.89917 1.52016 6.98551C1.45089 6.90425 1.38349 6.82299 1.31422 6.74003C1.31422 7.47479 1.31422 8.20955 1.31422 8.94262C1.31422 9.0459 1.31422 9.14917 1.31422 9.25414C1.38349 9.17287 1.45089 9.09161 1.52017 9.00865C1.31796 9.06283 1.11763 9.11531 0.915421 9.16949C0.795596 9.20165 0.677643 9.23382 0.557818 9.26429C0.539095 9.26937 0.492289 9.27276 0.477311 9.2863C0.467949 9.29307 0.544712 9.29307 0.512883 9.2863C0.490416 9.28122 0.540968 9.30323 0.554073 9.31508C0.565307 9.33032 0.563435 9.32693 0.550329 9.30662C0.557818 9.32186 0.563435 9.3354 0.563435 9.35064C0.554073 9.21858 0.439865 9.08991 0.282594 9.09669C0.13843 9.10177 -0.00760739 9.20842 0.00175401 9.35064C0.0204767 9.64353 0.305062 9.85177 0.628964 9.77727C0.733811 9.75357 0.838658 9.7214 0.943505 9.69432C1.18503 9.62998 1.42655 9.56565 1.66807 9.50131C1.78603 9.46915 1.87402 9.36926 1.87402 9.25583C1.87402 8.52107 1.87402 7.7863 1.87402 7.05323C1.87402 6.94996 1.87402 6.84669 1.87402 6.74172C1.87402 6.62829 1.78603 6.5284 1.66807 6.49624C1.36289 6.41497 1.05584 6.33371 0.750661 6.25244C0.707599 6.24059 0.664537 6.22705 0.619603 6.21858C0.417398 6.17287 0.205831 6.24398 0.0860059 6.39804C0.00549824 6.50132 -0.000118056 6.61644 -0.000118046 6.73495C-0.000117989 7.38845 -0.000117932 8.04025 -0.000117875 8.69375C-0.000117856 8.91215 -0.000117837 9.13055 -0.000117817 9.35064C-0.000117806 9.48269 0.129069 9.61136 0.280723 9.60459C0.434249 9.59951 0.563435 9.49454 0.563435 9.35064Z" fill="#25213F"/>
</g>
<defs>
<clipPath id="clip0">
<rect width="16" height="16" fill="white" transform="translate(16 16) rotate(180)"/>
</clipPath>
</defs>
</svg>
