<svg width="16" height="16" viewBox="0 0 16 16" fill="none" xmlns="http://www.w3.org/2000/svg">
<path d="M5.33333 14.7778C5.33333 15.0222 5.53333 15.2222 5.77778 15.2222H6.66667C6.91111 15.2222 7.11111 15.0222 7.11111 14.7778V9.88889H5.33333V14.7778ZM6.22222 7.22222H4.80833L3.55278 5.96389C3.21667 5.62778 2.76944 5.44444 2.29722 5.44444H1.77778C1.30278 5.44444 0.855556 5.63056 0.519444 5.96667C0.186111 6.30278 0 6.75 0 7.225L0.00555556 9.88889L0 14.3333C0 14.825 0.397222 15.2222 0.886111 15.2222C1.375 15.2222 1.775 14.825 1.775 14.3333L1.77778 11.5361C1.80278 11.55 1.82222 11.5722 1.84722 11.5833L2.65556 12.7778V14.3333C2.65556 14.825 3.05278 15.2222 3.54444 15.2222C4.03611 15.2222 4.43333 14.825 4.43333 14.3333V12.7639C4.43333 12.4889 4.36944 12.2139 4.24722 11.9694L3.10278 10.2667V8.02778L3.68333 8.60833C3.93611 8.86111 4.26944 9 4.625 9H6.22222C6.71389 9 7.11111 8.60278 7.11111 8.11111C7.11111 7.61944 6.71389 7.22222 6.22222 7.22222ZM1.77778 4.55556C2.51389 4.55556 3.11111 3.95833 3.11111 3.22222C3.11111 2.48611 2.51389 1.88889 1.77778 1.88889C1.04167 1.88889 0.444444 2.48611 0.444444 3.22222C0.444444 3.95833 1.04167 4.55556 1.77778 4.55556ZM8 1.88889L8.875 8.08611L8.01667 12.3806C7.89722 12.9806 8.37778 13.4444 8.88889 13.4444C9.31111 13.4444 9.66667 13.1917 9.78611 12.6C9.81111 13.0694 10.1917 13.4444 10.6667 13.4444C11.1583 13.4444 11.5556 13.0472 11.5556 12.5556C11.5556 13.0472 11.9528 13.4444 12.4444 13.4444C12.9361 13.4444 13.3333 13.0472 13.3333 12.5556V1H8V1.88889ZM5.33333 1.88889V6.33333H7.11111V1H6.22222C5.73056 1 5.33333 1.39722 5.33333 1.88889ZM15.1111 1H14.2222V14.7778C14.2222 15.0222 14.4222 15.2222 14.6667 15.2222H15.5556C15.8 15.2222 16 15.0222 16 14.7778V1.88889C16 1.39722 15.6028 1 15.1111 1Z" fill="#25213F"/>
</svg>
