<svg width="16" height="16" viewBox="0 0 16 16" fill="none" xmlns="http://www.w3.org/2000/svg">
<path d="M8 0C9.10456 0 10 0.895437 10 2C10 3.10456 9.10456 4 8 4C6.89544 4 6 3.10456 6 2C6 0.895437 6.89544 0 8 0Z" fill="#25213F"/>
<path d="M11.2404 5.68171L11.5704 6.68865C11.7665 7.28741 11.8646 7.58679 11.7149 7.7934C11.5652 8 11.2501 8 10.6201 8H5.38029C4.75007 8 4.43496 8 4.28524 7.79335C4.13552 7.58669 4.23371 7.28727 4.43007 6.68842L4.76017 5.68171C4.81918 5.487 4.95539 5.31414 5.14715 5.19062C5.3389 5.0671 5.57521 5 5.81849 5H6.33485C7.41167 5.40853 8.63345 5.39161 9.66576 5H10.1821C10.4254 5 10.6617 5.0671 10.8535 5.19062C11.0452 5.31414 11.1814 5.487 11.2404 5.68171Z" fill="#25213F"/>
<path d="M11.3599 9H4.64005C2.83259 9 1.92886 9 1.37313 9.46186C1.13506 9.65972 0.946161 9.91015 0.821317 10.1934C0.529899 10.8546 0.778173 11.7236 1.27472 13.4615C1.57249 14.5037 1.72138 15.0248 2.06305 15.3822C2.21225 15.5382 2.38572 15.6691 2.57674 15.7696C3.0142 16 3.55615 16 4.64005 16H11.3599C12.4438 16 12.9858 16 13.4233 15.7696C13.6143 15.6691 13.7878 15.5382 13.9369 15.3822C14.2786 15.0248 14.4275 14.5037 14.7253 13.4615L14.7253 13.4615C15.2218 11.7236 15.4701 10.8546 15.1787 10.1934C15.0538 9.91015 14.8649 9.65972 14.6269 9.46186C14.0711 9 13.1674 9 11.3599 9Z" fill="#25213F"/>
</svg>
