<svg version="1.1" id="Слой_1" xmlns="http://www.w3.org/2000/svg" xmlns:xlink="http://www.w3.org/1999/xlink"
	width="16" height="16" viewBox="0 0 100 100">
<g>
	<g>
		<path d="M93.4,59.7l-4.6-7.3c-0.6-0.9-1.8-1.2-2.7-0.6c0,0,0,0,0,0l-5.6,3.5c-0.9,0.6-1.2,1.8-0.6,2.8l4.6,7.3
			c1.6,2.5,0.8,5.8-1.7,7.3c-0.8,0.5-1.8,0.8-2.8,0.8h-16v-8c0-1.5-1.2-2.7-2.7-2.6c-0.7,0-1.4,0.3-1.9,0.8L46.1,77
			c-1,1-1,2.7,0,3.7c0,0,0,0,0,0l13.3,13.1c1,1,2.7,1,3.8,0c0.5-0.5,0.8-1.2,0.8-1.9v-7.8h15.9c8.8,0,16-7.2,16-16
			C95.8,65.2,95,62.2,93.4,59.7z" fill="#25213F"/>
	</g>
	<g>
		<path d="M30.7,34.9c0,0,0-0.1,0-0.1c-0.4-1.4-1.8-2.3-3.3-1.9L9.1,37.1c-0.7,0.2-1.3,0.6-1.7,1.2C6.6,39.6,7,41.2,8.3,42l6.8,4.1
			L6.6,59.7c-1.6,2.5-2.4,5.4-2.4,8.4c0,8.8,7.1,16,16,16h8.6c1.1,0,2-0.9,2-2v-6.6c0-1.1-0.9-2-2-2h-8.6c-1,0-2-0.3-2.8-0.8
			c-2.5-1.6-3.2-4.8-1.7-7.3l8.4-13.5l6.8,4.2c0.6,0.4,1.3,0.5,2,0.3c1.4-0.3,2.3-1.8,2-3.2L30.7,34.9z" fill="#25213F"/>
	</g>
	<g>
		<path d="M34.2,20.4l5.6,3.5c0.9,0.6,2.2,0.3,2.8-0.7c0,0,0,0,0,0l2.9-4.9c1.5-2.5,4.8-3.3,7.3-1.7c0.7,0.4,1.3,1,1.7,1.7l5.1,8.2
			c3.8,1.1,6.6,4.7,6.6,8.9v2.1v1.2v2.2l7.6,1.7c1.4,0.4,2.9-0.5,3.3-1.9c0,0,0-0.1,0-0.1l4.2-18.3c0.3-1.4-0.6-2.9-2-3.2
			c-0.7-0.2-1.4,0-2,0.3l-6.8,4.2l-6.9-11c-4.7-7.5-14.5-9.7-22-5.1c-2.1,1.3-3.8,3-5.1,5.1l-3,4.8C33,18.6,33.3,19.8,34.2,20.4z" fill="#25213F"/>
	</g>
	<g>
		<path d="M42.8,71.1c-1.3,0-2.4-1.2-2.4-2.8V55.6v-2.9V38.8v-1.2v-2.1c0-1.5,1.1-2.8,2.4-2.8h14.5c1.3,0,2.4,1.2,2.4,2.8v2.1v1.2
			v13.8v2.9v4.3c0.5-0.2,1.1-0.3,1.6-0.3c0.6,0,1.1,0.1,1.6,0.2v-4.3v-2.9V38.8v-1.2v-2.1c0-3.3-2.5-6-5.6-6h-2.6v-0.7
			c0,0,0-0.1,0-0.1c0,0,0,0,0,0c0,0,0,0,0,0c0,0,0-0.1,0-0.1v0c0,0,0-0.1,0-0.1c0,0,0,0,0,0c0,0,0,0,0,0c0,0,0-0.1,0-0.1l0-0.7
			c0,0,0-0.1,0-0.1c0,0,0-0.1,0-0.1v-0.1c0,0,0-0.1,0-0.1c0-0.8-0.7-1.5-1.5-1.5h-6.2c-0.8,0-1.4,0.6-1.5,1.3c0,0.1,0,0.1,0,0.2
			c0,0,0,0,0,0.1l0,0.2c0,0,0,0,0,0.1c0,0,0,0,0,0.1l0,0.8c0,0,0,0,0,0.1c0,0,0,0,0,0c0,0,0,0,0,0c0,0,0,0,0,0.1l0,0.1
			c0,0,0,0,0,0.1c0,0,0,0,0,0c0,0,0,0,0,0c0,0,0,0,0,0.1v0.7h-2.6c-3.1,0-5.6,2.7-5.6,6v2.1v1.2v13.8v2.9v12.8c0,3.3,2.5,6,5.6,6H44
			l3.2-3.2H42.8z" fill="#25213F"/>
	</g>
	<g>
		<path d="M41.9,65.8v0.9V68c0,1,0.7,1.8,1.5,1.8h5.3l8.5-8.5c0.3-0.3,0.7-0.6,1.1-0.8v-2c0,0,0,0,0,0v-2.2v-0.4v-0.9v-1.4
			c0-1-0.7-1.8-1.5-1.8H43.3c-0.8,0-1.5,0.8-1.5,1.8v1.4v0.9v0.4v6.9c0,0,0,0,0,0v2.2V65.8z" fill="#25213F"/>
	</g>
</g>
</svg>
