<svg version="1.1" id="Слой_1" xmlns="http://www.w3.org/2000/svg" xmlns:xlink="http://www.w3.org/1999/xlink"
	 viewBox="0 0 100 100" width="16" height="16">
<g>
	<path d="M84.6,34.2H15.4c-1,0-1.8,0.8-1.8,1.8v23.4V60v22.4c0,7.2,5.8,13,13,13h46.9c7.1,0,13-5.8,13-13V60v-0.7V36
		C86.4,35,85.6,34.2,84.6,34.2z M28.4,67.6c0-0.3,0.1-0.6,0.2-0.9c0.1-0.3,0.3-0.6,0.4-0.9c0.7-1.4,1.4-2.8,2.2-4.2
		c0.1-0.1,0.2-0.2,0.1-0.3c0-0.1-0.2-0.2-0.3-0.2c-0.7-0.6-1.4-1.1-2.2-1.7c0,0-0.1-0.1-0.1-0.1c0,0,0,0,0,0c0.4,0,0.8,0,1.2,0
		c1.6,0,3.2,0,4.8,0c1.1,0,2.2,0,3.4,0c0.1,0,0.1,0,0.1,0.1c1.5,2.8,3,5.6,4.5,8.4c0,0,0,0.1,0,0.1c0,0-0.1,0-0.1-0.1
		c-0.8-0.4-1.5-0.8-2.3-1.2c-0.1-0.1-0.1,0-0.2,0.1c-0.7,1.2-1.5,2.4-2.2,3.5c-0.4,0.7-0.9,1.4-1.3,2.1c-0.1,0.1-0.1,0.1-0.2,0.1
		c-0.5,0-0.9,0-1.4,0c-0.8,0-1.6-0.1-2.3-0.2c-1.8-0.3-3.1-1.3-4-2.8C28.6,68.7,28.4,68.2,28.4,67.6z M47.7,84
		C47.6,84.1,47.6,84.1,47.7,84c-2.3,0-4.4,0-6.6,0c-0.5,0-1.1,0-1.6-0.1c-1-0.1-1.9-0.3-2.7-0.9c-0.3-0.2-0.6-0.5-0.9-0.8
		c0,0-0.1-0.1-0.1-0.1c-1.4-2.6-2.9-5.3-4.3-7.9c-0.4-0.8-0.9-1.6-1.3-2.4c0,0,0-0.1,0-0.1c0.1,0.1,0.1,0.1,0.2,0.2
		c1.1,1,2.4,1.6,3.9,1.8c0.3,0,0.7,0,1,0c2.3,0,4.6,0,6.9,0c1.7,0,3.5,0,5.2,0c0.1,0,0.1,0,0.2,0C47.7,77.3,47.7,80.7,47.7,84z
		 M48,51.2c-1.5,2.4-3,4.9-4.5,7.3c0,0,0,0-0.1,0.1c-2.9-1.7-5.8-3.5-8.8-5.2c0-0.1,0.1-0.1,0.1-0.2c1.5-2.3,3-4.6,4.5-6.9
		c0.1-0.2,0.3-0.3,0.5-0.5c0.6-0.5,1.4-0.7,2.2-0.6c0.7,0.1,1.3,0.3,1.9,0.6c0.9,0.5,1.6,1.2,2.3,2c0.7,0.9,1.3,1.8,1.9,2.8
		C48.1,50.8,48.1,51,48,51.2z M52.5,53.8c-0.8-1.5-1.6-3-2.5-4.5c-0.5-1-1.2-1.9-2-2.7c-0.7-0.7-1.5-1.2-2.4-1.6
		c-0.1,0-0.1-0.1-0.2-0.1c0,0,0,0,0,0c0,0,0.1,0,0.1,0c1.8,0,3.6,0,5.4-0.1c0.9,0,1.9,0,2.8,0c0.5,0,0.9,0,1.4,0c0,0,0.1,0,0.1,0
		c0.2,0,0.5,0,0.7,0c0.1,0,0.1,0,0.2,0c1,0,1.9,0.3,2.7,0.9c0.7,0.5,1.1,1,1.5,1.8c0.6,1.2,1.3,2.4,2,3.6c0,0.1,0.1,0.1,0.1,0.2
		c0.9-0.5,1.8-1,2.8-1.4c0,0.1-0.1,0.1-0.1,0.1c-1.5,2.5-3.1,5.1-4.6,7.6c-0.1,0.2-0.3,0.3-0.5,0.3c-0.7,0-1.4,0-2.1,0
		c-1.2,0-2.5,0-3.7,0c-0.9,0-1.8,0-2.8-0.1c-0.1,0-0.1,0-0.2,0c0,0,0,0,0.1-0.1c0.7-0.5,1.4-0.9,2.2-1.4c0.2-0.1,0.2-0.1,0.1-0.3
		C53.2,55.1,52.9,54.5,52.5,53.8z M69.6,71.9c-1.6,3-3.2,6-4.8,9c-0.2,0.3-0.3,0.6-0.5,0.8c-0.4,0.7-0.9,1.2-1.6,1.6
		c-0.5,0.3-1.1,0.6-1.7,0.7c-0.3,0-0.6,0-0.9,0c-1.4,0-2.7,0-4.1,0c0,0-0.1,0-0.1,0c0,1.1-0.1,2.1-0.1,3.2c0,0,0,0,0,0
		c0,0,0-0.1-0.1-0.1c-1.5-2.7-2.9-5.3-4.4-8c-0.1-0.1,0-0.2,0-0.3c1.4-2.4,2.7-4.9,4.1-7.3c0.1-0.2,0.2-0.4,0.4-0.6c0,0,0,0,0,0
		c0.1,1,0.1,1.9,0.2,2.9c0.1,0,0.1,0,0.2,0c1.9,0,3.8,0,5.7,0c0.7,0,1.5,0,2.2,0c1.5,0,3-0.4,4.4-1.2C68.9,72.4,69.2,72.2,69.6,71.9
		c-0.1,0,0-0.1,0-0.1C69.7,71.9,69.7,71.9,69.6,71.9z M71.6,67.7c0,0.2-0.1,0.4-0.1,0.7c-0.2,0.8-0.6,1.4-1.2,1.9
		c-0.7,0.6-1.6,1-2.5,1.3c-0.8,0.2-1.6,0.4-2.4,0.5c-0.7,0.1-1.5,0-2.2,0c-0.1,0-0.1,0-0.2-0.1c-1.3-2.4-2.6-4.8-3.9-7.2
		c-0.1-0.1-0.1-0.3-0.2-0.4c-0.1-0.1,0-0.2,0.1-0.2c0.6-0.4,1.2-0.7,1.8-1.1c1.3-0.8,2.5-1.5,3.8-2.3c0.9-0.6,1.9-1.1,2.8-1.7
		c0.1-0.1,0.1,0,0.2,0c0.2,0.4,0.5,0.9,0.7,1.3c0.9,1.8,1.8,3.6,2.7,5.3c0.1,0.2,0.2,0.5,0.4,0.7c0.1,0.3,0.2,0.6,0.2,0.9
		c0,0,0,0,0,0.1C71.6,67.5,71.6,67.6,71.6,67.7z" fill="#25213F"/>
	<path d="M91.1,10.2c0-0.1,0-0.1,0-0.2V6.7c0-0.1,0-0.1,0-0.2c0-1.1-0.9-2-2-2H10.9C9.9,4.6,9,5.4,9,6.5h0v0c0,0,0,0,0,0.1
		c0,0,0,0,0,0.1v3.5v0c0,0,0,0,0,0.1c0,0,0,0,0,0.1v12.1c0,0,0,0,0,0.1c0,0,0,0,0,0.1V26c0,0,0,0,0,0.1c0,1.1,0.9,1.9,1.9,2
		c0,0,0,0,0.1,0h78.1c0,0,0,0,0.1,0c1.1,0,1.9-0.9,1.9-2c0-0.1,0-0.1,0-0.2v-3.3c0-0.1,0-0.1,0-0.2c0-0.1,0-0.1,0-0.2V10.4
		C91,10.3,91.1,10.3,91.1,10.2z M59.3,22.3H40.7c-1.6,0-2.8-1.3-2.8-2.8c0-1.6,1.3-2.8,2.8-2.8h18.6c1.6,0,2.8,1.3,2.8,2.8
		C62.1,21,60.9,22.3,59.3,22.3z" fill="#25213F"/>
</g>
</svg>
