<svg width="16" height="16" viewBox="0 0 16 16" fill="none" xmlns="http://www.w3.org/2000/svg">
<path d="M15 5H1C0.447719 5 0 4.55228 0 4V2C0 1.44772 0.447719 1 1 1H15C15.5523 1 16 1.44772 16 2V4C16 4.55228 15.5523 5 15 5ZM13.5 2.25C13.0858 2.25 12.75 2.58578 12.75 3C12.75 3.41422 13.0858 3.75 13.5 3.75C13.9142 3.75 14.25 3.41422 14.25 3C14.25 2.58578 13.9142 2.25 13.5 2.25ZM11.5 2.25C11.0858 2.25 10.75 2.58578 10.75 3C10.75 3.41422 11.0858 3.75 11.5 3.75C11.9142 3.75 12.25 3.41422 12.25 3C12.25 2.58578 11.9142 2.25 11.5 2.25ZM15 10H1C0.447719 10 0 9.55228 0 9V7C0 6.44772 0.447719 6 1 6H15C15.5523 6 16 6.44772 16 7V9C16 9.55228 15.5523 10 15 10ZM13.5 7.25C13.0858 7.25 12.75 7.58578 12.75 8C12.75 8.41422 13.0858 8.75 13.5 8.75C13.9142 8.75 14.25 8.41422 14.25 8C14.25 7.58578 13.9142 7.25 13.5 7.25ZM11.5 7.25C11.0858 7.25 10.75 7.58578 10.75 8C10.75 8.41422 11.0858 8.75 11.5 8.75C11.9142 8.75 12.25 8.41422 12.25 8C12.25 7.58578 11.9142 7.25 11.5 7.25ZM15 15H1C0.447719 15 0 14.5523 0 14V12C0 11.4477 0.447719 11 1 11H15C15.5523 11 16 11.4477 16 12V14C16 14.5523 15.5523 15 15 15ZM13.5 12.25C13.0858 12.25 12.75 12.5858 12.75 13C12.75 13.4142 13.0858 13.75 13.5 13.75C13.9142 13.75 14.25 13.4142 14.25 13C14.25 12.5858 13.9142 12.25 13.5 12.25ZM11.5 12.25C11.0858 12.25 10.75 12.5858 10.75 13C10.75 13.4142 11.0858 13.75 11.5 13.75C11.9142 13.75 12.25 13.4142 12.25 13C12.25 12.5858 11.9142 12.25 11.5 12.25Z" fill="#25213F"/>
</svg>
