<svg width="16" height="16" viewBox="0 0 16 16" fill="none" xmlns="http://www.w3.org/2000/svg">
<path d="M9.5 10.0001C9.40111 10.0001 9.30444 10.0294 9.22221 10.0844C9.13999 10.1393 9.0759 10.2174 9.03806 10.3088C9.00022 10.4001 8.99031 10.5006 9.00961 10.5976C9.0289 10.6946 9.07652 10.7837 9.14645 10.8536C9.21637 10.9236 9.30546 10.9712 9.40245 10.9905C9.49944 11.0098 9.59998 10.9999 9.69134 10.962C9.7827 10.9242 9.86079 10.8601 9.91574 10.7779C9.97068 10.6957 10 10.599 10 10.5001C10 10.3675 9.94732 10.2403 9.85355 10.1465C9.75979 10.0528 9.63261 10.0001 9.5 10.0001ZM10.5 7.00009C10.4011 7.00009 10.3044 7.02942 10.2222 7.08436C10.14 7.1393 10.0759 7.21739 10.0381 7.30875C10.0002 7.40012 9.99031 7.50065 10.0096 7.59764C10.0289 7.69463 10.0765 7.78372 10.1464 7.85365C10.2164 7.92357 10.3055 7.97119 10.4025 7.99049C10.4994 8.00978 10.6 7.99988 10.6913 7.96203C10.7827 7.92419 10.8608 7.8601 10.9157 7.77788C10.9707 7.69566 11 7.59899 11 7.50009C11 7.36749 10.9473 7.24031 10.8536 7.14654C10.7598 7.05277 10.6326 7.00009 10.5 7.00009ZM11.5 9.00009C11.5989 9.00009 11.6956 8.97077 11.7778 8.91583C11.86 8.86089 11.9241 8.7828 11.9619 8.69144C11.9998 8.60007 12.0097 8.49954 11.9904 8.40255C11.9711 8.30556 11.9235 8.21647 11.8536 8.14654C11.7836 8.07661 11.6945 8.029 11.5975 8.0097C11.5006 7.99041 11.4 8.00031 11.3087 8.03816C11.2173 8.076 11.1392 8.14009 11.0843 8.22231C11.0293 8.30453 11 8.4012 11 8.50009C11 8.6327 11.0527 8.75988 11.1464 8.85365C11.2402 8.94742 11.3674 9.00009 11.5 9.00009ZM10.5 10.0001C10.5989 10.0001 10.6956 9.97077 10.7778 9.91583C10.86 9.86089 10.9241 9.7828 10.9619 9.69144C10.9998 9.60007 11.0097 9.49954 10.9904 9.40255C10.9711 9.30556 10.9235 9.21647 10.8536 9.14654C10.7836 9.07661 10.6945 9.02899 10.5975 9.0097C10.5006 8.99041 10.4 9.00031 10.3087 9.03815C10.2173 9.076 10.1392 9.14008 10.0843 9.22231C10.0293 9.30453 10 9.4012 10 9.50009C10 9.6327 10.0527 9.75988 10.1464 9.85365C10.2402 9.94742 10.3674 10.0001 10.5 10.0001ZM9.5 8.00009C9.40111 8.00009 9.30444 8.02942 9.22221 8.08436C9.13999 8.1393 9.0759 8.21739 9.03806 8.30875C9.00022 8.40012 8.99031 8.50065 9.00961 8.59764C9.0289 8.69463 9.07652 8.78372 9.14645 8.85365C9.21637 8.92357 9.30546 8.97119 9.40245 8.99049C9.49944 9.00978 9.59998 8.99988 9.69134 8.96203C9.7827 8.92419 9.86079 8.8601 9.91574 8.77788C9.97068 8.69566 10 8.59899 10 8.50009C10 8.36749 9.94732 8.24031 9.85355 8.14654C9.75979 8.05277 9.63261 8.00009 9.5 8.00009ZM13.5 7.00009C13.5989 7.00009 13.6956 6.97077 13.7778 6.91583C13.86 6.86089 13.9241 6.7828 13.9619 6.69144C13.9998 6.60007 14.0097 6.49954 13.9904 6.40255C13.9711 6.30556 13.9235 6.21647 13.8536 6.14654C13.7836 6.07662 13.6945 6.029 13.5975 6.0097C13.5006 5.99041 13.4 6.00031 13.3087 6.03816C13.2173 6.076 13.1392 6.14009 13.0843 6.22231C13.0293 6.30453 13 6.4012 13 6.50009C13 6.6327 13.0527 6.75988 13.1464 6.85365C13.2402 6.94742 13.3674 7.00009 13.5 7.00009ZM12 7.50009C12 7.59899 12.0293 7.69566 12.0843 7.77788C12.1392 7.8601 12.2173 7.92419 12.3087 7.96203C12.4 7.99988 12.5006 8.00978 12.5975 7.99049C12.6945 7.97119 12.7836 7.92357 12.8536 7.85365C12.9235 7.78372 12.9711 7.69463 12.9904 7.59764C13.0097 7.50065 12.9998 7.40012 12.9619 7.30875C12.9241 7.21739 12.86 7.1393 12.7778 7.08436C12.6956 7.02942 12.5989 7.00009 12.5 7.00009C12.3674 7.00009 12.2402 7.05277 12.1464 7.14654C12.0527 7.24031 12 7.36749 12 7.50009ZM11.5 6.00009C11.4011 6.00009 11.3044 6.02942 11.2222 6.08436C11.14 6.1393 11.0759 6.21739 11.0381 6.30875C11.0002 6.40012 10.9903 6.50065 11.0096 6.59764C11.0289 6.69463 11.0765 6.78372 11.1464 6.85365C11.2164 6.92357 11.3055 6.97119 11.4025 6.99049C11.4994 7.00978 11.6 6.99988 11.6913 6.96203C11.7827 6.92419 11.8608 6.8601 11.9157 6.77788C11.9707 6.69566 12 6.59899 12 6.50009C12 6.36749 11.9473 6.24031 11.8536 6.14654C11.7598 6.05277 11.6326 6.00009 11.5 6.00009ZM14.5 7.00009C14.4011 7.00009 14.3044 7.02942 14.2222 7.08436C14.14 7.1393 14.0759 7.21739 14.0381 7.30875C14.0002 7.40012 13.9903 7.50065 14.0096 7.59764C14.0289 7.69463 14.0765 7.78372 14.1464 7.85365C14.2164 7.92357 14.3055 7.97119 14.4025 7.99049C14.4994 8.00978 14.6 7.99988 14.6913 7.96203C14.7827 7.92419 14.8608 7.8601 14.9157 7.77788C14.9707 7.69566 15 7.59899 15 7.50009C15 7.36749 14.9473 7.24031 14.8536 7.14654C14.7598 7.05277 14.6326 7.00009 14.5 7.00009ZM15.5 6.00009C15.4011 6.00009 15.3044 6.02942 15.2222 6.08436C15.14 6.1393 15.0759 6.21739 15.0381 6.30875C15.0002 6.40012 14.9903 6.50065 15.0096 6.59764C15.0289 6.69463 15.0765 6.78372 15.1464 6.85365C15.2164 6.92357 15.3055 6.97119 15.4025 6.99049C15.4994 7.00978 15.6 6.99988 15.6913 6.96203C15.7827 6.92419 15.8608 6.8601 15.9157 6.77788C15.9707 6.69566 16 6.59899 16 6.50009C16 6.36749 15.9473 6.24031 15.8536 6.14654C15.7598 6.05277 15.6326 6.00009 15.5 6.00009ZM13.5 8.00009C13.4011 8.00009 13.3044 8.02942 13.2222 8.08436C13.14 8.1393 13.0759 8.21739 13.0381 8.30875C13.0002 8.40012 12.9903 8.50065 13.0096 8.59764C13.0289 8.69463 13.0765 8.78372 13.1464 8.85365C13.2164 8.92357 13.3055 8.97119 13.4025 8.99049C13.4994 9.00978 13.6 8.99988 13.6913 8.96203C13.7827 8.92419 13.8608 8.8601 13.9157 8.77788C13.9707 8.69566 14 8.59899 14 8.50009C14 8.36749 13.9473 8.24031 13.8536 8.14654C13.7598 8.05277 13.6326 8.00009 13.5 8.00009ZM12.5 9.00009C12.4011 9.00009 12.3044 9.02942 12.2222 9.08436C12.14 9.1393 12.0759 9.21739 12.0381 9.30875C12.0002 9.40012 11.9903 9.50065 12.0096 9.59764C12.0289 9.69463 12.0765 9.78372 12.1464 9.85365C12.2164 9.92357 12.3055 9.97119 12.4025 9.99049C12.4994 10.0098 12.6 9.99988 12.6913 9.96203C12.7827 9.92419 12.8608 9.8601 12.9157 9.77788C12.9707 9.69565 13 9.59898 13 9.50009C13 9.36749 12.9473 9.24031 12.8536 9.14654C12.7598 9.05277 12.6326 9.00009 12.5 9.00009ZM10.5 11.0001C10.4011 11.0001 10.3044 11.0294 10.2222 11.0844C10.14 11.1393 10.0759 11.2174 10.0381 11.3088C10.0002 11.4001 9.99031 11.5006 10.0096 11.5976C10.0289 11.6946 10.0765 11.7837 10.1464 11.8536C10.2164 11.9236 10.3055 11.9712 10.4025 11.9905C10.4994 12.0098 10.6 11.9999 10.6913 11.962C10.7827 11.9242 10.8608 11.8601 10.9157 11.7779C10.9707 11.6957 11 11.599 11 11.5001C11 11.3675 10.9473 11.2403 10.8536 11.1465C10.7598 11.0528 10.6326 11.0001 10.5 11.0001ZM9.5 12.0001C9.40111 12.0001 9.30444 12.0294 9.22221 12.0844C9.13999 12.1393 9.0759 12.2174 9.03806 12.3088C9.00022 12.4001 8.99031 12.5006 9.00961 12.5976C9.0289 12.6946 9.07652 12.7837 9.14645 12.8536C9.21637 12.9236 9.30546 12.9712 9.40245 12.9905C9.49944 13.0098 9.59998 12.9999 9.69134 12.962C9.7827 12.9242 9.86079 12.8601 9.91574 12.7779C9.97068 12.6957 10 12.599 10 12.5001C10 12.3675 9.94732 12.2403 9.85355 12.1465C9.75979 12.0528 9.63261 12.0001 9.5 12.0001ZM11.5 10.0001C11.4011 10.0001 11.3044 10.0294 11.2222 10.0844C11.14 10.1393 11.0759 10.2174 11.0381 10.3088C11.0002 10.4001 10.9903 10.5006 11.0096 10.5976C11.0289 10.6946 11.0765 10.7837 11.1464 10.8536C11.2164 10.9236 11.3055 10.9712 11.4025 10.9905C11.4994 11.0098 11.6 10.9999 11.6913 10.962C11.7827 10.9242 11.8608 10.8601 11.9157 10.7779C11.9707 10.6957 12 10.599 12 10.5001C12 10.3675 11.9473 10.2403 11.8536 10.1465C11.7598 10.0528 11.6326 10.0001 11.5 10.0001ZM12.1766 3.17666L11.8234 2.82322C11.777 2.77678 11.7219 2.73994 11.6612 2.7148C11.6005 2.68967 11.5355 2.67673 11.4698 2.67673C11.4042 2.67673 11.3391 2.68967 11.2785 2.7148C11.2178 2.73994 11.1627 2.77678 11.1163 2.82322L10.9391 3.00009C10.289 2.35933 9.41281 2.00011 8.5 2.00009C7.89875 2.00009 7.34125 2.16572 6.84688 2.43291L6.53438 2.12041C5.82518 1.40791 4.86278 1.00513 3.8575 1.00009C1.73406 0.98447 0 2.90353 0 5.02666V14.5001C0 14.6327 0.0526784 14.7599 0.146447 14.8536C0.240215 14.9474 0.367392 15.0001 0.5 15.0001H1.5C1.63261 15.0001 1.75979 14.9474 1.85355 14.8536C1.94732 14.7599 2 14.6327 2 14.5001V4.95009C2 4.00791 2.65625 3.13134 3.59375 3.01478C3.87151 2.97839 4.15391 3.00646 4.41908 3.09679C4.68424 3.18713 4.92504 3.33732 5.12281 3.53572L5.43531 3.84822C5.16562 4.34134 5 4.89884 5 5.50009C5.00015 6.41288 5.35935 7.28897 6 7.93916L5.82312 8.11634C5.72943 8.2101 5.67679 8.33723 5.67679 8.46978C5.67679 8.60233 5.72943 8.72946 5.82312 8.82322L6.17625 9.17666C6.22268 9.2231 6.27781 9.25994 6.33848 9.28507C6.39915 9.31021 6.46417 9.32314 6.52984 9.32314C6.59551 9.32314 6.66054 9.31021 6.72121 9.28507C6.78188 9.25994 6.83701 9.2231 6.88344 9.17666L12.1766 3.88384C12.223 3.83741 12.2598 3.78229 12.285 3.72162C12.3101 3.66095 12.323 3.59592 12.323 3.53025C12.323 3.46458 12.3101 3.39955 12.285 3.33888C12.2598 3.27821 12.223 3.22309 12.1766 3.17666Z" fill="#25213F"/>
</svg>
