<svg width="16" height="16" viewBox="0 0 16 16" fill="none" xmlns="http://www.w3.org/2000/svg">
<path fill-rule="evenodd" clip-rule="evenodd" d="M2 0C0.895431 0 0 0.895431 0 2V14C0 15.1046 0.895431 16 2 16H14C15.1046 16 16 15.1046 16 14V2C16 0.895431 15.1046 0 14 0H2ZM2.15869 11.0239V4.5H5.07563C6.40639 4.5 7.36526 5.06009 7.36526 6.18026C7.36526 6.94198 6.90823 7.46622 6.25853 7.62305V7.65441C7.09642 7.80676 7.58482 8.33996 7.58482 9.16889C7.58482 10.5982 6.27645 11.0239 5.07563 11.0239H2.15869ZM3.7807 5.91142V7.03608H4.94569C5.46545 7.03608 5.74325 6.87029 5.74325 6.47151C5.74325 6.11305 5.49681 5.91142 4.94569 5.91142H3.7807ZM3.7807 8.36684V9.61696H4.98153C5.5237 9.61696 5.93144 9.42429 5.93144 9.0031C5.93144 8.59088 5.60435 8.36684 4.98153 8.36684H3.7807ZM8.53024 11.0239V4.5H11.4472C12.7779 4.5 13.7368 5.06009 13.7368 6.18026C13.7368 6.94198 13.2798 7.46622 12.6301 7.62305V7.65441C13.468 7.80676 13.9564 8.33996 13.9564 9.16889C13.9564 10.5982 12.648 11.0239 11.4472 11.0239H8.53024ZM10.1523 5.91142V7.03608H11.3172C11.837 7.03608 12.1148 6.87029 12.1148 6.47151C12.1148 6.11305 11.8684 5.91142 11.3172 5.91142H10.1523ZM10.1523 8.36684V9.61696H11.3531C11.8952 9.61696 12.303 9.42429 12.303 9.0031C12.303 8.59088 11.9759 8.36684 11.3531 8.36684H10.1523Z" fill="#25213F"/>
</svg>
