<svg width="16" height="16" viewBox="0 0 16 16" fill="none" xmlns="http://www.w3.org/2000/svg">
<path d="M15.9916 8.8C15.1972 5.01389 12.1472 2.73889 8.88886 2.38611V1.88889C8.88886 1.39722 8.49164 1 7.99997 1C7.50831 1 7.11109 1.39722 7.11109 1.88889V2.38611C3.84164 2.73889 0.819419 5.01389 0.00830831 8.8C-0.0528028 9.08055 0.244419 9.39167 0.527753 9.11667C1.9722 7.58889 3.51942 7.66111 4.93331 10.1444C5.08053 10.4083 5.3472 10.3833 5.48053 10.1444C6.04164 9.16111 6.72775 8.11111 7.99997 8.11111C9.62497 8.11111 10.45 10.0222 10.5194 10.1444C10.6528 10.3833 10.9194 10.4083 11.0666 10.1444C12.4833 7.65833 14.0416 7.60556 15.4722 9.11667C15.7583 9.39444 16.0528 9.08055 15.9916 8.8ZM7.11109 9.38056V13C7.11109 13.2444 6.91109 13.4444 6.66664 13.4444C6.44997 13.4444 6.29997 13.2972 6.2472 13.1472C6.08331 12.6833 5.57775 12.4417 5.11386 12.6056C4.64997 12.7694 4.40831 13.2778 4.5722 13.7389C4.88331 14.625 5.72775 15.2194 6.66664 15.2194C7.89164 15.2194 8.88886 14.2222 8.88886 12.9972V9.37778C8.63609 9.15833 8.33886 9 7.99997 9C7.65831 9.00278 7.37775 9.13333 7.11109 9.38056Z" fill="#25213F"/>
</svg>
