<?xml version="1.0" encoding="iso-8859-1"?>
<!-- Generator: Adobe Illustrator 19.0.0, SVG Export Plug-In . SVG Version: 6.00 Build 0)  -->
<svg version="1.1" id="Layer_1" xmlns="http://www.w3.org/2000/svg" xmlns:xlink="http://www.w3.org/1999/xlink" x="0px" y="0px"
	 viewBox="0 0 504.32 504.32" style="enable-background:new 0 0 504.32 504.32;" xml:space="preserve">
<g transform="translate(9 1)">
	<path style="fill:#80D6FA;" d="M358.567,342.04L103.42,403.48h-0.853l-38.4,94.72l325.973-76.8l0.853-0.853l-31.573-79.36
		L358.567,342.04z M297.127,187.587l30.72,75.947h-0.853l-186.88,45.227h-0.853l37.547-93.867h0.853L297.127,187.587
		L297.127,187.587z"/>
	<g>
		<path style="fill:#C49AE9;" d="M257.02,86.893l40.96,100.693l0,0l-117.76,28.16h-0.853L231.42,86.893V86.04
			c4.267,1.707,8.533,2.56,12.8,2.56C247.633,88.6,252.753,87.747,257.02,86.893L257.02,86.893z M390.993,420.547l31.573,77.653
			h-358.4l325.973-76.8L390.993,420.547z M327.847,264.387l31.573,77.653l-0.853,0.853l-255.147,61.44h-0.853l37.547-93.867h0.853
			L327.847,264.387L327.847,264.387z"/>
		<path style="fill:#FFE079;" d="M243.367,3.267c23.893,0,42.667,18.773,42.667,42.667c0,18.773-11.947,34.987-29.013,40.96
			c-4.267,1.707-8.533,2.56-13.653,2.56c-5.12,0-9.387-0.853-12.8-2.56C213.5,81.773,200.7,65.56,200.7,45.933
			C200.7,22.04,219.473,3.267,243.367,3.267"/>
	</g>
</g>
<path style="fill:#51565F;" d="M73.167,503.467c-1.707,0-3.413-1.707-4.267-3.413V499.2c0-0.853,0-0.853,0-1.707L233.593,89.6
	c-16.213-6.827-28.16-23.893-28.16-42.667c0-25.6,21.333-46.933,46.933-46.933S299.3,21.333,299.3,46.933
	s-21.333,46.933-46.933,46.933c-3.413,0-6.827,0-10.24-0.853L194.34,211.627l74.24-17.92c2.56-0.853,4.267,0.853,5.12,3.413v0.853
	c0,1.707-1.707,3.413-3.413,4.267l-80.213,18.773L155.94,304.64l141.653-33.28c2.56-0.853,4.267,0.853,5.12,3.413v0.853
	c0,1.707-1.707,3.413-3.413,4.267L151.674,314.88l-34.133,84.48l214.187-50.347c2.56-0.853,4.267,0.853,5.12,3.413v0.853
	c0,1.707-1.707,3.413-3.413,4.267L113.274,409.6l-34.133,84.48l287.573-68.267c2.56-0.853,4.267,0.853,5.12,3.413v0.853
	c0,1.707-1.707,3.413-3.413,4.267l-260.267,61.44h315.733L271.141,117.76c-0.853-2.56,0-4.267,2.56-5.973
	c2.56-0.853,4.267,0,5.973,2.56l155.307,384c0.853,1.707,0,2.56,0,4.267c-0.853,0.853-1.707,1.707-3.413,1.707H73.167
	C73.167,503.467,73.167,503.467,73.167,503.467z M252.367,8.533c-21.333,0-38.4,17.067-38.4,38.4s17.067,38.4,38.4,38.4
	s38.4-17.067,38.4-38.4S273.7,8.533,252.367,8.533z M475.087,332.8c-0.853,0-2.56,0-3.413-0.853c0,0-5.12-5.12-7.68-11.947
	c-2.56-6.827-2.56-17.067,7.68-28.16c5.973-5.973,3.413-11.947-0.853-20.48c-4.267-8.533-10.24-19.627,0.853-30.72
	c13.653-13.653,1.707-26.453,0-28.16c-1.707-1.707-1.707-4.267,0-5.973c1.707-1.707,4.267-1.707,5.973,0
	c6.827,6.827,16.213,23.893,0,40.107c-5.973,5.973-3.413,11.947,0.853,20.48c4.267,8.533,10.24,19.627-0.853,30.72
	c-13.653,13.653-1.707,26.453,0,28.16c1.707,1.707,1.707,4.267,0,5.973C477.647,332.8,475.94,332.8,475.087,332.8z M81.7,197.12
	h-0.853c0,0-6.827-1.707-12.8-6.827c-5.12-5.12-11.093-13.653-7.68-28.16c2.56-8.533-2.56-11.947-11.093-17.92
	c-8.533-5.12-18.773-11.947-14.507-26.453c5.12-18.773-11.947-23.893-13.653-24.747c-2.56-0.853-3.413-2.56-3.413-5.12
	c0.853-2.56,2.56-3.413,5.12-3.413c0,0,6.827,1.707,12.8,6.827c5.12,5.12,11.093,13.653,7.68,28.16
	c-2.56,8.533,2.56,11.947,11.093,17.92c8.533,5.12,18.773,11.947,14.507,26.453c-5.12,18.773,11.947,23.893,13.653,24.747
	c2.56,0.853,3.413,2.56,3.413,5.12C85.113,196.267,83.407,197.12,81.7,197.12z M388.047,188.587c-1.707,0-3.413-0.853-4.267-3.413
	c0,0-1.707-6.827,0-14.507c1.707-6.827,5.973-16.213,20.48-20.48c8.533-2.56,9.387-7.68,9.387-17.92
	c0.853-10.24,1.707-22.187,16.213-26.453c18.773-5.12,14.507-23.893,13.653-24.747c-0.853-2.56,0.853-4.267,3.413-5.12
	c2.56-0.853,4.267,0.853,5.12,3.413c2.56,9.387,1.707,29.013-20.48,34.987c-8.533,2.56-9.387,7.68-9.387,17.92
	c-0.853,10.24-1.707,22.187-16.213,26.453c-7.68,2.56-12.8,6.827-14.507,13.653c-0.853,5.12,0,10.24,0,10.24
	c0.853,2.56-0.853,4.267-3.413,5.12C388.9,188.587,388.9,188.587,388.047,188.587z"/>
<g>
</g>
<g>
</g>
<g>
</g>
<g>
</g>
<g>
</g>
<g>
</g>
<g>
</g>
<g>
</g>
<g>
</g>
<g>
</g>
<g>
</g>
<g>
</g>
<g>
</g>
<g>
</g>
<g>
</g>
</svg>
