<svg width="162" height="211" viewBox="0 0 162 211" fill="none" xmlns="http://www.w3.org/2000/svg">
<path d="M99.2495 9.3281C99.2495 8.98731 99.2495 8.64653 99.2495 8.2853C99.3461 8.62616 99.3461 8.98724 99.2495 9.3281Z" fill="#8F9D86"/>
<path d="M90.9612 142.886C92.8571 121.434 102.581 115.682 102.581 115.682C93.8966 117.928 90.0673 138.033 89.2683 142.886H90.9612Z" fill="#122118"/>
<path d="M94.7534 142.886C94.0187 136.939 88.9706 90.6764 105.588 62.6446L104.782 61.4178C104.782 61.4178 86.499 79.3594 91.1815 142.886H94.7534Z" fill="#122118"/>
<path d="M75.2449 142.886H85.463C87.0034 141.523 90.1047 136.915 88.7776 122.555C87.0339 103.755 86.2349 86.7064 86.2349 86.7064L84.6605 86.5462C84.6605 86.5462 87.667 120.323 85.1345 130.846C82.602 141.369 83.076 134.033 83.2352 132.758C83.3401 131.92 83.7193 104.927 83.9631 86.5224C84.0918 76.9263 84.1866 69.6645 84.1866 69.6645H82.7612C82.7612 69.6645 82.5005 76.6026 82.1348 86.0589C81.3967 105.142 80.2287 134.448 79.9104 137.856C79.9747 137.174 78.739 135.658 78.4376 134.994C76.9649 131.715 77.0258 128.226 76.694 124.719C76.3487 121.084 75.9108 117.465 75.3804 113.862C74.1446 105.387 72.6718 96.6637 69.4926 88.6692C69.0999 87.6708 68.6767 86.686 68.1993 85.7284C68.1993 85.7284 66.1408 86.553 66.2965 87.5106C66.4523 88.4682 73.2541 108.216 74.5238 123.039C74.5238 123.039 66.6148 109.497 63.1309 105.197L62.342 107.746C64.8861 110.548 67.1814 113.57 69.2015 116.776C74.3342 124.849 73.9888 133.75 75.2449 142.886Z" fill="#122118"/>
<path d="M132.89 67.6028C134.488 67.6028 136.038 68.1378 137.511 68.7648C140.42 69.9984 143.297 71.7943 144.702 74.6397C145.071 75.386 145.468 76.3027 146.287 76.4151C146.808 74.1286 145.61 70.6629 145.017 68.373C144.291 65.4142 143.263 62.5387 141.95 59.7924C139.319 54.415 133.614 47.753 127.144 46.625C126.656 46.5376 126.163 46.4841 125.668 46.4649C125.753 46.4649 125.817 46.3592 125.868 46.1684C126.298 44.5156 125.506 36.4258 125.214 35.6045C124.199 32.6637 121.372 30.7349 119.035 28.9152C115.912 26.426 112.483 24.3507 108.834 22.7404C108.247 22.53 107.699 22.2225 107.213 21.8306C106.966 21.6295 106.778 21.365 106.668 21.0651C106.558 20.7651 106.531 20.4409 106.59 20.1267C107.098 18.1469 112.186 19.8882 113.378 20.3653C116.263 21.5239 118.599 23.6571 120.309 26.2402C123.478 31.0109 124.639 33.0556 125.387 32.4013C126 31.8731 125.726 29.457 125.726 28.7721C125.72 26.1821 125.53 23.5958 125.157 21.0332C124.097 13.509 121.907 7.22859 114.455 4.29456C107.876 1.70471 99.219 1.32305 94.6822 7.66478L94.4554 7.98851C94.2779 8.45568 94.0709 8.91096 93.8358 9.35159C93.8121 9.39589 93.785 9.43678 93.7613 9.47768C93.7915 9.42582 93.8165 9.37102 93.8358 9.31411C93.9264 8.97168 93.9206 8.61061 93.8188 8.27135C93.6799 7.73811 93.4811 7.22251 93.2263 6.73448C92.9153 6.11421 92.5529 5.52144 92.1429 4.96247C91.4035 4.00743 90.543 3.15393 89.5833 2.42374C88.1529 1.35075 86.5052 0.607956 84.7574 0.248109C83.0096 -0.111738 81.2045 -0.0798072 79.4703 0.341632C69.97 2.46463 65.2063 8.19979 63.1986 12.3436C61.1909 16.4873 59.2949 22.0112 59.0816 26.0493C58.98 27.9985 59.8637 32.0128 59.5285 34.6674C59.4818 35.3791 59.2313 36.062 58.8074 36.6336C58.523 36.3304 58.2318 36.0373 57.9406 35.7613C55.2558 33.1987 52.2188 31.7129 48.2372 32.0775C44.1744 32.4524 40.423 34.5686 37.2642 37.1891C41.9323 35.5822 46.9738 35.4326 51.7279 36.7597C52.4769 36.9108 53.1709 37.2642 53.7356 37.782C55.4014 39.5711 52.9874 40.7604 51.3927 40.2765C50.5327 40.0141 49.7777 39.5029 48.9753 39.1008C46.9168 38.0785 44.5739 37.7786 42.2886 37.5639C40.1996 37.3697 38.0395 37.2232 36.0487 37.9047C33.6991 38.6919 31.8403 40.5184 30.293 42.4744C28.7458 44.4305 27.4829 46.5841 25.7867 48.4106C29.8834 46.775 34.4202 45.5073 38.8216 45.221C41.5302 45.0438 45.505 43.599 48.1086 44.6315C49.6254 45.2347 51.5315 46.7784 49.087 47.4497C46.8186 48.0699 43.5684 46.9113 41.2458 46.7681C38.1309 46.5943 35.1515 47.2827 32.1349 47.8859C30.1881 48.2743 26.7178 48.8468 25.8747 50.9937C25.0483 52.9595 24.3693 54.9848 23.8433 57.0526C23.2948 59.3664 23.2102 61.043 25.6174 59.1415C29.643 55.9485 34.9416 54.9364 40.0438 54.4457C41.8552 54.2719 44.0288 54.3128 45.0479 55.8326C45.1399 55.9435 45.2035 56.0755 45.233 56.2169C45.2625 56.3583 45.2571 56.5048 45.2172 56.6437C45.0377 57.0594 44.4588 57.0594 44.0119 56.9844C41.625 56.613 39.0349 55.8633 36.6243 56.0814C34.0038 56.3165 31.5728 57.3661 29.257 58.5622C28.4783 58.9745 24.71 60.3376 24.71 61.5507C24.71 62.2664 21.8051 69.2726 23.3727 69.4362C23.4302 69.4396 23.4879 69.4396 23.5454 69.4362C23.0951 73.1574 23.9246 79.8501 24.6288 79.7922C26.6602 79.6286 28.1059 77.7475 29.599 76.4935C30.31 75.8972 35.3547 73.5015 34.471 75.7881C33.7769 77.6146 28.932 79.0799 27.3102 80.1329C26.8246 80.3855 26.4285 80.7831 26.176 81.2711C26.0387 81.7229 26.0282 82.204 26.1456 82.6614C26.423 84.3661 26.9039 86.0309 27.5777 87.6196C28.4614 89.5995 30.6248 90.5298 31.3799 92.6562C31.5695 93.1946 31.6947 93.8148 32.1484 94.1624C32.8255 94.6872 33.8413 94.2817 34.5184 93.7433C35.1955 93.2049 35.8727 92.5131 36.7191 92.4654C36.6074 92.7312 36.499 92.9936 36.4008 93.256C36.0821 94.0712 35.8097 94.9041 35.5849 95.7504C34.4101 100.16 34.8163 104.127 35.5307 109.085C36.0115 112.411 38.7573 113.801 40.8632 116.002C42.7321 117.962 44.7229 119.867 47.1098 121.179C49.0735 122.259 51.2911 122.76 53.0449 124.246C53.0449 124.246 54.3992 120.739 55.8144 119.785C57.2296 118.831 65.1556 111.818 65.23 104.978C65.2944 99.6182 65.0607 95.3279 63.9367 92.8777C63.6765 92.2624 63.2792 91.7155 62.7754 91.2795C62.8278 91.2721 62.8798 91.2619 62.9311 91.2488C63.4153 91.15 64.8712 90.7309 65.0675 89.2042C65.3045 87.3709 64.0518 75.5019 59.989 70.4823C59.4947 69.8689 56.3155 65.991 58.4349 65.473C60.9133 64.8698 62.5553 70.5846 63.1749 72.1896C64.9456 76.7423 66.222 81.0496 65.5077 86.001C65.3824 86.8699 65.3655 88.0252 66.1848 88.325C66.7333 88.5227 67.3156 88.1717 67.7761 87.8173C69.6687 86.3656 71.1347 84.5663 72.5161 82.6274C73.6164 81.0632 75.3939 78.9062 75.79 76.9433C75.6647 77.7782 75.5632 79.0493 76.0609 79.005C76.5586 78.9607 77.9162 76.7116 79.1588 74.2921C80.3302 72.0226 81.3933 69.5997 81.5288 68.7376C81.5288 69.1261 84.8129 71.6273 85.8929 72.6224C85.996 72.7138 86.0933 72.8117 86.1841 72.9154C86.8552 73.8068 87.4052 74.7844 87.8194 75.8222C88.4525 77.2228 88.3442 77.7066 89.7594 76.3776C90.8868 75.3178 92.4409 73.7571 92.5966 73.6004C92.7761 74.8408 92.9826 76.1596 93.2433 77.4886C93.355 78.0781 93.4837 78.6744 93.6259 79.2674C94.2793 82.0549 95.2239 84.8049 96.7102 86.996C99.6219 91.2795 104.409 94.1045 108.977 96.265C114.526 98.8855 119.218 99.182 125.272 99.5704C127.435 99.7102 129.7 99.976 131.705 100.824C133.205 101.458 133.946 102.481 134.793 103.799C135.808 105.353 136.096 106.014 137.271 104.375C139.177 101.721 139.979 98.405 142.106 95.8561C147.523 89.3814 148.538 75.5291 139.001 72.1794C135.866 71.0787 132.368 72.3225 129.115 71.675C128.87 71.6413 128.638 71.5477 128.438 71.4024C127.876 70.9424 128.136 70.0052 128.597 69.4362C129.626 68.1753 131.292 67.5926 132.89 67.6028ZM33.4621 65.4492C32.0773 65.6468 30.3066 65.7013 28.5968 65.9194C29.2192 65.2632 29.925 64.6926 30.6959 64.2224C33.6436 62.6869 37.0395 62.2626 40.2707 63.0263C40.3656 63.0356 40.4575 63.065 40.5404 63.1126C40.6232 63.1602 40.6952 63.2248 40.7515 63.3023C41.1442 63.9838 39.1907 64.4916 38.8115 64.5802C37.0611 64.9925 35.2429 65.1902 33.4621 65.4492ZM43.9002 109.068C43.0402 109.821 40.3824 112.435 39.255 110.932C38.3612 109.749 41.1747 107.108 41.8958 106.256C42.793 105.193 45.3797 103.547 45.5896 105.033C45.8334 106.699 45.1393 107.981 43.9002 109.068ZM49.6558 87.94C49.4459 88.4034 49.2191 88.8566 48.9787 89.286C48.3055 89.0359 47.5938 88.9067 46.8762 88.9043C46.7408 85.6057 46.5376 81.0666 46.4868 80.184C46.3819 78.8039 47.12 76.1493 48.1797 78.061C49.2394 79.9728 50.6986 85.6057 49.6558 87.94ZM52.703 93.3582C52.703 93.3582 55.2355 93.2526 55.4488 91.1262C55.7602 87.9263 55.1339 84.4096 54.7073 81.2438C54.4866 79.3416 54.1348 77.4572 53.6543 75.6041C53.1668 73.8764 51.3893 72.0942 52.5066 70.3119C52.6348 70.0837 52.8283 69.8997 53.0618 69.7837C53.651 69.5282 54.3044 69.9984 54.6734 70.5266C55.2287 71.3342 55.4623 72.3191 55.6688 73.2835C56.3798 76.5639 56.9441 79.8739 57.3617 83.2135C57.6596 85.667 58.3977 89.8824 56.2986 91.76C53.441 94.3158 52.703 93.3616 52.703 93.3616V93.3582ZM60.9674 111.327C60.5578 110.819 58.7667 110.352 58.2115 110.08C56.9791 109.477 55.9397 108.717 55.2016 107.534C54.4635 106.352 55.9532 106.451 56.6236 106.716C58.4891 107.463 60.6797 110.87 60.9674 111.33V111.327ZM68.9204 16.9337C70.0276 15.1038 74.2224 11.996 77.1511 12.8717C80.0797 13.7475 71.4529 18.4501 69.5536 18.7637C69.5536 18.7637 67.8099 18.7637 68.9204 16.9371V16.9337ZM62.5858 41.3124C62.0339 43.8614 62.5858 39.6392 62.5858 39.6392C62.7077 38.7123 63.4999 37.5946 63.9401 36.7938C64.8718 35.0723 65.9659 33.445 67.2073 31.9344C70.3252 28.1889 74.1876 25.1418 78.546 22.9892C79.2773 22.6212 86.587 19.0158 85.7 21.7965C85.2124 23.3198 82.7747 24.1376 81.5457 24.8634C77.9587 26.9677 74.6205 29.4748 71.5951 32.3365C71.3785 32.541 71.1652 32.7455 70.9586 32.9499C69.6007 34.303 68.1565 35.5654 66.6351 36.7291C65.0811 37.8809 63.0259 39.2848 62.5858 41.3158V41.3124ZM68.2365 59.4516C68.1654 59.1108 68.2568 58.903 68.4532 58.8075C69.1879 58.4668 71.3886 59.6663 71.7949 59.9968C73.5047 61.4076 74.6626 63.4045 75.4277 65.4832C75.6764 66.1514 75.8844 66.8342 76.0507 67.5278C76.1523 67.9334 76.2403 68.3389 76.3148 68.7478C76.4198 69.3441 76.2877 71.0787 76.7346 71.5114C73.2406 68.1174 69.259 64.4575 68.2365 59.455V59.4516ZM80.8686 41.326C83.0456 40.1129 85.3681 38.8759 85.7812 39.002C86.5701 39.2405 85.5408 40.1163 83.5602 41.7895C83.1302 42.1575 82.6765 42.529 82.2364 42.8868C80.6586 44.1749 79.2096 45.296 79.2096 45.296L76.8396 43.541C76.9852 43.5445 78.8642 42.4506 80.8686 41.3294V41.326ZM98.8432 56.8447C98.8432 56.8447 96.717 50.9528 97.34 49.433C97.9629 47.9131 98.8432 49.6715 99.71 51.7434C100.317 53.2746 100.819 54.8458 101.213 56.446C101.213 56.446 99.2393 56.2927 98.8432 56.8481V56.8447ZM109.461 75.0112C109.29 75.589 109.09 76.1577 108.861 76.715C107.971 78.7602 106.772 80.6545 105.307 82.3309C104.166 83.694 102.713 85.6807 100.905 86.1782C98.2947 86.8972 100.035 82.5149 102.33 76.9399C103.352 74.3169 104.922 71.9459 106.935 69.9882C107.869 69.1158 109.41 69.0477 109.816 70.4448C110.199 71.7704 109.921 73.4981 109.461 75.0146V75.0112ZM107.091 37.5673C100.363 35.182 104.954 32.6296 107.091 34.3028C109.227 35.976 115.244 40.3548 116.432 46.8874L115.325 47.6064C115.325 47.6064 113.801 39.9596 107.074 37.5708L107.091 37.5673ZM120.823 85.9567C120.701 86.5087 120.454 87.6946 120.072 88.9793C119.635 90.4378 119.032 92.6221 117.647 93.4843C116.632 94.1283 115.768 93.6274 115.711 92.5472C115.675 91.1139 115.744 89.6799 115.917 88.2569C116.11 86.11 116.225 83.4418 117.691 81.7141C118.369 80.9099 121.162 78.1019 121.494 80.3272C121.734 82.0549 121.172 84.2733 120.806 85.9567H120.823ZM136.533 82.181C137.481 81.2268 139.065 82.8216 139.539 83.544C140.291 84.6754 141.185 85.7113 141.794 86.9313C142.068 87.4867 143.04 90.874 141.408 90.339C141.066 90.1757 140.777 89.9196 140.572 89.5995C139.82 88.7495 138.97 87.9933 138.039 87.347C136.99 86.5599 136.455 86.2463 136.238 84.9446C136.082 84.1234 135.859 82.8284 136.516 82.181H136.533Z" fill="#233F30"/>
<g opacity="0.6">
<path opacity="0.6" d="M86.0385 72.4217L85.903 72.6125C84.823 71.6175 81.5389 69.1161 81.5389 68.7276C81.4102 69.5898 80.3471 72.0128 79.1689 74.2824C78.7118 72.2547 77.6149 69.9238 76.0439 67.5246C75.8776 66.831 75.6696 66.1482 75.4209 65.4799C74.9845 64.2612 74.3915 63.1052 73.657 62.0415C74.5734 62.7707 75.5496 63.4807 76.5856 64.1713C80.8584 67.0203 83.8953 69.8079 86.0385 72.4217Z" fill="#122118"/>
</g>
<path d="M73.6572 62.0416C72.5646 61.1753 71.5192 60.2504 70.5254 59.271C70.9703 59.4709 71.3954 59.7128 71.795 59.9935C72.5073 60.5857 73.1341 61.275 73.6572 62.0416Z" fill="#1C3527"/>
<path d="M121.243 38.5286C119.706 36.3307 117.647 34.5893 115.464 33.0763C113.258 31.5998 110.932 30.315 108.509 29.2358C106.105 28.1294 103.629 27.189 101.098 26.4211C99.7889 26.0616 98.5255 25.5504 97.3333 24.8978C96.7362 24.5744 96.1564 24.2195 95.5964 23.8346C95.2308 23.5893 94.8787 23.3337 94.5299 23.0577V23.378C94.4532 26.6948 94.3505 30.0094 94.2218 33.3217C95.6438 34.4973 97.0794 35.6627 98.5318 36.8009C99.9843 37.9391 101.515 39.1147 103.069 40.1745C103.265 40.3006 103.458 40.4335 103.654 40.5562L104.257 40.9208C104.671 41.1677 105.067 41.4445 105.442 41.7489C106.181 42.3512 106.869 43.0134 107.501 43.7288C108.133 44.4391 108.724 45.1855 109.271 45.9642C109.83 46.732 110.311 47.5539 110.707 48.4178C110.279 47.5728 109.767 46.7736 109.18 46.0324C108.608 45.2822 107.993 44.5665 107.338 43.8889C106.687 43.2109 105.984 42.5854 105.236 42.0181C104.865 41.7401 104.475 41.4907 104.067 41.2718L103.441 40.931C103.235 40.8118 103.031 40.6891 102.825 40.563C101.213 39.5407 99.666 38.4605 98.1323 37.353C96.6697 36.2966 95.5761 35.4889 94.1744 34.4257C94.0796 36.7021 93.9747 38.975 93.8359 41.2411C93.4973 47.191 93.0368 53.1374 92.3225 59.0498C91.967 62.0077 91.5404 64.9587 90.9682 67.8825C90.4473 70.8179 89.6863 73.705 88.693 76.5143C89.6498 73.6963 90.3734 70.8035 90.8565 67.8655C91.3846 64.9383 91.7706 61.9838 92.0889 59.0259C92.7287 53.1068 93.1046 47.1637 93.3754 41.2207C93.3991 40.6823 93.4194 40.1405 93.4364 39.602C90.7639 42.8825 88.1129 46.1766 85.4834 49.4844C84.0885 51.2382 82.7071 53.0034 81.3393 54.7799C80.6621 55.6694 79.985 56.5656 79.3079 57.4652C78.9693 57.9184 78.6307 58.3683 78.326 58.8283C78.1669 59.0566 77.9874 59.2815 77.8486 59.5098L77.4186 60.2595L77.8452 59.5337C77.9874 59.2917 78.1499 59.06 78.2989 58.8249C78.6002 58.3512 78.9185 57.8878 79.2367 57.4277C79.8699 56.5008 80.5165 55.5807 81.1666 54.6709C82.4701 52.8444 83.7973 51.0349 85.1312 49.2186C87.7822 45.6371 90.7887 41.9534 93.4939 38.4093C93.6835 33.3978 93.7964 28.3839 93.8325 23.3678C93.8325 23.0508 93.8325 22.7339 93.8325 22.417C91.6792 24.0527 89.5157 25.668 87.315 27.2389C86.7056 27.6751 86.0917 28.1033 85.4732 28.5236C84.8502 28.9428 84.2239 29.3619 83.5671 29.7333C82.2534 30.466 80.933 31.1475 79.6295 31.8666C77.011 33.2768 74.4898 34.8627 72.0828 36.6135C70.8859 37.4951 69.7544 38.4632 68.6971 39.51C67.6296 40.5541 66.7173 41.7478 65.9885 43.054C66.6848 41.7245 67.5699 40.5043 68.6158 39.4317C69.6553 38.3524 70.771 37.3502 71.9541 36.4329C74.323 34.613 76.8116 32.9565 79.4027 31.4747C80.6926 30.7148 82.0029 29.9991 83.2759 29.246C83.9056 28.8678 84.5083 28.4452 85.1143 28.0125C85.7204 27.5797 86.3162 27.1401 86.9121 26.6903C89.2449 24.9319 91.5505 23.119 93.8291 21.2857C93.8562 17.3055 93.8415 13.3298 93.7851 9.3587C94.0202 8.91807 94.2272 8.46279 94.4047 7.99562L94.6315 7.67189C94.6315 8.90889 94.6315 10.1493 94.6315 11.3863L94.6721 11.4272C94.706 11.4613 94.7568 11.4953 94.7974 11.5328C94.894 11.6061 94.9959 11.6722 95.1021 11.7305C95.3249 11.8566 95.5583 11.9626 95.7996 12.0474C96.3182 12.2198 96.8523 12.3408 97.3942 12.4086C98.4836 12.5462 99.5844 12.5679 100.678 12.4733C101.227 12.4495 101.775 12.3677 102.334 12.3132C102.893 12.2587 103.461 12.1973 104.027 12.1632C105.155 12.1037 106.285 12.1037 107.413 12.1632C109.666 12.2817 111.902 12.6241 114.089 13.1855C115.181 13.4737 116.246 13.858 117.272 14.3339C117.779 14.5698 118.265 14.8503 118.724 15.1722C119.196 15.4891 119.598 15.8996 119.906 16.3786C119.595 15.9151 119.193 15.5208 118.724 15.2199C118.255 14.9138 117.76 14.6493 117.245 14.4294C116.212 13.9976 115.145 13.6556 114.055 13.407C111.868 12.9248 109.638 12.6645 107.399 12.6301C106.286 12.6072 105.173 12.6425 104.064 12.7357C103.512 12.7834 102.964 12.8516 102.415 12.9368C101.867 13.022 101.298 13.1106 100.722 13.1549C99.5827 13.2907 98.432 13.3056 97.2893 13.1992C96.7028 13.1432 96.1233 13.029 95.5592 12.8584C95.2693 12.7686 94.9873 12.6546 94.7161 12.5176L94.6586 12.4802C94.6451 15.6493 94.6078 18.8162 94.5469 21.9808V21.9604C95.5279 22.822 96.5957 23.5781 97.7328 24.2163C98.8595 24.8761 100.06 25.3999 101.308 25.777C103.845 26.6282 106.321 27.6529 108.719 28.8439C111.127 30.001 113.433 31.361 115.613 32.9093C117.749 34.47 119.77 36.2864 121.243 38.5286Z" fill="#8F9D86"/>
<g opacity="0.8">
<path opacity="0.8" d="M51.3183 46.3388L50.8443 46.8329L49.6864 48.07L48.5488 49.2763C48.4201 49.0037 48.2983 48.7311 48.1865 48.4585L49.0702 47.4838L50.2146 46.2502L50.7834 45.6334L50.9696 45.4255C51.0813 45.7186 51.1964 46.0253 51.3183 46.3388Z" fill="#122118"/>
</g>
<path d="M61.9561 46.3388L61.4821 46.8329L60.3242 48.0699L59.1866 49.2762L58.0185 50.5132C56.4882 52.1489 54.977 53.8016 53.4851 55.4714C50.4989 58.8144 47.5906 62.2221 44.8109 65.7388C41.9992 69.2326 39.3989 72.8934 37.0238 76.7014C35.8399 78.6038 34.7943 80.59 33.8954 82.6444C33.4513 83.6755 33.0835 84.7382 32.7951 85.8238C32.4997 86.9088 32.3662 88.032 32.399 89.1565C32.3457 88.0303 32.4598 86.9024 32.7375 85.8102C33.0082 84.7162 33.3602 83.6443 33.7905 82.6035C34.6596 80.5246 35.678 78.5121 36.8376 76.5821C39.1567 72.7233 41.7004 69.0058 44.4554 65.4492C47.1843 61.8813 50.0452 58.4157 52.9772 55.0148C54.4466 53.3132 55.9352 51.6298 57.443 49.9646L58.8209 48.4481L59.708 47.4735L60.8524 46.24L61.4211 45.6232L61.6074 45.4153C61.7191 45.7186 61.8444 46.0253 61.9561 46.3388Z" fill="#8F9D86"/>
<path d="M52.4117 123.326C51.1908 120.994 50.1714 118.561 49.3646 116.054C48.962 114.798 48.623 113.523 48.3489 112.233C48.0802 110.939 47.8791 109.631 47.7462 108.315C47.6293 106.995 47.5886 105.669 47.6243 104.345C47.6599 103.017 47.7855 101.692 48.0002 100.382C48.2136 99.0648 48.5295 97.767 48.9448 96.5001C49.0531 96.1594 49.1716 95.8186 49.2833 95.4949C49.3951 95.1711 49.5136 94.9121 49.6219 94.6225C49.7302 94.3328 49.8555 94.1011 49.9808 93.8455C50.3194 93.8251 50.6579 93.8012 50.9965 93.7706C50.7764 94.1556 50.5699 94.5646 50.3837 94.9701C50.3058 95.1336 50.2313 95.3108 50.1602 95.4642C49.974 95.8867 49.8217 96.3229 49.6524 96.7591C49.215 97.9793 48.8753 99.2328 48.6367 100.508C48.3888 101.786 48.227 103.079 48.1525 104.379C48.0854 105.681 48.0944 106.986 48.1796 108.287C48.2719 109.591 48.4335 110.889 48.6637 112.176C48.9177 113.457 49.1919 114.742 49.5677 115.996C50.3091 118.515 51.2605 120.967 52.4117 123.326Z" fill="#8F9D86"/>
<path d="M132.988 74.8646C131.65 74.805 130.309 74.87 128.983 75.0589C128.306 75.1475 127.659 75.2667 127.005 75.3996C126.667 75.4678 126.352 75.5427 126.027 75.6245L125.543 75.7438L124.866 75.8597C124.277 75.2645 123.678 74.6795 123.071 74.1047C122.628 73.6787 122.161 73.2596 121.741 72.8336C121.321 72.4077 120.911 71.9408 120.522 71.4705C118.985 69.5526 117.559 67.5466 116.253 65.4628C115.332 64.0145 114.441 62.5526 113.568 61.0737C117.773 59.2739 122.238 58.1637 126.792 57.7852C127.981 57.687 129.175 57.6551 130.367 57.6898C130.967 57.6898 131.563 57.7443 132.155 57.7784C132.748 57.8125 133.347 57.8875 133.936 57.9829C136.312 58.3136 138.633 58.9611 140.839 59.9082C138.654 58.8896 136.344 58.1677 133.97 57.7614C133.377 57.6455 132.781 57.5808 132.182 57.499C131.583 57.4172 130.987 57.3763 130.381 57.349C129.177 57.2803 127.97 57.2746 126.765 57.332C124.351 57.4499 121.952 57.7771 119.594 58.31C117.385 58.8 115.218 59.4666 113.114 60.3035C112.624 59.4652 112.142 58.6212 111.668 57.7716C110.928 56.4653 110.202 55.1488 109.491 53.8221C109.214 53.9548 108.914 54.0312 108.608 54.047C109.206 55.1306 109.814 56.2097 110.433 57.2843C110.71 57.7682 110.988 58.2487 111.272 58.7292C111.228 58.7564 111.188 58.7905 111.15 58.8178C110.951 58.9779 110.754 59.1347 110.561 59.2948C110.172 59.6152 109.796 59.9423 109.417 60.2763C108.665 60.9339 107.927 61.6155 107.209 62.3209C105.769 63.7121 104.405 65.1807 103.123 66.7202C102.483 67.4938 101.867 68.2878 101.298 69.1056C100.718 69.9235 100.188 70.7758 99.71 71.658C99.2255 72.5375 98.8232 73.4604 98.5081 74.4148C98.1871 75.3651 98.0236 76.3621 98.0239 77.3659C98.0607 76.3674 98.2609 75.3818 98.6164 74.4489C98.9626 73.5182 99.3933 72.6215 99.903 71.7704C100.408 70.915 100.965 70.0912 101.569 69.3032C102.165 68.5127 102.796 67.7482 103.461 67.0099C104.787 65.5353 106.191 64.1339 107.666 62.8116C108.401 62.1505 109.156 61.5064 109.921 60.8794C110.304 60.5727 110.693 60.2626 111.083 59.9627C111.276 59.8128 111.475 59.6663 111.672 59.5231L111.716 59.4925C112.986 61.6393 114.303 63.7589 115.667 65.8512L115.731 65.9467C115.074 68.4581 114.282 71.3138 113.564 73.7844C113.188 75.0589 112.806 76.3333 112.393 77.5874C112.18 78.2144 111.966 78.8448 111.716 79.4514L111.336 80.3749C111.215 80.6918 111.106 81.0087 110.998 81.3256C110.161 83.874 109.667 86.5238 109.529 89.2042C109.451 90.5396 109.515 91.8795 109.718 93.2014C109.907 94.5254 110.31 95.8091 110.913 97.001C110.348 95.7967 109.98 94.5076 109.826 93.1844C109.665 91.8673 109.64 90.5368 109.752 89.2144C109.956 86.5683 110.513 83.9619 111.408 81.4653C111.523 81.1586 111.638 80.8485 111.766 80.5521L112.173 79.6388C112.444 79.022 112.677 78.3916 112.907 77.7646C113.361 76.5071 113.781 75.2429 114.191 73.9718C114.949 71.6205 115.66 69.2624 116.354 66.894C117.497 68.6151 118.73 70.2736 120.048 71.8624C120.452 72.3372 120.875 72.7916 121.318 73.2255C121.771 73.6719 122.232 74.0706 122.672 74.4932C123.583 75.3246 124.48 76.1629 125.326 77.0489C126.128 77.8825 126.885 78.7583 127.595 79.6729C126.433 82.5694 125.33 85.483 124.304 88.4273C123.789 89.8994 123.288 91.3783 122.861 92.8743C122.645 93.624 122.438 94.3771 122.269 95.137C122.075 95.894 121.976 96.6725 121.974 97.4543C122.013 96.6781 122.149 95.91 122.377 95.1677C122.584 94.418 122.824 93.6785 123.078 92.9459C123.583 91.4772 124.141 90.0255 124.72 88.5874C125.824 85.8613 126.995 83.1624 128.214 80.4907C128.773 81.2677 129.301 82.0651 129.782 82.8761C131.028 85.0255 132.064 87.2921 132.873 89.6438C134.508 94.3055 135.456 99.1854 136.076 104.106C135.534 99.1888 134.671 94.2783 133.103 89.562C132.326 87.1983 131.324 84.9159 130.11 82.7466C129.593 81.8333 129.028 80.9483 128.417 80.0954C128.418 80.0886 128.418 80.0818 128.417 80.075L128.38 80.0579C127.549 78.8975 126.644 77.7922 125.672 76.7491L125.584 76.6639L125.753 76.6094L126.223 76.4628C126.538 76.3674 126.85 76.2788 127.165 76.1902C127.794 76.0198 128.43 75.871 129.071 75.7438C130.359 75.4858 131.668 75.3478 132.981 75.3315C134.29 75.3125 135.596 75.4602 136.868 75.7711C138.148 76.086 139.369 76.6098 140.481 77.3216C139.401 76.5407 138.201 75.9432 136.929 75.553C135.65 75.1567 134.325 74.9254 132.988 74.8646Z" fill="#8F9D86"/>
<g opacity="0.6">
<path opacity="0.6" d="M70.5252 59.2788C69.7566 58.938 68.8696 58.6176 68.4532 58.8119C67.2097 57.6985 65.9077 56.653 64.5528 55.6801C55.4792 49.2052 57.3785 36.9881 57.3785 36.6678C57.3785 36.6678 57.172 36.4327 57.9473 35.7613C58.2385 36.0374 58.5297 36.3304 58.8141 36.6337C59.238 36.0621 59.4885 35.3792 59.5352 34.6674H59.5555C59.9473 43.9821 63.8735 52.7908 70.5252 59.2788Z" fill="#122118"/>
</g>
<g opacity="0.5">
<path opacity="0.5" d="M98.8431 56.8481C98.8431 56.8481 96.7169 50.9528 97.3399 49.4329C97.9629 47.9131 98.8431 49.6715 99.7099 51.7434C100.317 53.2746 100.819 54.8458 101.213 56.446C101.213 56.446 99.2393 56.2926 98.8431 56.8481ZM125.868 46.1684C122.482 45.4868 116.049 45.3233 111.499 51.9171C105.066 61.2645 99.6828 37.046 97.4652 36.4087C95.2475 35.7715 97.5701 53.5085 95.5658 57.7579C94.2318 60.5863 93.0401 68.24 92.6067 73.5901C92.7861 74.8305 92.9927 76.1493 93.2534 77.4783C93.2026 77.2159 93.6664 76.4901 93.7748 76.214C94.0486 75.3993 94.2204 74.5533 94.286 73.6958C94.4858 72.1861 94.5636 70.6868 94.8446 69.1874C95.1282 67.6962 95.5278 66.2298 96.0398 64.8017C96.8354 62.5867 98.0103 60.3512 99.9062 58.8995C100.394 58.5238 100.928 58.2123 101.494 57.9726C108.563 54.9977 112.89 58.5042 112.89 58.5042C112.89 58.5042 110.568 53.8289 112.89 51.6888C114.945 49.8112 119.476 46.1036 125.685 46.4512C126.179 46.4787 126.672 46.5321 127.161 46.6114C127.5 46.6625 127.838 46.7238 128.177 46.8022C127.427 46.5228 126.654 46.3107 125.868 46.1684Z" fill="#122118"/>
</g>
<g opacity="0.6">
<path opacity="0.6" d="M63.9402 92.8642C62.2474 93.7127 57.3821 95.3484 54.3147 95.3348C50.6751 95.3144 46.0841 96.1493 41.8892 94.3977C39.0621 93.2186 37.0036 93.8729 35.7949 94.9497C36.0513 94.1129 36.3519 93.2904 36.6955 92.4859C38.2089 92.0122 40.2099 92.7312 44.2456 93.5082C52.4153 95.1133 62.8602 91.2114 62.8602 91.2114L62.9313 91.2352C62.8799 91.2483 62.828 91.2585 62.7755 91.2659C63.2806 91.7015 63.6791 92.2484 63.9402 92.8642Z" fill="#122118"/>
</g>
<path d="M85.7946 85.3774C85.6337 85.7341 85.3693 86.0334 85.0362 86.2361C83.4958 87.1426 81.5287 85.4626 79.9882 85.4217C79.1122 85.4341 78.267 85.7494 77.5945 86.3145C75.9321 87.6128 74.5812 89.6302 74.2596 91.7362C73.5824 96.2786 78.4511 100.811 81.5558 103.486C83.4633 105.125 85.5313 106.565 87.7279 107.783C89.9218 109 92.8606 110.71 95.3863 110.983C95.3863 110.983 99.8182 111.46 100.465 110.983C100.891 110.659 100.847 109.221 100.895 108.768C101.068 107.064 101.112 105.384 101.162 103.69C101.306 100.35 101.124 97.0037 100.621 93.699C100.126 90.7445 97.9798 88.5874 95.972 86.5122C94.2284 84.7129 90.4432 80.8724 87.6161 82.215C86.3059 82.8284 86.3059 84.3244 85.7946 85.3774Z" fill="#1C3527"/>
<path d="M99.0564 118.828C99.0564 118.828 90.3484 117.076 93.04 109.75C94.6482 105.367 99.3239 103.428 103.624 102.934C109.379 102.29 114.008 104.352 118.49 107.872C120.603 109.531 122.726 111.28 125.18 112.408C126.988 113.243 130.195 112.827 128.434 115.202C126.487 117.84 122.035 120.791 119.211 122.515C114.922 125.136 110.781 125.552 105.97 124.706C102.781 124.154 98.6061 122.904 99.0564 118.828Z" fill="#233F30"/>
<path d="M118.087 115.573C119.053 115.907 120.056 116.115 121.074 116.193C118.911 116.214 116.791 115.591 114.979 114.401C114.099 113.822 113.307 113.116 112.45 112.503C111.564 111.921 110.616 111.441 109.623 111.071C108.112 111.475 106.661 112.076 105.306 112.861C105.583 112.902 105.849 112.994 106.092 113.133C106.598 113.437 107.042 113.833 107.402 114.302C107.487 114.418 107.575 114.527 107.656 114.643L107.89 114.984L108.34 115.645C108.496 115.856 108.679 116.061 108.831 116.262C108.983 116.463 109.17 116.66 109.369 116.848C110.891 118.354 112.644 119.605 114.56 120.552C111.949 119.441 109.451 117.914 107.653 115.71C107.313 115.254 106.945 114.821 106.549 114.415C105.747 113.661 104.856 113.593 103.813 113.811C102.764 114.562 101.789 115.412 100.902 116.35C100.455 116.824 100.025 117.321 99.6218 117.833C99.4187 118.092 99.2189 118.351 99.026 118.616L98.9075 118.78C98.7179 118.732 98.403 118.647 98.0103 118.514L98.0272 118.49L98.3319 118.088C98.5384 117.822 98.7517 117.557 98.9684 117.294C99.4052 116.776 99.8656 116.272 100.343 115.795C101.304 114.835 102.355 113.971 103.482 113.215C105.732 111.701 108.287 110.706 110.964 110.301C113.624 109.925 116.33 110.06 118.941 110.697C121.528 111.329 124.029 112.275 126.389 113.515C124.003 112.345 121.483 111.473 118.886 110.918C116.305 110.363 113.642 110.305 111.038 110.748C111.307 110.863 111.564 111.003 111.807 111.167C112.24 111.474 112.653 111.791 113.063 112.128C113.473 112.465 113.862 112.809 114.245 113.15C114.606 113.512 114.987 113.853 115.386 114.173C116.212 114.772 117.122 115.245 118.087 115.573Z" fill="#8F9D86"/>
<path d="M108.746 139.263V146.457C108.746 146.623 108.681 146.782 108.565 146.899C108.449 147.017 108.291 147.083 108.127 147.084H106.586C106.439 147.084 106.296 147.136 106.184 147.233C106.071 147.329 105.997 147.462 105.973 147.609L99.9367 185.499C99.7797 186.52 99.3309 187.474 98.6449 188.243C97.959 189.012 97.0656 189.563 96.0736 189.83C92.5864 190.764 86.8713 192.032 81.4407 192.032C78.9698 192.011 76.5043 191.797 74.0666 191.391C71.6221 190.995 69.1993 190.474 66.8077 189.83C65.8176 189.565 64.9253 189.016 64.239 188.25C63.5527 187.484 63.1019 186.535 62.9412 185.516L56.9079 147.609C56.8845 147.462 56.81 147.329 56.6976 147.233C56.5853 147.136 56.4426 147.084 56.2951 147.084H54.7546C54.6729 147.084 54.5921 147.068 54.5167 147.036C54.4413 147.005 54.3729 146.958 54.3153 146.9C54.2577 146.842 54.2121 146.773 54.1812 146.697C54.1503 146.621 54.1346 146.539 54.135 146.457V139.263C54.1346 139.181 54.1503 139.1 54.1813 139.024C54.2122 138.948 54.2579 138.879 54.3155 138.821C54.3731 138.763 54.4416 138.717 54.517 138.686C54.5923 138.655 54.6731 138.639 54.7546 138.64H108.127C108.208 138.639 108.289 138.655 108.364 138.686C108.44 138.717 108.508 138.763 108.566 138.821C108.623 138.879 108.669 138.948 108.7 139.024C108.731 139.1 108.747 139.181 108.746 139.263Z" fill="#E26F3F"/>
<path d="M106.586 147.084C106.439 147.084 106.296 147.136 106.184 147.233C106.071 147.329 105.997 147.462 105.973 147.609L99.9367 185.499C99.7797 186.52 99.3309 187.474 98.645 188.243C97.959 189.012 97.0656 189.563 96.0737 189.83C92.5864 190.764 86.8713 192.032 81.4407 192.032C78.9699 192.011 76.5044 191.797 74.0667 191.391C77.3372 191.435 80.6281 190.781 83.4823 189.135C93.2127 183.516 94.6009 170.117 96.0432 160.125C96.5036 156.942 96.7745 153.923 94.2826 151.582C92.6406 150.042 90.45 149.142 88.3272 148.515C85.4218 147.624 82.4057 147.151 79.3686 147.111L106.586 147.084Z" fill="#CE5A36"/>
<path d="M98.7003 159.231C98.5456 158.872 98.3188 130.506 91.1807 117.057C91.1807 117.057 89.848 113.885 91.1807 114.559C92.5135 115.233 97.7387 121.525 99.2622 127.681C100.786 133.837 102.699 134.742 105.171 138.869C107.643 142.995 108.027 169.035 107.932 169.42C107.836 169.805 104.124 169.898 103.933 169.42C103.743 168.941 98.7003 159.231 98.7003 159.231Z" fill="#33624B"/>
<path d="M107.919 169.414C107.896 169.511 107.628 169.591 107.238 169.649L100.02 140.508C99.0434 132.746 97.3678 124.16 94.46 118.101C96.3263 120.632 98.3937 124.178 99.2625 127.683C100.786 133.831 102.699 134.745 105.173 138.871C107.648 142.998 108.017 169.029 107.919 169.414Z" fill="#224031"/>
<path d="M109.514 129.279C109.514 129.279 107.566 114.271 107.566 109.765C107.566 105.258 106.993 95.7379 107.566 95.2592C108.138 94.7804 108.403 94.7778 108.411 96.8905C108.419 99.0032 114.799 128.784 116.32 131.755C117.841 134.727 115.56 137.807 117.748 146.165C119.937 154.522 127.41 164.705 122.009 163.745C116.609 162.785 107.184 158.846 108.708 150.476C110.231 142.106 109.514 129.279 109.514 129.279Z" fill="#33624B"/>
<path d="M117.181 159.231C117.356 158.451 114.882 140.402 116.119 134.735C117.356 129.068 119.068 126.669 118.403 118.603C117.738 110.538 119.068 101.886 119.831 101.691C120.594 101.496 121.257 108.898 121.257 112.931C121.257 116.964 122.494 131.472 122.875 133.777C123.257 136.083 117.181 159.231 117.181 159.231Z" fill="#224031"/>
<path d="M117.181 159.231C117.181 159.231 117.544 142.035 121.543 133.004C125.541 123.973 127.064 111.484 127.064 106.777C127.064 102.07 129.253 86.7429 129.253 85.7021C129.253 84.6614 129.727 84.6744 130.395 86.4046C131.063 88.1349 130.395 110.805 130.395 118.202C130.395 125.599 129.351 133.293 128.825 137.989C128.299 142.686 120.114 170.44 117.83 169.732C115.547 169.024 112.595 165.275 113.448 164.315C114.301 163.355 117.181 159.231 117.181 159.231Z" fill="#33624B"/>
<path d="M161.994 85.8348C161.994 85.8348 161.329 85.3561 160.615 86.2667C159.901 87.1774 140.191 116.716 136.582 125.628L137.154 135.694L144.197 121.475L161.994 85.8348Z" fill="#33624B"/>
<path d="M107.934 173.447C107.594 173.39 107.236 173.317 106.867 173.234C106.385 173.127 105.885 173.002 105.387 172.859C103.067 172.204 101.879 173.999 101.191 173.234C100.234 172.172 94.7975 160.961 92.7997 158.174C90.8019 155.388 89.9434 150.967 89.3737 149.143C88.804 147.319 85.6616 138.96 85.9478 137.328C86.1875 135.967 85.8215 134.362 85.6591 133.014C85.4271 131.073 85.1435 129.14 84.8522 127.207C84.7852 126.728 84.5532 126 84.6872 125.732C84.7568 125.599 84.9166 125.578 85.2363 125.768C86.1282 126.289 86.783 128.334 87.1826 129.257C87.5641 130.124 88.4199 132.811 89.3737 133.964C90.3371 135.165 91.0776 136.533 91.5597 138C91.9438 139.248 93.0858 142.228 94.1376 143.958C95.1893 145.688 99.1747 152.697 100.412 155C101.185 156.436 103.905 163.219 105.851 168.145C105.923 168.322 105.988 168.493 106.058 168.665C107.138 171.405 107.934 173.447 107.934 173.447Z" fill="#448465"/>
<path d="M117.702 167.286L111.383 173.447L109.989 173.351L108.499 173.244L106.21 173.083C106.21 173.083 105.529 150.681 103.745 142.54C101.961 134.399 97.6048 112.782 94.251 106.658C90.8972 100.533 85.7441 90.6639 83.5427 88.2858C83.5427 88.2858 80.3307 85.3301 82.3285 85.1141C84.3263 84.8982 90.3198 92.6075 91.9671 94.0489C93.6143 95.4903 100.317 108.099 101.959 111.341C103.601 114.583 106.529 119.339 107.171 121.067C107.813 122.794 110.597 133.389 111.038 135.046C111.479 136.704 111.61 138.793 112.608 140.016C113.605 141.239 113.252 142.321 113.038 143.547C112.824 144.772 114.25 146.573 114.536 147.15C114.822 147.728 114.536 148.519 114.536 150.249C114.536 151.979 116.598 153.275 116.25 154.787C115.902 156.298 116.32 157.238 116.964 158.317C117.609 159.397 116.678 160.264 116.964 161.921C117.07 162.538 117.202 163.433 117.323 164.317C117.367 164.64 117.413 164.963 117.452 165.27C117.588 166.381 117.702 167.286 117.702 167.286Z" fill="#448465"/>
<path d="M137.306 133.386C137.306 133.386 138.675 131.37 138.866 129.931C139.056 128.492 139.343 128.776 140.58 127.241C141.817 125.706 141.817 124.839 141.817 124.165C141.817 123.492 141.91 123.385 142.673 122.532C143.436 121.678 143.72 120.323 143.815 119.651C143.91 118.98 143.815 120.323 144.671 118.691C145.527 117.06 145.527 115.049 146.385 114.559C147.244 114.07 148.002 113.503 148.097 112.829C148.192 112.155 147.432 111.294 148.097 110.716C148.762 110.139 149.334 110.331 149.62 109.66C149.921 108.815 150.144 107.944 150.288 107.058C150.383 106.481 151.239 105.237 151.525 105.042C151.812 104.847 152.095 103.889 152.191 103.312C152.286 102.734 153.771 103.023 153.791 102.063C153.812 101.103 153.487 100.429 153.791 99.9499C154.096 99.4712 154.665 99.4686 154.951 98.7973C155.238 98.126 154.57 97.5484 154.951 96.8745C155.333 96.2007 156.093 96.2033 156.284 95.5294C156.475 94.8555 156.568 94.1842 157.14 93.4167C157.712 92.6491 156.949 94.3768 158.282 92.1678C159.615 89.9588 160.86 86.3084 161.994 85.827C161.994 85.827 162.089 86.4047 161.517 87.2685C160.945 88.1323 159.197 91.879 158.21 95.4097C157.222 98.9404 145.908 118.683 142.959 127.426C140.01 136.168 135.63 146.445 134.867 147.309L137.306 133.386Z" fill="#448465"/>
<path d="M153.792 116.407C153.792 116.407 151.363 116.167 148.435 121.871C145.506 127.574 138.917 141.827 136.93 145.215C134.942 148.602 132.584 165.748 129.454 168.199C126.325 170.65 129.31 171.009 131.88 168.847C134.45 166.685 139.613 152.924 140.954 148.745C141.838 146.008 145.223 134.209 148.656 125.589C150.453 121.033 152.021 117.161 153.792 116.407Z" fill="#33624B"/>
<path d="M152.095 118.977C148.765 122.342 144.104 144.34 140.864 157.115C137.623 169.891 129.431 172.308 129.158 172.391C128.58 172.568 123.827 173.447 123.827 173.447H123.772L124.365 173.216L124.391 173.203C132.529 169.396 138.675 152.89 139.343 151.545C140.01 150.2 139.343 150.296 139.343 149.539C139.343 148.782 140.294 148.951 140.771 147.991C141.248 147.031 141.15 145.685 141.057 144.4C140.964 143.115 141.529 143.38 142.006 142.706C142.482 142.032 142.864 139.345 142.779 138.283C142.694 137.222 142.967 136.842 143.921 136.264C144.875 135.686 144.872 134.248 144.872 132.713C144.872 131.177 145.349 130.982 146.3 130.111C147.251 129.239 150.391 119.734 151.714 117.812C153.036 115.889 155.426 115.616 152.095 118.977Z" fill="#448465"/>
<path d="M136.675 147.895C136.113 150.635 135.553 168.06 124.391 173.204L124.365 173.217C124.19 173.297 124.01 173.373 123.827 173.448H111.383C111.494 173.308 113.324 170.992 115.392 168.153C116.062 167.232 116.761 166.251 117.433 165.276C118.854 163.194 120.158 161.141 120.865 159.619C122.966 155.105 122.491 154.338 122.669 153.375C122.847 152.412 123.442 152.992 124.097 151.743C124.752 150.495 124.574 148.476 124.574 147.612C124.574 146.748 126 145.403 126.379 144.729C126.758 144.055 127.046 140.306 128.284 138.677C128.477 138.417 128.65 138.198 128.799 138.003C129.64 136.962 130 136.627 130.56 135.414C131.225 133.973 135.507 125.616 135.128 119.946C134.749 114.277 135.605 108.131 136.365 108.42C137.126 108.709 137.139 116.392 137.319 119.657C137.499 122.923 137.247 145.114 136.675 147.895Z" fill="#448465"/>
<g opacity="0.8">
<path opacity="0.8" d="M117.439 165.27C117.439 165.27 114.152 170.312 109.989 173.351L108.499 173.245C111.535 171.077 115.688 167.679 117.31 164.317C117.354 164.64 117.4 164.963 117.439 165.27Z" fill="#33624B"/>
</g>
<g opacity="0.8">
<path opacity="0.8" d="M106.867 173.234C106.385 173.127 105.885 173.003 105.387 172.859C105.351 171.311 105.851 168.147 105.851 168.147C105.924 168.324 105.988 168.496 106.058 168.668C106.163 169.24 106.609 171.798 106.867 173.234Z" fill="#33624B"/>
</g>
<path d="M132.973 163.808C131.913 165.393 130.741 166.899 129.467 168.314C127.18 170.807 124.396 173.138 123.832 173.448C123.832 173.448 130.697 169.36 134.55 161.674L132.973 163.808Z" fill="#33624B"/>
<g opacity="0.6">
<path opacity="0.6" d="M153.657 100.526C153.657 100.934 153.802 101.439 153.789 102.071C153.771 103.034 152.286 102.745 152.188 103.32C152.09 103.895 151.809 104.858 151.533 105.045C151.257 105.232 150.391 106.486 150.296 107.061C150.152 107.947 149.929 108.818 149.628 109.663C149.342 110.335 148.772 110.142 148.107 110.72C147.442 111.297 148.2 112.161 148.107 112.835C148.014 113.509 147.249 114.081 146.393 114.563C145.537 115.044 145.537 117.06 144.679 118.694C143.82 120.328 143.905 118.981 143.823 119.652C143.74 120.323 143.444 121.671 142.681 122.535C141.918 123.399 141.825 123.497 141.825 124.169C141.825 124.84 141.825 125.706 140.588 127.244C139.35 128.782 139.064 128.493 138.876 129.934C138.688 131.376 137.314 133.392 137.314 133.392L136.906 135.708C136.906 133.962 137.378 129.427 137.409 129.281C137.422 129.175 146.537 113.09 153.657 100.526Z" fill="#224031"/>
</g>
<path d="M140.681 174.904V180.826C140.681 180.922 140.662 181.018 140.625 181.107C140.589 181.195 140.535 181.276 140.468 181.344C140.4 181.412 140.32 181.466 140.232 181.502C140.144 181.539 140.049 181.558 139.954 181.557H139.897C139.725 181.557 139.558 181.619 139.427 181.732C139.296 181.844 139.208 182 139.18 182.171L136.566 197.9C135.981 201.426 134.219 204.645 131.574 207.023C128.928 209.401 125.558 210.796 122.02 210.977C121.762 210.995 121.504 211 121.228 211H113.381C109.668 210.999 106.078 209.657 103.26 207.218C100.441 204.778 98.581 201.4 98.0148 197.697L95.6406 182.179C95.6132 182.007 95.5262 181.85 95.395 181.736C95.2638 181.622 95.097 181.559 94.924 181.557C94.8286 181.558 94.7342 181.539 94.646 181.502C94.5578 181.466 94.4776 181.412 94.4101 181.344C94.3426 181.276 94.289 181.195 94.2524 181.107C94.2158 181.018 94.197 180.922 94.197 180.826V174.904C94.1977 174.194 94.4777 173.513 94.9756 173.011C95.4735 172.509 96.1484 172.227 96.8522 172.227H138.025C138.374 172.227 138.719 172.296 139.041 172.43C139.363 172.565 139.656 172.762 139.903 173.01C140.149 173.259 140.345 173.554 140.478 173.879C140.612 174.204 140.681 174.553 140.681 174.904Z" fill="#F4D892"/>
<path d="M139.897 181.557C139.725 181.557 139.558 181.619 139.427 181.732C139.296 181.844 139.208 182 139.18 182.171L136.566 197.9C135.981 201.426 134.219 204.645 131.574 207.023C128.928 209.401 125.558 210.796 122.02 210.977C130.539 203.285 130.109 191.601 128.799 186.899C127.49 182.197 117.702 181.557 117.702 181.557H139.897Z" fill="#EFC764"/>
<path d="M99.5964 129.441C99.6345 129.348 99.6574 129.249 99.6642 129.148C99.6564 129.184 99.6303 129.286 99.5964 129.441Z" fill="#F9B4B9"/>
<path d="M71.1709 118.033C71.2074 117.854 71.2386 117.734 71.2491 117.693C71.2395 117.809 71.2132 117.924 71.1709 118.033Z" fill="#B1FE26"/>
<path d="M77.9108 138.226C77.7214 137.728 73.4989 136.607 71.6823 136.732C68.4383 136.955 65.1943 136.345 61.9632 136.926C58.099 137.619 54.489 139.282 50.944 140.904C45.8989 143.205 44.6506 150.429 44.2769 150.862C43.9032 151.295 42.7198 152.357 42.7198 152.357C42.2215 152.811 42.4213 151.487 42.4213 151.487C42.4213 151.487 43.1687 132.062 43.231 131.509C43.2933 130.956 43.3556 131.135 44.9127 130.388C46.4698 129.641 46.6567 130.699 49.0858 131.073C51.5149 131.447 55.9994 134.311 57.99 134.934C62.6458 136.387 69.1494 132.513 72.0041 129.08C73.2524 127.586 75.3052 123.85 75.7412 123.167C76.1772 122.485 74.223 120.918 74.223 120.918C72.5076 119.236 70.1849 118.401 68.6407 118.004C68.1012 117.862 67.5535 117.754 67.0005 117.68C67.0294 117.653 67.0597 117.628 67.0914 117.604C67.4678 117.286 67.8717 117.001 68.2982 116.753C68.8328 116.494 69.2921 115.908 69.7074 115.495C70.2965 114.896 70.8804 114.283 71.4513 113.679C71.957 113.191 72.3487 112.597 72.5984 111.94C72.6789 111.681 72.8034 111.243 72.7074 110.973C72.6114 110.703 72.3519 110.763 72.1209 110.812C71.6356 110.905 71.1451 110.996 70.6598 111.071C68.6537 111.393 66.6684 111.494 64.7479 112.216C60.4061 113.868 56.0488 115.882 51.8653 117.924C49.2701 119.19 45.7899 121.118 44.0096 123.484C43.92 123.622 43.8009 123.738 43.6609 123.824C43.5208 123.91 43.3634 123.964 43.1999 123.982C43.1999 123.982 43.1999 111.468 43.0753 111.035C42.9507 110.602 43.6982 109.54 43.9473 108.292C44.1964 107.044 45.8781 105.739 46.5633 104.992C47.2484 104.245 47.4975 104.992 48.6187 105.431C49.3479 105.697 50.0945 105.912 50.8531 106.077C53.3809 106.673 75.1469 111.115 75.1469 107.545C75.1469 103.35 72.0716 96.9645 68.3345 94.7305C67.9322 94.4892 65.3163 93.5552 63.7799 93.4514C63.2608 93.4125 62.8456 93.4721 62.7081 93.7108C62.734 93.6564 62.8015 93.5111 62.9546 93.1764C63.1908 92.6445 63.6346 91.6507 64.4339 89.8034C66.344 85.4367 66.2168 79.9906 64.5247 75.5954C64.1744 74.6821 64.042 73.0008 63.0039 72.6142C62.6491 72.5111 62.2753 72.4907 61.9113 72.5545C58.6024 72.8918 55.1482 73.3147 52.1715 74.8896C49.9378 76.0943 47.7938 77.4583 45.7562 78.9709C44.5001 79.8868 42.6419 83.2676 41.8763 84.7465C41.6531 85.1798 41.5182 85.4496 41.5182 85.4496C41.4247 84.9307 41.3054 84.4118 41.1678 83.9136V83.8929C40.6428 82.0261 39.9089 80.2245 38.9801 78.5221C35.6478 73.0734 30.6572 71.047 24.4806 71.278C24.0887 71.2935 21.6726 70.8602 21.5402 71.0418C21.2989 71.4207 19.5575 72.788 17.3879 79.9491C15.7477 85.3355 19.1864 91.6715 20.9901 94.4788C21.5792 95.4051 21.9996 95.9474 21.9996 95.9474C21.8335 95.9474 20.702 96.5052 19.4874 97.1227C18.3819 97.6858 17.2088 98.2929 16.6327 98.5601C15.4519 99.1206 13.5185 101.175 13.5185 101.614C13.5185 102.434 14.5799 103.806 14.8861 104.556C15.5116 106.127 16.4777 107.54 17.7149 108.692C19.0955 110.025 20.5699 111.257 22.1268 112.379C18.439 113.196 15.3792 114.338 12.6127 117.018C11.1931 118.393 10.2485 120.064 8.97943 121.535C8.17232 122.469 7.61435 124.587 7.05378 125.458C6.49322 126.33 6.05463 127.64 10.2277 128.51C13.7494 129.246 15.6284 128.388 16.1292 128.1C16.1292 128.1 16.1448 128.084 16.15 128.084L16.2564 128.022C16.4744 128.969 17.214 129.716 18.3326 130.334C20.7124 131.652 24.805 132.357 29.0975 133.123C33.608 133.927 37.5397 132.425 39.4031 131.514C39.7977 131.324 40.1823 131.113 40.5554 130.884L40.2258 151.171C40.2258 151.171 37.0492 148.618 35.993 147.811C35.578 147.474 35.2325 147.06 34.9757 146.591C34.2516 145.354 33.8104 143.737 32.9981 142.699C31.8329 141.197 30.2212 140.014 28.6719 139.049C27.5247 138.322 26.3128 137.703 25.0516 137.199C22.4646 136.205 19.682 135.826 16.9234 136.091C14.5254 136.306 11.8082 136.501 9.63861 137.611C5.93784 139.505 2.20852 143.27 0.679945 147.185C0.259521 148.317 0 148.187 0 148.498C0 149.194 2.17219 150.673 2.63154 151.075C4.15234 152.414 5.70946 153.765 7.4249 154.842C11.938 157.657 18.8646 155.997 23.7903 155.345C27.0888 154.912 32.6348 151.923 34.1893 150.366C35.64 148.916 35.5803 149.142 35.9644 149.025L36.0579 148.994C38.1133 149.741 40.3555 153.542 40.3555 153.542L39.9221 165.441H43.1583C43.0675 165.14 42.9819 163.508 42.8988 161.57C42.7743 158.257 42.6964 154.046 42.6964 154.046C44.1783 150.187 46.2596 151.991 46.2596 151.991C49.3739 153.685 52.9345 154.214 56.3368 153.179C59.5056 152.216 62.3344 150.369 65.568 149.562C68.5577 148.817 70.4833 148.133 72.6036 147.012C75.2455 145.611 79.115 141.472 77.9108 138.226ZM43.2206 125.835C43.7397 125.095 44.443 124.213 45.3098 123.902C46.1641 123.615 47.049 123.428 47.9465 123.346C48.7458 123.263 49.8073 123.087 50.5858 123.297C49.3064 124.654 47.2121 125.31 46.2466 127.018C46.1294 127.235 46.0329 127.462 45.9586 127.697C45.7951 128.149 45.642 128.613 45.3124 128.927C44.7518 129.446 43.885 129.649 43.2362 130.051C43.0571 128.699 43.2206 127.21 43.2206 125.835ZM43.8175 104.04C44.1246 103.944 44.4217 103.819 44.7051 103.666C45.2605 103.389 45.7588 103.106 45.8989 103.287C45.9369 103.348 45.9508 103.42 45.9378 103.49C45.8729 104.227 43.8824 106.279 43.3218 106.531C43.3218 106.544 42.8833 104.294 43.8175 104.045V104.04ZM39.2681 101.406C39.3472 101.453 39.4174 101.512 39.4757 101.583C39.6007 101.728 39.703 101.892 39.7794 102.068C39.8469 102.216 39.9066 102.366 39.9636 102.496C40.1816 102.989 40.4334 103.469 40.6202 103.98C40.6943 104.203 40.7337 104.436 40.737 104.67C40.7471 105.087 40.7079 105.503 40.6202 105.911C40.6202 105.911 40.5034 105.524 40.3244 104.977C40.2699 104.813 40.205 104.637 40.1375 104.458C39.7482 103.368 39.1929 102.011 38.7283 101.679C38.7042 101.66 38.6781 101.645 38.6505 101.632C38.7102 101.65 39.006 101.256 39.2681 101.406ZM40.6202 111.328C40.6202 111.328 40.5969 112.514 40.6202 113.57C40.6436 114.626 40.6202 118.302 40.6202 118.302C40.6202 118.302 40.4308 118.489 39.6963 118.302C38.8685 118.095 38.0536 117.815 37.2413 117.54C36.525 117.298 35.7412 116.932 34.9782 116.868C34.5397 116.831 34.1711 116.263 33.9402 115.941C33.7092 115.62 33.2654 114.683 32.7957 114.566C32.5569 114.504 39.7275 113.632 40.6202 111.328ZM40.2751 127.448C39.9403 126.477 39.4291 125.575 38.7673 124.789C38.1055 124.049 37.384 123.357 36.6522 122.685C35.8459 121.925 34.9893 121.222 34.0881 120.578C33.569 120.215 32.967 119.659 32.3 119.644H32.2273L32.3 119.615C32.3067 119.613 32.3141 119.613 32.3208 119.615C33.0754 119.336 33.8083 119.001 34.5137 118.614C34.7141 118.479 34.9271 118.363 35.1495 118.269C35.4765 118.171 35.8201 118.141 36.1591 118.18C37.5605 118.282 39.5588 118.842 40.2102 120.238C40.7292 121.348 40.7292 123.471 40.6644 125.334C40.6644 125.401 40.6644 125.469 40.6644 125.536V125.552C40.628 126.74 40.5709 127.801 40.628 128.406C40.5086 128.079 40.397 127.757 40.2751 127.448Z" fill="#5960A3"/>
<path d="M0.425537 148.748C3.35169 147.778 6.34163 147.013 9.37382 146.457C12.4072 145.889 15.4758 145.529 18.5583 145.38C21.6456 145.235 24.7398 145.398 27.7946 145.868C29.3181 146.121 30.8225 146.478 32.2973 146.937C33.7639 147.417 35.1855 148.024 36.5457 148.753C35.1573 148.093 33.7185 147.546 32.2428 147.116C30.7687 146.695 29.2678 146.374 27.7505 146.156C24.7112 145.732 21.6385 145.598 18.5738 145.756C15.5058 145.892 12.4494 146.222 9.42313 146.745C7.90753 146.996 6.39971 147.29 4.89968 147.63C3.39705 147.951 1.90481 148.317 0.425537 148.748Z" fill="#B2B7DC"/>
<path d="M8.46045 152.484C9.28573 151.394 10.1629 150.362 11.0193 149.313C11.4501 148.795 11.8723 148.268 12.2858 147.733C12.4882 147.474 12.688 147.194 12.8723 146.913C13.0749 146.644 13.219 146.336 13.2953 146.008C13.29 146.355 13.201 146.696 13.0358 147.002C12.8824 147.312 12.709 147.612 12.5168 147.899C12.1425 148.473 11.7361 149.025 11.2996 149.552C10.4371 150.607 9.48737 151.588 8.46045 152.484Z" fill="#B2B7DC"/>
<path d="M11.1387 152.92C11.6577 152.38 12.1768 151.833 12.6958 151.285C13.2148 150.738 13.6976 150.172 14.1595 149.588C14.6325 149.018 15.0587 148.411 15.4337 147.772C15.8276 147.139 16.1061 146.44 16.2564 145.709C16.2467 146.477 16.0536 147.232 15.6933 147.91C15.5236 148.252 15.3347 148.585 15.1275 148.906C14.9069 149.217 14.6915 149.534 14.4502 149.827C13.9716 150.42 13.4512 150.977 12.893 151.496C12.3455 152.015 11.759 152.491 11.1387 152.92Z" fill="#B2B7DC"/>
<path d="M12.1975 154.166C12.5323 153.859 12.8671 153.561 13.1811 153.237C13.4951 152.912 13.8195 152.606 14.1258 152.277C14.7356 151.618 15.3221 150.94 15.8619 150.229C16.4061 149.522 16.9029 148.779 17.349 148.006L17.6734 147.417C17.7798 147.22 17.8629 147.012 17.9589 146.81C18.1769 146.413 18.2988 145.982 18.4779 145.567C18.2956 146.458 17.999 147.322 17.5955 148.138C17.1925 148.958 16.7083 149.735 16.15 150.458C15.5998 151.179 14.9923 151.855 14.3334 152.479C13.6754 153.106 12.9603 153.671 12.1975 154.166Z" fill="#B2B7DC"/>
<path d="M17.489 154.166C17.9562 153.449 18.4389 152.749 18.9164 152.048L20.3411 149.939C20.8187 149.238 21.2728 148.525 21.7218 147.809C21.9502 147.45 22.1578 147.085 22.3602 146.714L22.6535 146.151L22.913 145.567C22.7156 146.402 22.401 147.204 21.9787 147.951C21.5772 148.706 21.1363 149.438 20.6578 150.146C20.1777 150.852 19.682 151.548 19.1525 152.222C18.6231 152.897 18.0781 153.545 17.489 154.166Z" fill="#B2B7DC"/>
<path d="M21.0393 153.231C21.9528 152.038 22.8793 150.873 23.7357 149.659C24.1688 149.059 24.5716 148.438 24.9425 147.798C25.3373 147.17 25.6184 146.477 25.773 145.751C25.7582 146.513 25.5625 147.261 25.202 147.933C24.8705 148.611 24.4825 149.261 24.042 149.874C23.1709 151.103 22.1636 152.229 21.0393 153.231Z" fill="#B2B7DC"/>
<path d="M24.9634 152.173L26.1157 150.725C26.4946 150.245 26.8735 149.762 27.2264 149.267C27.586 148.779 27.9087 148.266 28.1918 147.731C28.3305 147.466 28.4402 147.186 28.5188 146.898C28.607 146.608 28.607 146.298 28.5188 146.008C28.6811 146.285 28.746 146.608 28.7031 146.926C28.6669 147.244 28.5865 147.555 28.4643 147.85C28.2195 148.429 27.9077 148.978 27.5352 149.485C26.8035 150.493 25.9383 151.397 24.9634 152.173Z" fill="#B2B7DC"/>
<path d="M8.21118 142.396C8.51482 142.78 8.82625 143.149 9.13248 143.517C9.43872 143.885 9.75793 144.238 10.0979 144.568C10.424 144.905 10.7792 145.214 11.1593 145.489C11.5557 145.767 11.9937 145.979 12.4569 146.12C11.957 146.116 11.4663 145.983 11.0322 145.735C10.5956 145.494 10.1969 145.19 9.84876 144.833C9.49956 144.485 9.18653 144.102 8.91448 143.691C8.63242 143.287 8.39651 142.853 8.21118 142.396Z" fill="#B2B7DC"/>
<path d="M10.3264 139.41C10.2823 139.488 10.3264 139.581 10.342 139.669C10.3575 139.757 10.3991 139.838 10.4328 139.929C10.5003 140.095 10.5755 140.258 10.6586 140.416C10.8195 140.738 10.9986 141.05 11.1776 141.356C11.5485 141.967 11.964 142.55 12.4207 143.099C12.8714 143.651 13.3736 144.159 13.9208 144.615C14.4764 145.07 15.0866 145.455 15.7374 145.759C15.3807 145.673 15.033 145.553 14.6993 145.401C14.369 145.239 14.053 145.05 13.7547 144.835C13.1519 144.407 12.609 143.9 12.1405 143.328C11.6723 142.76 11.2669 142.143 10.9311 141.488C10.764 141.161 10.6184 140.824 10.4951 140.479C10.4354 140.305 10.3835 140.126 10.3394 139.96C10.3212 139.869 10.303 139.778 10.2901 139.687C10.2771 139.597 10.2641 139.48 10.3264 139.41Z" fill="#B2B7DC"/>
<path d="M14.6863 139.41C15.5635 140.494 16.3939 141.597 17.2607 142.669C17.6941 143.206 18.1379 143.73 18.6051 144.226C18.8383 144.478 19.0843 144.717 19.3421 144.944C19.4695 145.059 19.6048 145.165 19.7469 145.261C19.8148 145.313 19.8889 145.357 19.9675 145.391L20.1985 145.51C19.5056 145.365 18.9217 144.9 18.4 144.443C17.8882 143.964 17.4104 143.45 16.9701 142.905C16.092 141.82 15.3268 140.649 14.6863 139.41Z" fill="#B2B7DC"/>
<path d="M20.1985 138.351C20.5073 139.034 20.8239 139.708 21.1405 140.383C21.4572 141.057 21.7868 141.719 22.1475 142.365C22.4956 143.014 22.8894 143.637 23.3257 144.231C23.7721 144.804 24.2678 145.375 24.9633 145.673C24.2159 145.515 23.5956 144.978 23.0999 144.415C22.6087 143.838 22.1799 143.211 21.8205 142.544C21.0992 141.223 20.5539 139.814 20.1985 138.351Z" fill="#B2B7DC"/>
<path d="M24.9634 138.976C25.254 139.664 25.5655 140.341 25.8769 141.013C26.1883 141.685 26.5231 142.347 26.8942 142.983C27.2511 143.626 27.6562 144.241 28.1062 144.822C28.5546 145.41 29.0871 145.928 29.6867 146.361C28.9971 146.044 28.3831 145.584 27.8856 145.012C27.3784 144.449 26.937 143.83 26.5698 143.167C26.1987 142.512 25.8777 141.831 25.6096 141.127C25.3367 140.429 25.1206 139.71 24.9634 138.976Z" fill="#B2B7DC"/>
<path d="M29.6865 141.151C29.8578 141.711 30.0499 142.259 30.2445 142.798C30.4391 143.338 30.6623 143.87 30.9063 144.386C31.153 144.901 31.433 145.4 31.7445 145.878C32.071 146.353 32.4402 146.797 32.8475 147.204C32.3385 146.901 31.8863 146.511 31.511 146.052C31.1426 145.587 30.8267 145.082 30.5689 144.547C30.0633 143.481 29.7639 142.328 29.6865 141.151Z" fill="#B2B7DC"/>
<path d="M45.2656 151.239C46.462 150.391 47.6921 149.594 48.9301 148.808C50.168 148.022 51.437 147.285 52.7139 146.558C55.2753 145.134 57.9043 143.808 60.7019 142.848C62.1163 142.394 63.5567 142.09 64.9633 141.716L69.2142 140.606L77.7109 138.351C74.9185 139.246 72.1079 140.079 69.2895 140.884C67.8829 141.291 66.4659 141.662 65.0489 142.046C63.6319 142.43 62.1942 142.749 60.8213 143.201C58.0548 144.119 55.4337 145.442 52.8514 146.81C50.2692 148.177 47.7518 149.682 45.2656 151.239Z" fill="#B2B7DC"/>
<path d="M48.8755 144.259C49.2632 144.28 49.6451 144.362 50.007 144.503C50.3797 144.636 50.7298 144.825 51.0451 145.063C51.367 145.306 51.6326 145.616 51.8236 145.972C51.9984 146.33 52.0582 146.735 51.9949 147.129C51.914 146.77 51.7708 146.429 51.5719 146.119C51.3607 145.831 51.109 145.575 50.8245 145.359C50.5353 145.135 50.227 144.938 49.9032 144.768C49.5684 144.589 49.2258 144.425 48.8755 144.259Z" fill="#B2B7DC"/>
<path d="M51.4915 142.012C51.9606 142.041 52.4217 142.148 52.8565 142.326C53.3068 142.497 53.7194 142.755 54.0711 143.084C54.4329 143.423 54.6789 143.868 54.7744 144.355C54.8446 144.833 54.761 145.321 54.5356 145.748C54.6146 145.31 54.6022 144.859 54.4993 144.425C54.3692 144.017 54.1359 143.648 53.822 143.356C53.4997 143.054 53.1373 142.799 52.7449 142.596C52.3388 142.377 51.9203 142.182 51.4915 142.012Z" fill="#B2B7DC"/>
<path d="M55.2288 140.403C55.6124 140.529 55.9689 140.725 56.2798 140.982C56.6003 141.237 56.8727 141.547 57.0843 141.898C57.2992 142.254 57.4297 142.654 57.4658 143.068C57.5031 143.474 57.4408 143.883 57.2842 144.259C57.2929 143.874 57.2572 143.489 57.1778 143.112C57.0963 142.75 56.956 142.404 56.7625 142.087C56.3526 141.442 55.8336 140.872 55.2288 140.403Z" fill="#B2B7DC"/>
<path d="M59.7754 138.976C60.0339 139.248 60.2359 139.568 60.3697 139.918C60.5089 140.273 60.5844 140.65 60.5929 141.031C60.5941 141.223 60.5811 141.415 60.554 141.605C60.5174 141.792 60.4635 141.975 60.3931 142.152C60.2558 142.503 60.0452 142.821 59.7754 143.084C59.9142 142.754 60.0279 142.414 60.1154 142.067C60.1985 141.727 60.2335 141.378 60.2192 141.029C60.1918 140.324 60.0416 139.63 59.7754 138.976Z" fill="#B2B7DC"/>
<path d="M62.6405 137.542C62.7723 137.966 62.8704 138.399 62.9338 138.839C62.987 139.287 62.9948 139.739 62.9571 140.188C62.9226 140.643 62.8302 141.091 62.682 141.522C62.5338 141.954 62.3371 142.369 62.0955 142.757L62.0203 142.498C62.4417 142.749 62.8188 143.068 63.1362 143.442C63.4466 143.805 63.7172 144.2 63.9433 144.62C64.1633 145.038 64.3516 145.471 64.5065 145.917C64.5791 146.143 64.6362 146.371 64.7011 146.597C64.766 146.823 64.7997 147.054 64.8412 147.285C64.7582 147.064 64.6803 146.846 64.6025 146.626C64.5246 146.405 64.4312 146.195 64.343 145.985C64.159 145.563 63.9439 145.155 63.6994 144.765C63.4589 144.379 63.1844 144.015 62.8793 143.678C62.5876 143.345 62.2462 143.059 61.8671 142.83L61.6907 142.728L61.7919 142.562C62.0207 142.199 62.212 141.813 62.3628 141.41C62.514 141.006 62.6227 140.587 62.6872 140.16C62.7553 139.731 62.7823 139.296 62.7677 138.862C62.7499 138.42 62.7074 137.979 62.6405 137.542Z" fill="#B2B7DC"/>
<path d="M64.8802 137.542C65.0445 137.899 65.1647 138.276 65.2383 138.663C65.3198 139.051 65.3598 139.446 65.3577 139.843C65.3619 140.246 65.3006 140.646 65.1761 141.029C65.0624 141.42 64.8269 141.764 64.5039 142.012C64.7007 141.689 64.8328 141.33 64.8932 140.956C64.9599 140.588 64.9904 140.215 64.984 139.841C64.9996 139.085 64.9217 138.325 64.8802 137.542Z" fill="#B2B7DC"/>
<path d="M67.87 137.542C67.9912 137.859 68.0579 138.194 68.0672 138.533C68.0802 138.876 68.0461 139.219 67.966 139.553C67.8772 139.89 67.7296 140.209 67.53 140.494C67.3299 140.775 67.0621 141.001 66.7515 141.151C67.1634 140.661 67.4557 140.082 67.6053 139.459C67.7482 138.829 67.8368 138.187 67.87 137.542Z" fill="#B2B7DC"/>
<path d="M71.3683 137.542C71.526 137.846 71.6035 138.185 71.5936 138.527C71.5836 138.87 71.4864 139.204 71.3112 139.498C71.1327 139.792 70.8928 140.044 70.6079 140.238C70.4681 140.329 70.3215 140.41 70.1694 140.479C70.0151 140.537 69.8573 140.586 69.697 140.624C69.8216 140.513 69.9565 140.419 70.0759 140.323C70.1953 140.227 70.3199 140.121 70.4263 140.009C70.6438 139.801 70.8332 139.566 70.9894 139.309C71.1393 139.051 71.2454 138.771 71.3035 138.478C71.366 138.17 71.3878 137.855 71.3683 137.542Z" fill="#B2B7DC"/>
<path d="M55.8567 145.084C56.3075 145.215 56.7269 145.437 57.0894 145.735C57.6446 146.179 58.0784 146.756 58.3507 147.413C58.6229 148.069 58.7247 148.784 58.6465 149.49C58.5547 149.05 58.4342 148.617 58.2858 148.193C58.1409 147.774 57.9475 147.375 57.7097 147.002C57.4774 146.624 57.2012 146.276 56.887 145.964C56.5732 145.637 56.2281 145.343 55.8567 145.084Z" fill="#B2B7DC"/>
<path d="M58.6519 143.81C59.5459 144.326 60.3172 145.03 60.9123 145.873C61.2124 146.295 61.4591 146.753 61.6467 147.235C61.8307 147.719 61.9282 148.231 61.9348 148.748C61.7867 148.269 61.601 147.802 61.3794 147.352C61.1501 146.913 60.89 146.491 60.6009 146.088C60.3154 145.684 60.0014 145.297 59.6744 144.918C59.3474 144.539 59.0152 144.166 58.6519 143.81Z" fill="#B2B7DC"/>
<path d="M65.176 141.83C65.7105 141.782 66.2465 141.906 66.7046 142.186C67.1697 142.465 67.5592 142.855 67.8387 143.32C68.113 143.776 68.3119 144.274 68.4278 144.794C68.472 145.053 68.5161 145.313 68.542 145.572C68.568 145.832 68.5628 146.091 68.555 146.35C68.4797 146.091 68.4278 145.847 68.363 145.601L68.1449 144.869C67.9879 144.396 67.779 143.942 67.5221 143.514C67.2696 143.092 66.9384 142.722 66.5463 142.425C66.1413 142.124 65.6724 141.921 65.176 141.83Z" fill="#B2B7DC"/>
<path d="M68.2151 141.026C68.7556 141.063 69.2711 141.268 69.6892 141.613C70.1165 141.938 70.4897 142.33 70.7947 142.772C70.9582 142.985 71.0802 143.224 71.2229 143.45C71.3657 143.675 71.4643 143.922 71.5681 144.166C71.6719 144.41 71.7627 144.656 71.8432 144.908C71.9236 145.16 71.9885 145.414 72.043 145.673L71.306 144.293C71.0584 143.846 70.7864 143.413 70.4911 142.996C70.2051 142.575 69.8734 142.188 69.5023 141.841C69.3183 141.667 69.1195 141.509 68.908 141.369C68.6966 141.219 68.4627 141.103 68.2151 141.026Z" fill="#B2B7DC"/>
<path d="M71.0542 140.245C71.4852 140.271 71.904 140.398 72.2765 140.616C72.6579 140.827 72.9967 141.107 73.2757 141.441C73.5513 141.776 73.768 142.155 73.9167 142.562C73.9921 142.763 74.0511 142.97 74.0932 143.18C74.1285 143.388 74.151 143.599 74.1607 143.81C74.0672 143.618 74.0023 143.421 73.9193 143.234C73.8363 143.047 73.7558 142.855 73.6598 142.682C73.6079 142.593 73.5612 142.505 73.5144 142.422C73.4677 142.339 73.4055 142.253 73.351 142.163C73.243 141.994 73.1242 141.833 72.9954 141.68C72.7399 141.373 72.448 141.097 72.126 140.86C71.7943 140.613 71.4345 140.407 71.0542 140.245Z" fill="#B2B7DC"/>
<path d="M73.0059 139.7C73.3483 139.594 73.7141 139.589 74.0595 139.685C74.4135 139.772 74.7434 139.938 75.0249 140.17C75.3065 140.4 75.5342 140.689 75.6919 141.016C75.8503 141.331 75.9439 141.675 75.967 142.028C75.8087 141.731 75.6355 141.443 75.448 141.164C75.2656 140.899 75.0462 140.661 74.7966 140.458C74.5452 140.252 74.2644 140.085 73.9635 139.962C73.6587 139.829 73.3361 139.741 73.0059 139.7Z" fill="#B2B7DC"/>
<path d="M22.5342 72.1033C24.178 74.4255 25.6111 76.8897 26.8163 79.4668C27.4391 80.746 27.9478 82.0874 28.4772 83.3924C29.0066 84.6975 29.6191 85.987 30.2575 87.2428C31.4838 89.7936 32.9434 92.2256 34.6175 94.5077C35.0353 95.0737 35.5101 95.5953 36.0345 96.0645C36.1746 96.1682 36.294 96.272 36.4523 96.3758C36.6037 96.4712 36.75 96.5742 36.8909 96.6846C37.172 96.9073 37.4373 97.1492 37.685 97.4085C38.6593 98.4503 39.491 99.6168 40.1583 100.877C39.4357 99.6606 38.5639 98.5388 37.563 97.5382C37.3143 97.2912 37.049 97.0615 36.7689 96.8506C36.4912 96.6379 36.1928 96.4666 35.8969 96.2383C35.3454 95.7733 34.8443 95.2515 34.4021 94.6815C33.5165 93.5619 32.7101 92.382 31.9885 91.1503C31.2567 89.9308 30.5741 88.6802 29.9305 87.4115C29.2869 86.1427 28.7082 84.8402 28.171 83.5196L27.3924 81.5373C27.1329 80.8835 26.85 80.24 26.5645 79.5836C25.9832 78.2932 25.3552 77.0236 24.6804 75.7747C24.0134 74.5267 23.2998 73.2995 22.5342 72.1033Z" fill="#B2B7DC"/>
<path d="M20.9148 79.5761C21.7031 79.6951 22.4789 79.8861 23.2323 80.1469C23.9934 80.3975 24.7301 80.7171 25.4331 81.1017C26.1433 81.482 26.8011 81.953 27.3899 82.5029C27.5368 82.6416 27.6755 82.7889 27.8051 82.944L28.0075 83.1671L28.1814 83.4266C28.4099 83.7501 28.6014 84.0983 28.7523 84.4645C28.6356 84.3036 28.524 84.1401 28.415 83.9767C28.2977 83.8174 28.1684 83.6673 28.0283 83.5278L27.8388 83.3072L27.6234 83.1074C27.4868 82.9683 27.3411 82.8383 27.1874 82.7182C26.5808 82.2269 25.9301 81.7927 25.2436 81.4209C24.5562 81.0453 23.8493 80.7067 23.1259 80.4064C22.7652 80.2507 22.3967 80.108 22.0255 79.9731C21.6544 79.8381 21.2807 79.7058 20.9148 79.5761Z" fill="#B2B7DC"/>
<path d="M21.8491 85.8656C22.7058 85.7183 23.5759 85.6635 24.4443 85.7021C25.315 85.7273 26.1802 85.8491 27.024 86.0654C27.8788 86.277 28.6884 86.6409 29.4142 87.1396C29.7657 87.3957 30.0847 87.6937 30.364 88.027C30.6368 88.3663 30.8596 88.7429 31.0258 89.1453C30.5772 88.4236 29.9634 87.8188 29.2351 87.3809C28.5067 86.9517 27.7199 86.6301 26.8994 86.4261C26.0773 86.2148 25.24 86.0682 24.395 85.9876C23.9694 85.9409 23.5438 85.9123 23.1156 85.8968C22.6874 85.8812 22.2799 85.8656 21.8491 85.8656Z" fill="#B2B7DC"/>
<path d="M25.3994 93.2735C25.8886 92.7448 26.4665 92.3057 27.1071 91.9761C27.7536 91.638 28.4578 91.4241 29.1832 91.3456C29.5475 91.3119 29.9141 91.3119 30.2784 91.3456C30.6403 91.3949 30.996 91.4819 31.3398 91.6051C31.5128 91.659 31.6812 91.7267 31.8433 91.8075L32.3182 92.0669C32.4715 92.16 32.6173 92.265 32.7542 92.3809C32.897 92.4899 33.0345 92.6014 33.1695 92.7156C32.5714 92.3532 31.9271 92.0731 31.2542 91.8827C30.5952 91.6897 29.9038 91.6332 29.2222 91.7167C28.5372 91.7889 27.8671 91.9638 27.2342 92.2356C26.5868 92.5141 25.9716 92.8621 25.3994 93.2735Z" fill="#B2B7DC"/>
<path d="M29.9462 74.8433C29.7983 75.2455 29.6504 75.6451 29.5336 76.0551C29.4168 76.465 29.2741 76.8646 29.1754 77.2746C28.9637 78.0926 28.7965 78.9215 28.6746 79.7577C28.5531 80.5919 28.4949 81.4341 28.5007 82.2771L28.5137 82.9102C28.5137 83.1204 28.5552 83.3306 28.5734 83.5408C28.5863 83.9689 28.7005 84.3763 28.7472 84.807C28.4551 83.9963 28.2752 83.1495 28.2126 82.2901C28.1469 81.4244 28.1782 80.5541 28.3061 79.6954C28.429 78.8419 28.6288 78.0013 28.903 77.1838C29.1682 76.3694 29.5178 75.585 29.9462 74.8433Z" fill="#B2B7DC"/>
<path d="M34.1789 81.5688C33.9921 81.9165 33.8 82.259 33.6365 82.6067C33.473 82.9544 33.294 83.3124 33.1408 83.6731C32.8346 84.3885 32.5686 85.1205 32.3441 85.8656C32.1205 86.6089 31.9573 87.369 31.8562 88.1386L31.7913 88.7172C31.7732 88.9118 31.7913 89.1064 31.7706 89.301C31.7316 89.6928 31.7939 90.0794 31.7887 90.479C31.596 89.7059 31.5216 88.908 31.5681 88.1126C31.6147 87.3145 31.755 86.5246 31.986 85.7592C32.2152 84.9958 32.5158 84.2556 32.8839 83.5486C33.2431 82.844 33.6772 82.1802 34.1789 81.5688Z" fill="#B2B7DC"/>
<path d="M35.9851 89.1453C35.7048 89.6683 35.4552 90.2072 35.2377 90.7592C35.0397 91.3042 34.9276 91.8767 34.9055 92.4561C34.8951 92.5995 34.8951 92.7435 34.9055 92.8869C34.9054 93.0291 34.9141 93.1712 34.9315 93.3124L34.9834 93.7431L35.0768 94.1712C35.1024 94.3204 35.1406 94.4671 35.191 94.6097L35.3207 95.0327C35.4116 95.3155 35.5413 95.5828 35.6374 95.8708C35.4687 95.6113 35.3026 95.37 35.1521 95.0924C35.0119 94.8218 34.893 94.5407 34.7965 94.2517C34.5965 93.668 34.5084 93.0517 34.537 92.4354C34.5611 91.8158 34.7085 91.2071 34.9704 90.645C35.1012 90.373 35.2548 90.1126 35.4297 89.8666C35.5984 89.6046 35.8138 89.3866 35.9851 89.1453Z" fill="#B2B7DC"/>
<path d="M42.7119 103.111C43.81 100.374 45.0924 97.7132 46.5502 95.1486C47.9917 92.5671 49.6407 90.1071 51.4811 87.793C52.4102 86.6384 53.4301 85.5668 54.4189 84.4822C55.4077 83.3977 56.3809 82.2872 57.3567 81.1871C58.3325 80.087 59.2875 78.9661 60.2296 77.8349C61.1716 76.7036 62.1085 75.5672 63.0168 74.4074C61.3222 76.8204 59.4692 79.1166 57.5669 81.3765C56.6222 82.5078 55.6438 83.6105 54.6629 84.708C53.6819 85.8055 52.6749 86.8797 51.764 88.0291C49.924 90.3201 48.2625 92.7488 46.7942 95.2939C46.039 96.5549 45.3279 97.8444 44.6531 99.1495C43.9784 100.455 43.3218 101.77 42.7119 103.111Z" fill="#B2B7DC"/>
<path d="M52.3013 76.7063C52.6822 77.3059 53.0179 77.9329 53.3056 78.5823C53.5982 79.2309 53.8495 79.8974 54.0582 80.5776C54.273 81.2605 54.4207 81.9626 54.4994 82.6741C54.594 83.3858 54.5454 84.1091 54.3567 84.8018C54.3985 84.1065 54.3496 83.4087 54.2113 82.726C54.0782 82.041 53.9049 81.3643 53.6923 80.6996C53.4951 80.0275 53.2641 79.3659 53.0279 78.7042C52.7918 78.0426 52.5556 77.3732 52.3013 76.7063Z" fill="#B2B7DC"/>
<path d="M55.4155 74.8433C56.0135 75.8618 56.4966 76.9435 56.8559 78.0685C57.0369 78.6328 57.1765 79.2095 57.2737 79.794C57.3938 80.3819 57.3742 80.9898 57.2166 81.5688C57.2166 81.4183 57.2296 81.2756 57.2166 81.1303C57.2036 80.985 57.1906 80.8423 57.1621 80.6996C57.118 80.4142 57.0531 80.1339 56.9856 79.8511C56.8377 79.2932 56.6768 78.7354 56.4977 78.1827C56.1448 77.0722 55.7555 75.9746 55.4155 74.8433Z" fill="#B2B7DC"/>
<path d="M48.8159 79.5761C49.3755 80.2254 49.8547 80.9397 50.2433 81.7037C50.6433 82.4682 50.9541 83.2762 51.1698 84.1116C51.3754 84.9549 51.4498 85.8248 51.3904 86.6907C51.3124 87.5505 51.0608 88.3855 50.6507 89.1453C50.7851 88.7442 50.8909 88.3341 50.9673 87.918C51.0118 87.7142 51.0447 87.508 51.066 87.3005L51.1023 86.6752C51.1025 85.8412 51.0032 85.0102 50.8064 84.1998C50.5958 83.3878 50.3207 82.5939 49.9838 81.8257C49.8203 81.4391 49.636 81.0602 49.4362 80.6866C49.2363 80.313 49.0339 79.9419 48.8159 79.5761Z" fill="#B2B7DC"/>
<path d="M45.8262 83.0011C46.352 83.7448 46.8163 84.5301 47.2146 85.3493C47.6179 86.1714 47.948 87.0275 48.2008 87.9076C48.4538 88.7956 48.5848 89.7139 48.5901 90.6373C48.5847 91.5728 48.3878 92.4974 48.0113 93.3539L47.7752 93.0944C48.5669 92.7949 49.3894 92.5843 50.2276 92.4665C51.062 92.3426 51.9085 92.3234 52.7476 92.4094C53.5847 92.4981 54.4031 92.7151 55.1741 93.0529L55.7451 93.3124L56.2797 93.6393C56.3679 93.6964 56.4587 93.7457 56.5392 93.808L56.7831 94.0026L57.2685 94.397C56.6092 93.8968 55.8799 93.4964 55.104 93.2086C54.3363 92.9161 53.5287 92.7411 52.7087 92.6897C51.8913 92.6411 51.071 92.6785 50.2614 92.8012C49.4543 92.9255 48.6632 93.1378 47.9023 93.4343L47.4793 93.6056L47.6662 93.1852C48.0216 92.3768 48.2164 91.507 48.2397 90.6243C48.2398 89.7301 48.1291 88.8394 47.9101 87.9725C47.6953 87.0974 47.4035 86.243 47.0381 85.4193C46.6903 84.5863 46.2853 83.7783 45.8262 83.0011Z" fill="#B2B7DC"/>
<path d="M45.8262 96.7218C46.6209 96.532 47.4298 96.4079 48.2449 96.3508C49.0609 96.2863 49.8803 96.2777 50.6974 96.3248C51.5168 96.3769 52.3303 96.4984 53.1291 96.6881C53.9265 96.8811 54.6951 97.1777 55.4155 97.5703C55.021 97.4587 54.6369 97.3108 54.2476 97.2278C53.8583 97.1448 53.4691 97.0488 53.0694 96.9683C52.2753 96.8438 51.4785 96.7452 50.674 96.7088C49.8695 96.6725 49.065 96.6492 48.2553 96.6492C47.853 96.6492 47.4482 96.6492 47.0433 96.6803C46.6385 96.7114 46.2336 96.7011 45.8262 96.7218Z" fill="#B2B7DC"/>
<path d="M50.9934 88.6964C51.7297 88.5542 52.478 88.483 53.2279 88.4837C53.9824 88.4738 54.736 88.5381 55.4779 88.6757C56.2278 88.8028 56.9546 89.0406 57.6345 89.3814C58.318 89.7165 58.9048 90.2202 59.3396 90.8448C58.812 90.3313 58.1909 89.9235 57.51 89.6435C56.8344 89.3662 56.1303 89.1643 55.4105 89.0415C54.6863 88.9108 53.9548 88.8241 53.2201 88.782C52.4831 88.7276 51.7408 88.6938 50.9934 88.6964Z" fill="#B2B7DC"/>
<path d="M53.2356 86.0265C53.9483 85.7882 54.6829 85.6213 55.4286 85.5283C56.1784 85.4266 56.9366 85.4014 57.6916 85.4531C58.4549 85.4962 59.2048 85.6718 59.9079 85.972C60.6182 86.269 61.2078 86.7963 61.5818 87.4691C61.1089 86.9058 60.4917 86.4816 59.7963 86.2419C59.1082 86.0026 58.3903 85.8594 57.663 85.8163C56.9286 85.767 56.1916 85.767 55.4571 85.8163C54.7175 85.863 53.9804 85.9253 53.2356 86.0265Z" fill="#B2B7DC"/>
<path d="M56.5601 82.3264C57.025 82.0807 57.542 81.9499 58.0679 81.945C58.5904 81.9263 59.1132 81.9707 59.625 82.0774C60.1352 82.1904 60.632 82.3574 61.1069 82.5755C61.3482 82.6767 61.5714 82.8143 61.7998 82.9362C62.0282 83.0582 62.2358 83.219 62.4434 83.3747C61.9555 83.1931 61.4806 83.0089 61.0005 82.8558C60.5237 82.6947 60.0386 82.5595 59.5471 82.451C59.0561 82.347 58.5583 82.2776 58.0575 82.2434C57.557 82.1982 57.0525 82.2262 56.5601 82.3264Z" fill="#B2B7DC"/>
<path d="M59.3394 73.8522C59.3416 73.9501 59.3694 74.0458 59.4199 74.1298L59.5419 74.3893C59.6197 74.5735 59.695 74.7577 59.7599 74.9497C60.0067 75.7204 60.1174 76.5282 60.0869 77.3369C60.0739 77.7403 60.0349 78.1424 59.9701 78.5408L59.7547 78.328C60.1839 78.2595 60.6177 78.2239 61.0523 78.2216C61.4873 78.2143 61.9219 78.2499 62.3499 78.328C62.7809 78.4011 63.1994 78.5347 63.593 78.725C63.9828 78.9214 64.3181 79.2111 64.5688 79.5683C64.2709 79.2713 63.9124 79.0421 63.5178 78.8963C63.129 78.7495 62.7222 78.6562 62.3084 78.6186C61.8939 78.5732 61.4766 78.5602 61.0601 78.5797C60.6446 78.5905 60.2303 78.6278 59.8196 78.6913L59.56 78.7302L59.599 78.4707L59.682 77.8921C59.6976 77.7001 59.7235 77.5055 59.7339 77.3135C59.7547 76.9246 59.7547 76.5348 59.7339 76.1459C59.71 75.7566 59.6562 75.3697 59.573 74.9886C59.5367 74.794 59.4874 74.6046 59.4355 74.4152L59.355 74.1272C59.3266 74.0383 59.3212 73.9437 59.3394 73.8522Z" fill="#B2B7DC"/>
<path d="M72.043 111.951C70.1159 113.606 68.0083 115.038 65.76 116.219C64.6331 116.823 63.4446 117.303 62.2149 117.652C62.0592 117.693 61.9087 117.742 61.7504 117.779L61.278 117.87L60.8031 117.96C60.6422 117.981 60.4813 117.989 60.3204 118.005C59.6664 118.075 59.0565 118.054 58.4259 118.127C55.9178 118.359 53.4521 118.927 51.0944 119.813C49.908 120.238 48.7544 120.75 47.6428 121.344C46.5244 121.927 45.479 122.64 44.5286 123.469C46.3452 121.679 48.6498 120.48 51.0166 119.543C53.3802 118.608 55.8626 118.006 58.3922 117.755C59.0228 117.688 59.6898 117.711 60.2893 117.649C60.445 117.636 60.5981 117.628 60.7512 117.613L61.2106 117.527L61.6699 117.444C61.823 117.41 61.971 117.364 62.1241 117.322C63.333 116.984 64.5063 116.529 65.6276 115.965C66.7596 115.407 67.8599 114.787 68.9235 114.107C69.9989 113.441 71.0401 112.722 72.043 111.951Z" fill="#B2B7DC"/>
<path d="M66.7487 112.636C66.8162 113.012 66.8162 113.397 66.7487 113.773C66.685 114.152 66.5679 114.521 66.401 114.868C66.3153 115.04 66.2209 115.208 66.1181 115.371C66.0078 115.529 65.8864 115.679 65.7548 115.82C65.4968 116.103 65.1889 116.336 64.8464 116.507C65.0886 116.229 65.3164 115.938 65.529 115.636C65.7343 115.342 65.9141 115.031 66.0662 114.707C66.3727 114.045 66.6017 113.35 66.7487 112.636Z" fill="#B2B7DC"/>
<path d="M63.0143 113.882C63.097 114.212 63.1577 114.547 63.1959 114.886C63.2289 115.232 63.214 115.581 63.1518 115.924C63.0892 116.275 62.953 116.609 62.7521 116.904C62.5503 117.196 62.2669 117.422 61.9373 117.553C62.1626 117.316 62.3523 117.048 62.5004 116.756C62.6353 116.469 62.7305 116.164 62.7833 115.851C62.8442 115.532 62.8849 115.21 62.9053 114.886C62.9154 114.549 62.9519 114.213 63.0143 113.882Z" fill="#B2B7DC"/>
<path d="M61.0213 114.94C60.9694 115.015 61.0057 115.114 61.0213 115.2C61.0368 115.285 61.042 115.386 61.0472 115.482C61.0556 115.678 61.0382 115.875 60.9953 116.066C60.9033 116.463 60.6967 116.824 60.401 117.104C60.1129 117.371 59.7752 117.579 59.407 117.716C59.0501 117.851 58.6746 117.931 58.2937 117.953C58.6337 117.781 58.9685 117.628 59.2851 117.452C59.5953 117.283 59.883 117.075 60.1415 116.834C60.3939 116.599 60.5907 116.311 60.7176 115.991C60.7817 115.823 60.8312 115.649 60.8656 115.472L60.9201 115.197C60.9304 115.106 60.933 114.997 61.0213 114.94Z" fill="#B2B7DC"/>
<path d="M56.7857 116.442C56.7112 116.69 56.5992 116.924 56.4535 117.138C56.3141 117.352 56.1532 117.551 55.9734 117.732C55.6194 118.106 55.1793 118.387 54.6914 118.552C54.8549 118.347 55.0288 118.173 55.1975 117.994L55.7165 117.475C56.0565 117.125 56.3913 116.777 56.7857 116.442Z" fill="#B2B7DC"/>
<path d="M40.5944 129.377C40.2369 129.215 39.8901 129.03 39.5563 128.824C39.2137 128.629 38.8659 128.445 38.5182 128.266C37.8201 127.903 37.109 127.566 36.3823 127.267C34.9353 126.659 33.4313 126.195 31.8926 125.884C31.1258 125.728 30.3514 125.612 29.5725 125.536C28.7939 125.472 28.0154 125.451 27.2368 125.461C26.4552 125.476 25.6752 125.538 24.9011 125.648C24.1226 125.736 23.344 125.907 22.5654 126.076C24.0753 125.568 25.6464 125.265 27.2368 125.173C28.8306 125.092 30.4284 125.208 31.9938 125.518C33.5528 125.848 35.0713 126.347 36.5225 127.005C37.2439 127.34 37.9498 127.706 38.6324 128.108C38.9749 128.31 39.3097 128.523 39.6393 128.738L40.1324 129.068C40.2755 129.186 40.4303 129.29 40.5944 129.377Z" fill="#B2B7DC"/>
<path d="M22.2227 129.377C22.4216 128.724 22.748 128.117 23.1829 127.591C23.6117 127.052 24.1306 126.591 24.7167 126.229C25.3011 125.864 25.9435 125.601 26.6163 125.451C26.9482 125.373 27.2858 125.322 27.6259 125.298C27.9659 125.282 28.3058 125.298 28.6406 125.298C28.3084 125.368 27.9762 125.394 27.6518 125.472C27.3281 125.541 27.0085 125.627 26.6942 125.731L26.2271 125.884L25.7781 126.081C25.627 126.143 25.4804 126.215 25.3395 126.297C25.1926 126.368 25.0505 126.449 24.9139 126.538C24.3563 126.88 23.8473 127.295 23.4009 127.773C22.9422 128.256 22.5463 128.795 22.2227 129.377Z" fill="#B2B7DC"/>
<path d="M25.773 130.318C25.7609 129.677 25.8592 129.038 26.0636 128.43C26.258 127.808 26.5728 127.23 26.9901 126.73C27.419 126.224 27.9794 125.846 28.6095 125.638C29.2241 125.436 29.8776 125.382 30.517 125.479C29.8967 125.526 29.2878 125.671 28.7133 125.91C28.1567 126.147 27.6634 126.512 27.273 126.974C26.8791 127.442 26.5588 127.967 26.3231 128.531C26.0832 129.108 25.899 129.706 25.773 130.318Z" fill="#B2B7DC"/>
<path d="M29.6865 130.754C29.7566 130.718 29.7436 130.625 29.7514 130.555C29.7592 130.484 29.7514 130.404 29.7514 130.326V129.867C29.7596 129.556 29.7934 129.246 29.8526 128.941C29.9638 128.308 30.2466 127.719 30.6701 127.236C31.1147 126.764 31.6953 126.443 32.331 126.317C32.9408 126.19 33.5696 126.185 34.1814 126.302C33.5799 126.33 32.9839 126.43 32.4063 126.6C31.8489 126.761 31.3444 127.067 30.9452 127.488C30.5614 127.926 30.2835 128.448 30.1329 129.011C30.0514 129.299 29.9847 129.592 29.9331 129.888L29.8448 130.337C29.831 130.413 29.8154 130.488 29.7981 130.562C29.7825 130.63 29.7696 130.734 29.6865 130.754Z" fill="#B2B7DC"/>
<path d="M31.9392 121.541C31.8665 121.917 31.8068 122.285 31.7601 122.654C31.7132 123.016 31.6933 123.381 31.7004 123.746C31.7104 124.105 31.7626 124.461 31.8561 124.807C31.9718 125.159 32.1341 125.493 32.3388 125.801C32.0124 125.579 31.7523 125.272 31.5862 124.914C31.427 124.548 31.339 124.155 31.3267 123.757C31.3221 123.365 31.3719 122.975 31.4746 122.597C31.5717 122.222 31.7285 121.866 31.9392 121.541Z" fill="#B2B7DC"/>
<path d="M35.4869 122.721C35.4246 122.996 35.2819 123.24 35.2274 123.5C35.1593 123.753 35.1295 124.016 35.1392 124.278C35.1709 124.795 35.3511 125.291 35.6582 125.708C35.805 125.926 35.9681 126.132 36.1461 126.325C36.3329 126.512 36.525 126.699 36.7248 126.878C36.9247 127.057 37.1349 127.231 37.3503 127.397C37.5657 127.563 37.7889 127.721 38.0017 127.9C37.7421 127.797 37.5034 127.667 37.2517 127.55C36.9999 127.433 36.7767 127.262 36.5432 127.109C36.3172 126.942 36.0998 126.763 35.8918 126.574C35.6908 126.372 35.5093 126.151 35.3494 125.915C35.0073 125.439 34.8354 124.861 34.8615 124.276C34.8786 123.987 34.949 123.705 35.0691 123.443C35.1938 123.194 35.3333 122.953 35.4869 122.721Z" fill="#B2B7DC"/>
<path d="M8.70947 125.308C9.78129 124.979 10.8479 124.644 11.912 124.296C12.976 123.949 14.0452 123.611 15.1041 123.259C17.2192 122.532 19.3472 121.824 21.3741 120.905C22.381 120.456 23.3698 119.896 24.4027 119.452C25.4298 118.991 26.4826 118.589 27.5559 118.248C29.6969 117.584 31.9418 117.086 34.1892 117.254C33.0711 117.253 31.9562 117.375 30.8648 117.618C29.7739 117.85 28.699 118.151 27.6467 118.521C26.6086 118.894 25.555 119.299 24.5325 119.761C23.51 120.223 22.5523 120.773 21.5168 121.245C20.4813 121.717 19.4407 122.096 18.3766 122.472C17.3126 122.849 16.2537 123.207 15.1819 123.531C13.0487 124.188 10.8998 124.797 8.70947 125.308Z" fill="#B2B7DC"/>
<path d="M11.1387 122.112C11.5642 122.675 12.1398 123.108 12.7996 123.36C12.8789 123.391 12.9604 123.416 13.0436 123.435C13.1282 123.46 13.2151 123.478 13.3031 123.487L13.5626 123.528L13.8221 123.541C13.995 123.55 14.1683 123.55 14.3412 123.541C14.5202 123.528 14.6993 123.497 14.8888 123.489C14.721 123.578 14.5476 123.655 14.3697 123.72C14.189 123.778 14.003 123.818 13.8143 123.84C13.4279 123.89 13.0351 123.849 12.6673 123.72C12.2996 123.59 11.9679 123.375 11.6992 123.092C11.4339 122.817 11.2412 122.48 11.1387 122.112Z" fill="#B2B7DC"/>
<path d="M14.0142 118.552C14.2571 119.009 14.5266 119.452 14.8213 119.878C15.1062 120.297 15.4322 120.688 15.7945 121.043C16.1562 121.387 16.5695 121.674 17.0194 121.891C17.4891 122.092 17.9892 122.212 18.4987 122.247C17.9717 122.357 17.425 122.327 16.913 122.161C16.3993 121.978 15.9298 121.689 15.535 121.313C15.1531 120.935 14.8295 120.503 14.5747 120.031C14.3156 119.568 14.1267 119.07 14.0142 118.552Z" fill="#B2B7DC"/>
<path d="M18.7971 115.718C18.9866 116.237 19.1994 116.723 19.4148 117.208C19.6301 117.69 19.8808 118.156 20.1648 118.601C20.4357 119.047 20.7696 119.45 21.1562 119.8C21.5549 120.149 22.0253 120.407 22.5342 120.555C21.9741 120.547 21.4302 120.365 20.9771 120.036C20.526 119.705 20.1435 119.289 19.8508 118.811C19.5555 118.346 19.3184 117.845 19.1449 117.322C18.9654 116.803 18.8486 116.265 18.7971 115.718Z" fill="#B2B7DC"/>
<path d="M23.157 114.572C23.4505 115.049 23.7989 115.491 24.1951 115.887C24.9741 116.672 25.9339 117.252 26.9901 117.579C27.5286 117.743 28.0786 117.866 28.6355 117.947C28.3498 117.971 28.0631 117.981 27.7765 117.976C27.4875 117.961 27.2002 117.923 26.9174 117.862C25.7634 117.622 24.7265 116.994 23.9797 116.082C23.6087 115.637 23.3291 115.124 23.157 114.572Z" fill="#B2B7DC"/>
<path d="M12.1975 126.956C12.6736 126.31 13.183 125.689 13.7235 125.095C14.2425 124.501 14.7823 123.915 15.3403 123.323C15.1843 123.7 14.9867 124.057 14.7512 124.39C14.0574 125.388 13.1929 126.257 12.1975 126.956Z" fill="#B2B7DC"/>
<path d="M17.489 125.14C17.8809 124.54 18.3169 124.001 18.7295 123.443C19.1593 122.898 19.5471 122.321 19.8896 121.717C19.8589 122.079 19.7575 122.432 19.5911 122.755C19.4331 123.077 19.2445 123.383 19.028 123.668C18.8121 123.952 18.5752 124.219 18.3195 124.468C18.067 124.72 17.7887 124.945 17.489 125.14Z" fill="#B2B7DC"/>
<path d="M22.908 123.669C23.1443 122.75 23.4985 121.865 23.9616 121.037C24.1929 120.619 24.4595 120.222 24.7583 119.849C25.047 119.46 25.443 119.165 25.8976 118.998C25.706 119.128 25.5368 119.288 25.3968 119.473C25.253 119.653 25.1187 119.841 24.9945 120.036C24.735 120.425 24.5144 120.814 24.2886 121.232C23.8344 122.034 23.4036 122.859 22.908 123.669Z" fill="#B2B7DC"/>
<path d="M72.043 123.323C69.8631 123.889 67.6727 124.403 65.4746 124.898C63.2764 125.394 61.0627 125.843 58.862 126.276C57.7564 126.484 56.6457 126.675 55.5297 126.849C54.9718 126.93 54.4164 127.021 53.848 127.073C53.2797 127.124 52.7373 127.171 52.1819 127.265C51.0771 127.445 49.9906 127.724 48.9353 128.098C47.8685 128.457 46.8279 128.891 45.821 129.395C47.776 128.251 49.907 127.439 52.1274 126.992C52.6802 126.878 53.2615 126.826 53.8091 126.761C54.3567 126.696 54.9173 126.608 55.4726 126.525C56.5782 126.34 57.6829 126.139 58.7867 125.921C61.0004 125.518 63.1986 125.062 65.4123 124.623L68.7212 123.967L72.043 123.323Z" fill="#B2B7DC"/>
<path d="M56.7858 132.062C56.4198 131.483 56.0331 130.926 55.6335 130.381C55.2385 129.837 54.8048 129.323 54.3359 128.842C53.8806 128.362 53.3492 127.961 52.7632 127.654C52.165 127.352 51.4814 127.266 50.8271 127.41C51.1494 127.267 51.4974 127.191 51.8499 127.187C52.2023 127.183 52.552 127.251 52.8774 127.386C53.5274 127.662 54.1139 128.068 54.6006 128.58C55.0848 129.077 55.5122 129.626 55.8748 130.217C56.2417 130.799 56.5469 131.417 56.7858 132.062Z" fill="#B2B7DC"/>
<path d="M61.4883 131.377C61.4537 131.012 61.3842 130.652 61.2807 130.3C61.2392 130.124 61.1691 129.955 61.1146 129.781C61.0601 129.607 60.9771 129.449 60.8992 129.288C60.4367 128.322 59.6184 127.572 58.6154 127.194C58.2853 127.058 57.9429 126.954 57.5929 126.883C57.2426 126.808 56.8792 126.79 56.5185 126.733C56.1526 126.72 55.7866 126.717 55.4155 126.691C55.7789 126.634 56.15 126.598 56.5211 126.548C56.8954 126.544 57.2697 126.561 57.6422 126.598C58.401 126.688 59.1281 126.954 59.7651 127.376C60.3921 127.827 60.8773 128.447 61.1639 129.164C61.4488 129.865 61.5601 130.624 61.4883 131.377Z" fill="#B2B7DC"/>
<path d="M66.7489 129.377C66.6109 128.844 66.4313 128.324 66.2117 127.82C66.0032 127.325 65.7234 126.864 65.3812 126.45C65.0381 126.051 64.5985 125.746 64.1044 125.565C63.5856 125.397 63.0392 125.331 62.4954 125.37C63.0414 125.186 63.6281 125.156 64.19 125.285C64.7633 125.436 65.2773 125.757 65.6641 126.206C66.0332 126.652 66.3118 127.166 66.4842 127.719C66.6612 128.253 66.7506 128.813 66.7489 129.377Z" fill="#B2B7DC"/>
<path d="M70.5716 126.956C70.3121 126.639 70.0681 126.307 69.793 126.009C69.5372 125.708 69.2511 125.434 68.9392 125.191C68.6357 124.949 68.2923 124.762 67.9245 124.639C67.5427 124.52 67.1434 124.466 66.7437 124.48C67.1405 124.318 67.5761 124.275 67.9971 124.356C68.424 124.442 68.8248 124.627 69.1676 124.896C69.829 125.428 70.3176 126.145 70.5716 126.956Z" fill="#B2B7DC"/>
<path d="M56.2953 123.668C56.1942 124.032 56.0459 124.381 55.8541 124.706C55.6704 125.033 55.4585 125.343 55.2208 125.633C54.9831 125.926 54.7133 126.193 54.4163 126.426C54.1218 126.666 53.7845 126.847 53.4224 126.961C53.7017 126.725 53.9685 126.475 54.2217 126.211C54.4812 125.952 54.7044 125.674 54.9328 125.396C55.3947 124.836 55.8281 124.255 56.2953 123.668Z" fill="#B2B7DC"/>
<path d="M62.2045 122.259C62.2913 122.616 62.3288 122.983 62.3161 123.349C62.2964 123.726 62.2039 124.095 62.0436 124.436C61.8825 124.781 61.6424 125.084 61.3429 125.319C61.0533 125.553 60.7143 125.718 60.3516 125.801C60.6304 125.592 60.8909 125.359 61.1301 125.106C61.3627 124.862 61.553 124.582 61.6933 124.276C61.8383 123.969 61.9464 123.645 62.0151 123.313C62.1059 122.976 62.1241 122.631 62.2045 122.259Z" fill="#B2B7DC"/>
<path d="M68.5551 120.555C68.4383 120.996 68.3345 121.437 68.1787 121.87C68.0307 122.308 67.8403 122.73 67.6104 123.131C67.3771 123.54 67.0781 123.907 66.7254 124.219C66.3735 124.538 65.9251 124.73 65.4512 124.766C65.8614 124.597 66.2278 124.337 66.523 124.006C66.8153 123.679 67.072 123.323 67.2886 122.942C67.5144 122.563 67.7116 122.164 67.9114 121.759C68.0992 121.344 68.3142 120.942 68.5551 120.555Z" fill="#B2B7DC"/>
<path d="M50.8271 119.758C51.9794 119.878 53.1083 120.054 54.2424 120.202C54.8082 120.277 55.374 120.35 55.9423 120.41C56.5107 120.469 57.079 120.521 57.6577 120.544C56.5124 120.746 55.3414 120.755 54.1931 120.57C53.0451 120.422 51.9165 120.15 50.8271 119.758Z" fill="#B2B7DC"/>
<path d="M56.2954 118.22C56.7715 118.308 57.2421 118.424 57.7046 118.567C58.1666 118.687 58.6285 118.796 59.093 118.874C59.5591 118.954 60.0297 119.006 60.5022 119.027C60.9808 119.042 61.4599 119.032 61.9374 118.995C61.4796 119.177 60.9962 119.285 60.5048 119.317C60.0122 119.352 59.5173 119.327 59.0308 119.242C58.5468 119.154 58.0724 119.02 57.6138 118.842C57.3854 118.754 57.1622 118.653 56.9442 118.547C56.7262 118.44 56.5186 118.303 56.2954 118.22Z" fill="#B2B7DC"/>
<path d="M59.1163 105.538C59.1716 104.967 59.1959 104.393 59.189 103.82C59.1832 103.248 59.1355 102.677 59.0463 102.113C58.9714 101.552 58.8149 101.006 58.5817 100.491C58.3621 99.9868 58.0129 99.55 57.5696 99.2246L57.009 98.838L57.6786 98.9366C59.0469 99.1463 60.402 99.4339 61.7375 99.7981C63.069 100.158 64.3784 100.596 65.6589 101.108C66.9402 101.631 68.1784 102.253 69.3622 102.969C70.5372 103.697 71.624 104.559 72.6011 105.538C71.5627 104.646 70.4427 103.853 69.2558 103.171C68.0557 102.512 66.8154 101.929 65.5421 101.425C64.2678 100.927 62.9469 100.517 61.6493 100.146C60.3321 99.7749 58.9952 99.4778 57.6449 99.2558L57.7539 98.9678C58.2365 99.3351 58.609 99.8278 58.8309 100.392C59.0545 100.934 59.197 101.506 59.2539 102.089C59.3234 102.665 59.3425 103.246 59.311 103.825C59.2864 104.4 59.2214 104.972 59.1163 105.538Z" fill="#B2B7DC"/>
<path d="M65.1399 104.915C65.0231 104.448 64.8804 103.994 64.7584 103.542C64.6259 103.095 64.4647 102.656 64.2757 102.229C63.9098 101.383 63.3855 100.602 62.5032 100.19C62.9966 100.262 63.4526 100.494 63.8008 100.851C64.1499 101.205 64.4283 101.621 64.6209 102.079C64.8153 102.526 64.9572 102.995 65.0439 103.475C65.134 103.949 65.1663 104.433 65.1399 104.915Z" fill="#B2B7DC"/>
<path d="M69.6866 105.786C69.8128 105.177 69.7733 104.546 69.5724 103.957C69.4648 103.677 69.3055 103.42 69.1027 103.2C68.9986 103.082 68.8876 102.972 68.7705 102.867C68.6537 102.761 68.511 102.67 68.3994 102.553C68.5608 102.595 68.7188 102.648 68.8717 102.714C69.0216 102.79 69.1626 102.883 69.2922 102.989C69.569 103.207 69.7823 103.494 69.9098 103.822C70.0303 104.145 70.0719 104.491 70.0313 104.833C69.9907 105.174 69.8689 105.501 69.6763 105.786H69.6866Z" fill="#B2B7DC"/>
<path d="M65.7963 97.0202C65.7425 97.0612 65.7018 97.1172 65.6795 97.1811L65.5835 97.3679C65.5205 97.4946 65.4503 97.6176 65.3733 97.7363C65.2154 97.9745 65.0279 98.1916 64.8153 98.3824C64.3814 98.7603 63.8781 99.0503 63.3335 99.2361C62.2605 99.5905 61.1206 99.6944 60.0012 99.5397C61.0897 99.4273 62.1643 99.2065 63.2089 98.8806C63.7165 98.7106 64.1958 98.4657 64.6311 98.1541C64.8483 97.9964 65.0491 97.8173 65.2306 97.6196C65.3231 97.5218 65.4097 97.4187 65.4901 97.3108C65.5913 97.2044 65.6588 97.0747 65.7963 97.0202Z" fill="#B2B7DC"/>
<path d="M70.9219 100.19C70.9714 100.407 70.9458 100.635 70.8492 100.836C70.7502 101.037 70.6085 101.214 70.434 101.355C70.0834 101.618 69.6765 101.795 69.2454 101.874C68.4151 102.019 67.5633 101.981 66.7488 101.765C67.1666 101.71 67.5767 101.703 67.9815 101.664C68.3811 101.633 68.7787 101.581 69.1727 101.508C69.555 101.442 69.9235 101.312 70.2627 101.124C70.4366 101.029 70.5865 100.895 70.7007 100.733C70.815 100.571 70.8906 100.385 70.9219 100.19Z" fill="#B2B7DC"/>
<path d="M15.6829 101.796C17.759 102.19 19.8196 102.662 21.875 103.158C23.9304 103.654 25.9651 104.214 27.9997 104.793C30.0344 105.371 32.0457 106.02 34.0336 106.747C36.0331 107.439 37.9766 108.284 39.8469 109.274L38.4091 108.641L36.935 108.067C35.9463 107.701 34.9575 107.338 33.9531 107.029C31.9514 106.36 29.9366 105.737 27.9089 105.161C25.8742 104.544 23.8396 103.991 21.7998 103.431L15.6829 101.796Z" fill="#B2B7DC"/>
<path d="M31.563 112.636C31.8366 112.049 32.1734 111.493 32.5673 110.978C32.9547 110.455 33.3966 109.974 33.8857 109.543C34.3768 109.105 34.9338 108.747 35.5363 108.482C36.1398 108.218 36.8015 108.115 37.4567 108.184C36.8288 108.259 36.2201 108.449 35.6608 108.744C35.5259 108.825 35.4013 108.9 35.2534 108.975L34.8667 109.235C34.7369 109.318 34.6072 109.421 34.493 109.517C34.3675 109.612 34.2471 109.714 34.1322 109.821C33.6551 110.235 33.2068 110.682 32.7905 111.157C32.3701 111.64 31.9575 112.125 31.563 112.636Z" fill="#B2B7DC"/>
<path d="M35.3467 103.111C35.381 103.935 35.4598 104.756 35.5829 105.571C35.6464 105.969 35.748 106.36 35.8865 106.739C36.0302 107.122 36.2353 107.48 36.4938 107.797C36.1216 107.572 35.8196 107.248 35.6218 106.861C35.4211 106.477 35.2844 106.064 35.217 105.636C35.1454 105.215 35.1202 104.788 35.1417 104.362C35.1578 103.938 35.2267 103.518 35.3467 103.111Z" fill="#B2B7DC"/>
<path d="M32.339 106.321C31.8099 106.347 31.2864 106.442 30.7818 106.604C30.2859 106.766 29.8131 106.992 29.3752 107.276C28.9311 107.559 28.5109 107.878 28.1192 108.231C27.9219 108.404 27.7247 108.586 27.53 108.77L27.2316 109.045C27.1278 109.128 27.037 109.255 26.8994 109.274C26.9643 109.274 26.9954 109.191 27.037 109.141L27.1563 108.98L27.3925 108.648C27.5547 108.43 27.728 108.221 27.9115 108.02C28.2832 107.614 28.7064 107.257 29.1702 106.959C29.6394 106.659 30.1577 106.444 30.7014 106.323C31.2405 106.203 31.7994 106.202 32.339 106.321Z" fill="#B2B7DC"/>
<path d="M20.9148 106.97C21.0969 106.499 21.3537 106.061 21.6752 105.672C21.9956 105.268 22.3785 104.918 22.8093 104.634C23.2516 104.355 23.7508 104.177 24.2704 104.115C24.7835 104.065 25.3009 104.147 25.773 104.354C25.2882 104.293 24.7967 104.31 24.3171 104.403C23.857 104.511 23.4183 104.695 23.0195 104.948C22.6154 105.211 22.2404 105.517 21.901 105.859C21.5481 106.207 21.2186 106.578 20.9148 106.97Z" fill="#B2B7DC"/>
<path d="M21.4495 98.6279C21.6514 99.2951 21.9421 99.9322 22.3137 100.522C22.6772 101.108 23.0989 101.655 23.5723 102.157C23.8319 102.395 24.0551 102.65 24.3275 102.865C24.6 103.08 24.8622 103.304 25.1347 103.516C25.4072 103.729 25.7108 103.905 25.9963 104.11C26.2817 104.315 26.5984 104.469 26.8942 104.666C26.562 104.544 26.2324 104.406 25.9054 104.271C25.5784 104.136 25.267 103.957 24.9712 103.752C24.3629 103.373 23.8026 102.922 23.3024 102.408C22.81 101.887 22.3917 101.3 22.0593 100.665C21.7207 100.034 21.5133 99.341 21.4495 98.6279Z" fill="#B2B7DC"/>
<path d="M28.1504 101.645C29.0224 102.45 29.8295 103.301 30.6522 104.139C31.057 104.562 31.4697 104.977 31.8823 105.392C32.2949 105.807 32.7102 106.22 33.1799 106.596C32.6473 106.329 32.1496 105.997 31.698 105.607C31.2434 105.229 30.8102 104.825 30.4004 104.398C29.5653 103.554 28.8119 102.632 28.1504 101.645Z" fill="#B2B7DC"/>
<path d="M17.4892 104.121C17.4637 103.846 17.5353 103.57 17.6916 103.342C17.8491 103.109 18.0671 102.922 18.3222 102.803C18.5733 102.693 18.8448 102.637 19.119 102.639C19.2511 102.644 19.3828 102.657 19.5134 102.678C19.6414 102.708 19.7671 102.747 19.8898 102.795C19.7648 102.824 19.6383 102.847 19.5109 102.862L19.1475 102.93C18.918 102.976 18.6944 103.047 18.4806 103.142C18.0465 103.344 17.6961 103.689 17.4892 104.121Z" fill="#B2B7DC"/>
<g opacity="0.6">
<path opacity="0.6" d="M32.3363 119.569C32.3299 119.581 32.3247 119.594 32.3207 119.608C32.3118 119.619 32.3047 119.631 32.3 119.644C31.877 120.511 27.9686 128.02 18.3196 130.329C17.2114 129.712 16.4718 128.964 16.2434 128.017C18.6388 127.057 29.9072 122.693 32.2662 119.644L32.2896 119.616L32.3363 119.569Z" fill="#3B4179"/>
</g>
<g opacity="0.6">
<path opacity="0.6" d="M68.651 118.004C68.023 119.32 66.0999 123.575 62.573 126.084C58.4622 129.011 52.296 128.951 50.1783 128.139C48.0606 127.327 47.3236 126.842 46.5684 127.457C46.3953 127.599 46.182 127.683 45.9585 127.698C46.0328 127.463 46.1293 127.235 46.2466 127.018C47.2224 125.311 49.3063 124.655 50.5858 123.298L50.6143 123.282C51.2994 123.022 62.3395 123.541 67.0108 117.68C67.5637 117.754 68.1115 117.862 68.651 118.004Z" fill="#3B4179"/>
</g>
<g opacity="0.6">
<path opacity="0.6" d="M63.8007 93.4366C59.3889 104.666 49.008 104.482 47.8454 104.295C46.6827 104.108 46.6672 104.604 46.2286 104.814C45.79 105.024 44.36 107.149 43.5503 108.259C42.8185 109.258 42.4915 111.285 42.437 111.632C42.4785 111.127 42.8029 107.32 42.8029 106.272C42.8029 105.151 42.1826 104.342 41.9958 105.089C41.8089 105.836 40.6229 110.447 40.6229 110.447C40.6229 110.447 40.2233 105.719 40.1376 104.438C40.4257 105.242 40.6203 105.898 40.6203 105.898C40.6203 105.898 40.8798 104.715 40.6203 103.968C40.4335 103.449 40.1817 102.977 39.9637 102.484C39.8495 102.156 39.6849 101.848 39.4758 101.571C39.4826 101.525 39.4997 101.482 39.5258 101.444C39.5519 101.406 39.5863 101.375 39.6264 101.353C40.0208 101.171 40.3635 100.894 40.6229 100.546C40.9966 100.11 41.8089 99.2485 41.8089 99.2485C44.4249 94.4536 41.578 85.7825 41.578 85.7825L41.1887 83.891C41.3262 84.3918 41.4482 84.9081 41.539 85.427C41.539 85.427 41.674 85.1676 41.8972 84.7239L42.1178 84.9834C44.5469 87.8374 44.9206 97.2454 43.7995 99.7388C42.7614 102.019 43.8851 103.724 44.7052 103.662C44.4218 103.814 44.1246 103.939 43.8176 104.035C42.8833 104.295 43.3219 106.526 43.3219 106.526C43.8825 106.267 45.873 104.222 45.9379 103.485C45.9508 103.415 45.937 103.343 45.899 103.283C46.5844 103.14 47.2777 103.038 47.9751 102.977C55.8231 102.663 62.4227 93.1382 62.4227 93.1382H62.9781C62.8249 93.4729 62.7575 93.6182 62.7315 93.6727C62.8665 93.4573 63.2713 93.3976 63.8007 93.4366Z" fill="#3B4179"/>
</g>
<g opacity="0.6">
<path opacity="0.6" d="M40.1375 104.451C40.2049 104.638 40.2698 104.815 40.3243 104.97C37.9627 106.091 26.0662 108.045 19.8221 97.687C19.708 97.4924 19.5912 97.303 19.4822 97.1188C20.6967 96.5013 21.8179 95.9434 21.9943 95.9434C21.9943 95.9434 21.5739 95.4011 20.9848 94.4748C21.8516 95.274 22.5419 95.9616 22.5419 95.9616C22.6354 96.1484 29.7359 102.124 33.1823 102.448C36.3381 102.742 37.7395 101.823 38.7386 101.67C39.1876 102.005 39.7482 103.362 40.1375 104.451Z" fill="#3B4179"/>
</g>
<g opacity="0.6">
<path opacity="0.6" d="M32.7956 114.567C32.7956 114.567 27.831 111.038 22.1241 112.382C16.4172 113.726 15.0703 115.067 15.0703 115.067C15.0703 115.067 24.971 110.833 32.7956 114.567Z" fill="#3B4179"/>
</g>
<g opacity="0.6">
<path opacity="0.6" d="M40.5423 130.879L40.2257 151.171C40.2257 151.171 37.0492 148.618 35.9929 147.811C35.578 147.474 35.2325 147.06 34.9756 146.592C35.1624 147.302 35.5336 147.949 35.8502 148.742C35.8917 148.844 35.9254 148.934 35.9592 149.02L36.0526 148.989C38.108 149.736 40.3503 153.537 40.3503 153.537L39.9221 165.441H43.1583C43.0675 165.14 42.9818 163.508 42.8988 161.57C42.444 160.922 42.0422 160.238 41.6972 159.526C40.2231 156.166 41.4973 154.111 41.6764 151.589C41.8555 149.067 41.0302 144.21 40.6565 140.287C40.2828 136.364 41.1236 134.872 41.5908 132.817C42.0164 130.938 40.724 126.712 40.6435 125.552C40.6072 126.74 40.5501 127.802 40.6072 128.406C40.8206 129.22 40.7981 130.077 40.5423 130.879Z" fill="#3B4179"/>
</g>
<path d="M60.6086 165.934L59.5705 178.575C59.3745 181.072 58.6631 183.502 57.4814 185.71L56.4926 187.553C56.3084 187.892 56.1345 188.232 55.9606 188.59C55.7867 188.948 55.6258 189.286 55.4675 189.628C55.1509 190.334 54.8551 191.053 54.5852 191.782L51.7304 199.566C51.5448 200.092 51.1765 200.535 50.6923 200.814C50.4328 200.959 50.1136 201.122 49.7321 201.299L49.5401 201.387L49.2805 201.496C49.1741 201.537 49.0703 201.582 48.9613 201.628L48.5461 201.789L48.1802 201.919L48.1438 201.934L47.7546 202.062L47.303 202.199L46.8255 202.334L46.4128 202.438C46.3116 202.464 46.2078 202.487 46.1066 202.508C45.8341 202.567 45.5512 202.63 45.258 202.682L44.7182 202.77C44.7079 202.767 44.6973 202.767 44.687 202.77C44.4976 202.798 44.2977 202.824 44.0979 202.848C42.9788 202.983 41.8506 203.029 40.7241 202.985C35.7102 203.172 32.2326 201.618 30.7793 200.808C30.2907 200.533 29.9176 200.091 29.7282 199.563L26.8735 191.779C26.3406 190.326 25.7049 188.913 24.9712 187.55L23.9824 185.708C22.8021 183.5 22.0891 181.073 21.8881 178.578L20.8708 165.934C20.8554 165.736 20.8812 165.537 20.9464 165.349C21.0116 165.161 21.115 164.988 21.2499 164.842C21.3849 164.696 21.5486 164.58 21.7307 164.5C21.9129 164.42 22.1096 164.378 22.3085 164.378H59.1709C59.3697 164.378 59.5662 164.42 59.7482 164.5C59.9302 164.58 60.0937 164.697 60.2286 164.843C60.3634 164.989 60.4668 165.161 60.5322 165.349C60.5976 165.537 60.6236 165.736 60.6086 165.934Z" fill="#F4605A"/>
<g opacity="0.8">
<path opacity="0.8" d="M60.6086 165.934L59.5705 178.575C59.3745 181.072 58.6631 183.502 57.4814 185.71L56.4926 187.552C56.3084 187.892 56.1345 188.232 55.9606 188.59C55.7867 188.948 55.6284 189.286 55.4675 189.628C55.1509 190.334 54.855 191.053 54.5851 191.782L51.7304 199.565C51.5448 200.092 51.1765 200.535 50.6923 200.813C50.4328 200.959 50.1136 201.122 49.7321 201.299L49.5401 201.387L49.2805 201.496C49.1741 201.537 49.0703 201.581 48.9613 201.628L48.5461 201.789L48.1802 201.919L48.1438 201.934L47.7546 202.061L47.303 202.199L46.8255 202.334L46.4128 202.438C46.3116 202.464 46.2078 202.487 46.1066 202.508C45.8341 202.567 45.5512 202.63 45.258 202.682L44.7182 202.77C44.7079 202.767 44.6973 202.767 44.687 202.77C44.4976 202.798 44.2977 202.824 44.0979 202.848C44.401 202.561 44.6292 202.205 44.7623 201.81L47.617 193.533C48.1465 191.992 48.7821 190.49 49.5193 189.037L50.5081 187.075C51.6941 184.707 52.4047 182.13 52.5998 179.488L53.7521 164.372H59.1709C59.3702 164.373 59.5672 164.415 59.7495 164.496C59.9319 164.576 60.0956 164.693 60.2306 164.84C60.3656 164.986 60.4688 165.159 60.5338 165.348C60.5989 165.536 60.6243 165.736 60.6086 165.934Z" fill="#CC4242"/>
</g>
</svg>
