<?xml version="1.0" encoding="utf-8"?>
<!-- Generator: Adobe Illustrator 25.4.1, SVG Export Plug-In . SVG Version: 6.00 Build 0)  -->
<svg version="1.1" id="Слой_1" xmlns="http://www.w3.org/2000/svg" xmlns:xlink="http://www.w3.org/1999/xlink" x="0px" y="0px"
	 viewBox="0 0 100 100" style="enable-background:new 0 0 100 100;" xml:space="preserve">
<g>
	<path d="M73.2,37.6V10.4c0-0.1,0-0.2,0-0.2c0-4.7-3.7-8.5-8.3-8.6C60,1.3,55.1,1.1,50,1.1c-4.9,0-9.5,0.1-14.1,0.3
		c-5,0.4-8.9,4.4-8.9,9.4l0,0v26.8c8-0.9,16.2-1.4,24.3-1.3C58.6,36.3,66,36.8,73.2,37.6z"/>
	<path d="M92.6,16.9V8.3c0-0.8-0.5-1.4-1.2-1.7L80.8,6.4c-0.8,0-1.4,0.5-1.7,1.2l-0.2,39.8c0,1.6-1.3,2.9-2.9,2.9s-2.9-1.3-2.9-2.9
		V44c-7.2-0.9-14.6-1.3-21.9-1.3c-8,0-16.2,0.4-24.2,1.4h-0.1v3.5c0,1.6-1.3,2.9-2.9,2.9s-2.9-1.3-2.9-2.9V8.3
		c0-0.8-0.5-1.4-1.2-1.7L9.5,6.4C8.7,6.5,8,7,7.7,7.7L7.6,51.8c0,0.3-0.1,0.6-0.2,0.9v4.2c0,2.3,1.9,4.2,4.2,4.2h29.1
		c0.1,0,0.1,0.1,0.2,0.1c0.7,0.1,3.3,0.5,4.9,2.7c1.1,1.5,1.3,3.1,1.4,4c0,0.1,0,0.1,0,0.2v12.7c0,0.1,0,0.1,0,0.2
		c0,0.9-0.2,2.5-1.4,4c-1.1,1.5-2.6,2.1-3.7,2.5c-6.6,1.4-13.2,2.8-19.8,4.3c0,0,0,0.1,0.1,0.1c-1.5,0.4-2.7,1.8-2.7,3.4
		c0,2,1.6,3.6,3.6,3.6c17.8,0,35.6,0,53.4,0c2,0,3.6-1.6,3.6-3.6c0-1.7-1.2-3.1-2.8-3.5v-0.1c-6.5-1.4-13-2.8-19.5-4.2
		c-1.1-0.3-2.6-1-3.8-2.5c-1.1-1.5-1.3-3.2-1.4-4c0-0.1,0-0.1,0-0.2V68c0-0.1,0-0.1,0-0.2c0-0.8,0.2-2.5,1.4-4
		c1.7-2.2,4.2-2.7,4.9-2.7c0.1,0,0.1,0,0.2-0.1h29.1c2.3,0,4.2-1.9,4.2-4.2V38.5v-2v-14v-2.4V16.9L92.6,16.9z"/>
</g>
</svg>
