<?xml version="1.0" encoding="utf-8"?>
<!-- Generator: Adobe Illustrator 25.4.1, SVG Export Plug-In . SVG Version: 6.00 Build 0)  -->
<svg version="1.1" id="Слой_1" xmlns="http://www.w3.org/2000/svg" xmlns:xlink="http://www.w3.org/1999/xlink" x="0px" y="0px"
	 viewBox="0 0 100 100" style="enable-background:new 0 0 100 100;" xml:space="preserve">
<path d="M69.5,50.4c0.5-0.1,0.9-0.1,1.4-0.2c3-0.3,6-0.5,9-0.5c1.5,0,2.6-1.2,2.6-2.7s-1.2-2.6-2.7-2.6l0,0c-3.1,0-6.3,0.2-9.5,0.5
	c-1,0.1-1.9,0.2-2.8,0.3c-0.2,0-0.3-0.1-0.5,0c-4.7,0.6-9.4,0.7-14,0.1c-6.2-0.7-13.2-1.6-18.7-6.1c-8.4-6.9-8.9-19-8.8-22.6
	c0-0.1,0-0.2-0.1-0.3c-0.1-1.7-0.2-3.7-0.6-6c-0.5-2.8-1.3-5.5-2.3-8.2c-0.5-1.4-2.1-2-3.4-1.5c-1.4,0.5-2,2.1-1.5,3.4
	c0.9,2.3,1.6,4.7,2,7.1c0.7,3.9,0.6,6.8,0.5,8.7v0.9c-0.2,9.2,4.7,21.3,14.1,27.6c-0.3,0.3-0.6,0.7-0.7,1.1L20.4,96.1
	c-0.4,1.4,0.4,2.9,1.8,3.3c0.2,0.1,0.5,0.1,0.7,0.1c1.2,0,2.2-0.8,2.6-1.9l5.1-18.1l18.5-10.2l23.7,13c0.1,0,0.1,0,0.2,0.1l4.3,15.2
	c0.3,1.2,1.4,1.9,2.6,1.9c0.2,0,0.5,0,0.7-0.1c1.4-0.4,2.2-1.9,1.8-3.3L69.5,50.4z M32.7,72.3l2.9-10.4l8,4.4L32.7,72.3z M37.1,56.7
	C37.1,56.6,37.1,56.6,37.1,56.7l1.5-5.6c0-0.1,0-0.1,0-0.2c4,1.6,7.7,1.9,9.9,2.1c0.9,0,1.7,0,2.5,0c3.5,0,6.4-0.6,9.7-1.2
	c1.1-0.2,2.3-0.4,3.6-0.7l0.9,3.3l-16,8.8L37.1,56.7z M54.7,66.3l12-6.6L71,75.3L54.7,66.3z"/>
</svg>
