<?xml version="1.0" encoding="utf-8"?>
<!-- Generator: Adobe Illustrator 25.4.1, SVG Export Plug-In . SVG Version: 6.00 Build 0)  -->
<svg version="1.1" id="Слой_1" xmlns="http://www.w3.org/2000/svg" xmlns:xlink="http://www.w3.org/1999/xlink" x="0px" y="0px"
	 viewBox="0 0 100 100" style="enable-background:new 0 0 100 100;" xml:space="preserve">
<g>
	<path d="M92.5,4.5H92H68H38.8c-2.3,0-4.2,1.9-4.2,4.2v28.5c0,2.3,1.9,4.2,4.2,4.2h17.4c0.8,0,2.9,0.2,4.8,2c2.1,2,2.1,4.6,2.1,5.1
		l0,0v26.2c0,0.6,0,2.9-2,4.9c-1.6,1.7-3.6,2-4.5,2.1H9.5c-3.4,0-6.1,2.8-6.1,6.1v1.5c0,3.4,2.8,6.1,6.1,6.1h58.2h0.1h24
		c2.6,0,4.7-2.1,4.7-4.7V37.2v-28V8.7C96.7,6.4,94.8,4.5,92.5,4.5z M89.2,21.3c-2,3.5-6.6,4.8-10.1,2.7c-3.5-2-4.8-6.6-2.7-10.1
		c2-3.5,6.6-4.8,10.1-2.7C90,13.2,91.2,17.8,89.2,21.3z"/>
	<path d="M19.6,33.1h0.1l0,0h2.7c0.3,1.1,0.7,2.2,1,3.4c0.1,0,0.2,0,0.4,0c1.1,0,2.3,0,3.4,0c0.1,0,0.2,0,0.4,0
		c0.3-1.1,0.7-2.2,1-3.4h2.7V10.2H19.9l0,0h-0.3c-3.1,0-5.7,2.5-5.7,5.7v11.5C13.9,30.5,16.5,33.1,19.6,33.1z"/>
	<path d="M19.8,75.9h13.3c3.3,0,6-2.2,6.9-5.2c0.1,0,0.3,0,0.4,0c6.2,0,11.2-4.9,11.2-10.9s-5-10.9-11.2-10.9c0,0,0,0-0.1,0l0,0
		H12.6v19.8C12.6,72.6,15.8,75.9,19.8,75.9z M40.3,53.5C40.3,53.5,40.4,53.5,40.3,53.5c3.7,0,6.6,2.8,6.6,6.3s-2.9,6.3-6.6,6.3
		c0,0,0,0-0.1,0L40.3,53.5L40.3,53.5z"/>
</g>
</svg>
