<?xml version="1.0" encoding="utf-8"?>
<!-- Generator: Adobe Illustrator 25.4.1, SVG Export Plug-In . SVG Version: 6.00 Build 0)  -->
<svg version="1.1" id="Слой_1" xmlns="http://www.w3.org/2000/svg" xmlns:xlink="http://www.w3.org/1999/xlink" x="0px" y="0px"
	 viewBox="0 0 100 100" style="enable-background:new 0 0 100 100;" xml:space="preserve">
<g>
	<path d="M76.6,40.4H23.4c-1.7,0-3.2,1.4-3.2,3.2v46.8c0,1.7,1.4,3.2,3.2,3.2H27v3.2c0,1.4,1.1,2.5,2.4,2.5h3.4
		c1.3,0,2.4-1.1,2.4-2.4v-3.3h29.7v3.2c0,1.4,1.1,2.5,2.4,2.5h3.4c1.3,0,2.4-1.1,2.4-2.4v-3.3h3.6c1.7,0,3.2-1.4,3.2-3.2V43.6
		C79.7,41.8,78.3,40.4,76.6,40.4z M73.7,49.4c-1.2,0-2.2-1-2.2-2.2s1-2.2,2.2-2.2s2.2,1,2.2,2.2S74.9,49.4,73.7,49.4z"/>
	<path d="M77.1,0.8H22.9c-1.4,0-2.6,1.2-2.6,2.6V34c0,1.4,1.2,2.6,2.6,2.6h54.3c1.4,0,2.6-1.2,2.6-2.6V3.4C79.7,2,78.6,0.8,77.1,0.8
		z M73.7,20.9c-1.2,0-2.2-1-2.2-2.2s1-2.2,2.2-2.2s2.2,1,2.2,2.2S74.9,20.9,73.7,20.9z"/>
</g>
</svg>
