<?xml version="1.0" encoding="utf-8"?>
<!-- Generator: Adobe Illustrator 25.4.1, SVG Export Plug-In . SVG Version: 6.00 Build 0)  -->
<svg version="1.1" id="Слой_1" xmlns="http://www.w3.org/2000/svg" xmlns:xlink="http://www.w3.org/1999/xlink" x="0px" y="0px"
	 viewBox="0 0 100 100" style="enable-background:new 0 0 100 100;" xml:space="preserve">
<path d="M95,17.1H5c-2.4,0-4.4,2.1-4.4,4.7v56.4c0,2.6,2,4.7,4.4,4.7h90c2.4,0,4.4-2.1,4.4-4.7V21.8C99.3,19.2,97.4,17.1,95,17.1z
	 M73.7,71.4c0,1.8-1.3,3.3-3,3.3h-58c-1.6,0-3-1.5-3-3.3V28.6c0-1.8,1.3-3.3,3-3.3h58c1.6,0,3,1.5,3,3.3V71.4z M88.8,59.6
	c-0.9,1.6-2.9,2.1-4.5,1.2c-1.6-0.9-2.1-2.9-1.2-4.5s2.9-2.1,4.5-1.2C89.2,56,89.7,58,88.8,59.6z M83.1,47.1
	c0.9-1.6,2.9-2.1,4.5-1.2c1.6,0.9,2.1,2.9,1.2,4.5s-2.9,2.1-4.5,1.2C82.7,50.6,82.2,48.6,83.1,47.1z M88.8,41.1
	c-0.9,1.6-2.9,2.1-4.5,1.2c-1.6-0.9-2.1-2.9-1.2-4.5s2.9-2.1,4.5-1.2C89.2,37.5,89.7,39.5,88.8,41.1z"/>
</svg>
