<?xml version="1.0" encoding="utf-8"?>
<!-- Generator: Adobe Illustrator 25.4.1, SVG Export Plug-In . SVG Version: 6.00 Build 0)  -->
<svg version="1.1" id="Слой_1" xmlns="http://www.w3.org/2000/svg" xmlns:xlink="http://www.w3.org/1999/xlink" x="0px" y="0px"
	 viewBox="0 0 100 100" style="enable-background:new 0 0 100 100;" xml:space="preserve">
<g>
	<path d="M99,52.5c-0.2-0.8-0.5-1.5-0.9-2.3c-0.4-0.7-0.9-1.5-1.4-2.2s-1.2-1.3-1.9-1.9c-0.7-0.6-1.4-1.2-2.2-1.7
		c-0.8-0.5-1.6-0.9-2.4-1.3c-0.8-0.4-1.7-0.6-2.6-0.8S85.8,42,85,42c-7.4,0-14-0.1-20.1-0.1c-6,0-11.4,0-16.3-0.1
		c-4.8,0-9.1,0-12.9,0c-3.8,0-7,0-9.8,0s-5.1,0-7.1,0s-3.5,0-4.8,0s-2.2,0-2.8,0c-0.7,0-1.1,0-1.3,0c0,0,0,0-0.1,0c0,0,0,0-0.1,0
		c0,0,0,0-0.1,0c0,0,0,0-0.1,0l0,0l0,0l0,0l0,0c-0.1,0-0.3,0-0.5,0.1c-0.2,0-0.4,0.1-0.6,0.1c-0.2,0.1-0.4,0.1-0.7,0.2
		c-0.2,0.1-0.5,0.2-0.8,0.3s-0.5,0.2-0.8,0.4s-0.5,0.3-0.8,0.5s-0.5,0.4-0.8,0.7c-0.3,0.2-0.5,0.5-0.7,0.8s-0.4,0.5-0.5,0.8
		C3.1,46,3,46.2,2.9,46.5c-0.1,0.3-0.2,0.5-0.3,0.7s-0.2,0.5-0.2,0.7c-0.1,0.2-0.1,0.4-0.1,0.7c0,0.2-0.1,0.4-0.1,0.6
		c0,0.2,0,0.3,0,0.5c0,0.1,0,0.3,0,0.4l0,0l0,0l0,0l0,0l0,0l0,0l0,0l0,0V52v1.8v1.8v1.8v1.8V61v1.8v1.8l0,0l0,0l0,0l0,0l0,0l0,0l0,0
		l0,0v0.8v0.8V67v0.8v0.8V69v0.8v0.8l0,0l0,0l0,0l0,0l0,0l0,0l0,0l0,0v1.2c0,1.1,0,2.2,0,3.3c0,0.3-0.3,2.6,1.5,4.3
		C5,80.6,6.6,80.7,7,80.7c2,0,3.9,0,5.9,0c1.2,0,2.4,0,3.6,0h3.6h3.6h3.6c1,0,2.5-0.1,3.4-1c0.7-0.7,0.6-1.4,1.3-2.5
		c0.7-1.2,1.6-1.9,3.1-3c1.3-0.9,3-1.8,4.8-2.6s3.9-1.6,6.1-2.3c2.2-0.7,4.5-1.4,7-2.1c2.4-0.7,5-1.3,7.5-1.9
		c1.8-0.4,3.8-0.8,7.7-1.7c5.9-1.3,7.8-1.6,9-1.8c0.2,0,1.2-0.2,2.6-0.4v0.1c0.2,0.9,0.8,3.3,2.8,4.4c0.5,0.3,1.8,0.9,6.6-0.3
		c1.3-0.3,9.8-2.5,9.9-5.4c0-0.2,0-1.2-0.5-2.2c-0.3-0.6-0.6-1-0.8-1.3c0,0,0,0-0.1,0c0.1,0,0.1-0.1,0.2-0.1
		c0.1-0.1,0.2-0.2,0.3-0.2c0.1-0.1,0.2-0.1,0.3-0.2c0.1-0.1,0.2-0.1,0.3-0.2c0.1-0.1,0.1-0.1,0.2-0.2c0.1-0.1,0.1-0.1,0.2-0.2
		c0-0.1,0.1-0.2,0.1-0.2c0-0.1,0-0.2,0-0.3C99.3,54.1,99.2,53.3,99,52.5z"/>
	<path d="M13,38.8L13,38.8h20.9c0.2,0,2-0.1,3-1.6c0.7-1.1,0.7-2.2,0.6-2.5c0-1.1,0-2.2,0-3.4c0-15.2,20.6-15.6,41.4-15.6l0,0h1
		c0.9,0,1.7-0.7,1.7-1.7v-3.3c0-0.9-0.7-1.7-1.7-1.7h-1l0,0C23.2,9.1,9.1,9.4,9.1,31.3v3.6l0,0C9.2,37,10.9,38.7,13,38.8z"/>
	<path d="M30.7,83.6H4.2c-1.9,0-3.5,1.6-3.5,3.5v0.3c0,1.9,1.6,3.5,3.5,3.5h26.5c1.9,0,3.5-1.6,3.5-3.5v-0.3
		C34.2,85.2,32.6,83.6,30.7,83.6z"/>
</g>
</svg>
