<?xml version="1.0" encoding="utf-8"?>
<!-- Generator: Adobe Illustrator 25.4.1, SVG Export Plug-In . SVG Version: 6.00 Build 0)  -->
<svg version="1.1" id="Слой_1" xmlns="http://www.w3.org/2000/svg" xmlns:xlink="http://www.w3.org/1999/xlink" x="0px" y="0px"
	 viewBox="0 0 100 100" style="enable-background:new 0 0 100 100;" xml:space="preserve">
<g>
	<g>
		<path d="M23.8,26c-0.6,0.5-1.1,0.9-1.8,1.3c-0.6,0.4-1.3,0.7-2,1s-1.4,0.5-2.1,0.7c-1.2,0.3-1.8,0.5-2.2,0.3c-1-0.3-1-1.2-1.8-1.4
			c-0.9-0.2-1.2,0.9-2.5,1c-0.5,0-1-0.3-2-0.8c-0.7-0.3-1.3-0.7-1.9-1.2c-0.7-0.6-1.4-1.2-1.9-1.9c-0.6-0.7-1-1.5-1.4-2.3
			S3.5,21,3.3,20.1S3,18.3,2.9,17.4c0-0.9,0-1.8,0.2-2.7C3.4,14,3.6,13.1,4,12.2s0.8-1.7,1.3-2.5s1.1-1.5,1.8-2.2
			c0.7-0.6,1.4-1.2,2.2-1.6c0.8-0.5,1.6-0.8,2.5-1.1s1.8-0.5,2.7-0.5c0.9-0.1,1.8-0.1,2.7,0c0.9,0.1,1.8,0.3,2.6,0.5
			c0.9,0.3,1.7,0.6,2.5,1s1.5,0.9,2.2,1.5s1.3,1.3,1.8,2c0.7,1,1,1.4,1.1,2c0.1,1.1-0.7,1.5-0.5,2.4c0.2,0.9,1.1,0.9,1.4,2
			c0.1,0.5,0,1.1-0.2,2.3c-0.1,0.7-0.3,1.5-0.5,2.2s-0.5,1.4-0.9,2.1s-0.8,1.3-1.2,1.9C24.9,24.9,24.4,25.5,23.8,26z"/>
		<path d="M76.2,74c0.6-0.5,1.1-0.9,1.8-1.3c0.6-0.4,1.3-0.7,2-1s1.4-0.5,2.1-0.7c1.2-0.3,1.8-0.5,2.2-0.3c1,0.3,1,1.2,1.8,1.4
			c0.9,0.2,1.2-0.9,2.5-1c0.5,0,1,0.3,2,0.8c0.7,0.3,1.3,0.7,1.9,1.2c0.7,0.6,1.4,1.2,1.9,1.9s1,1.5,1.4,2.3s0.7,1.7,0.9,2.6
			c0.2,0.9,0.3,1.8,0.4,2.7s0,1.8-0.2,2.7c-0.2,0.9-0.4,1.8-0.7,2.7c-0.3,0.9-0.8,1.7-1.3,2.5s-1.1,1.5-1.8,2.2
			c-0.7,0.6-1.4,1.2-2.2,1.6c-0.8,0.5-1.6,0.8-2.5,1.1s-1.8,0.5-2.7,0.5c-0.9,0.1-1.8,0.1-2.7,0c-0.9-0.1-1.8-0.3-2.6-0.5
			c-0.9-0.3-1.7-0.6-2.5-1s-1.5-0.9-2.2-1.5s-1.3-1.3-1.8-2c-0.7-1-1-1.4-1.1-2c-0.1-1.1,0.7-1.5,0.5-2.4s-1.1-0.9-1.4-2
			c-0.1-0.5,0-1.1,0.2-2.3c0.1-0.7,0.3-1.5,0.5-2.2s0.5-1.4,0.9-2.1s0.8-1.3,1.2-1.9C75.1,75.1,75.6,74.5,76.2,74z"/>
	</g>
	<g>
		<path d="M74,23.8c-0.5-0.6-0.9-1.1-1.3-1.8c-0.4-0.6-0.7-1.3-1-2s-0.5-1.4-0.7-2.1c-0.3-1.2-0.5-1.8-0.3-2.2c0.3-1,1.2-1,1.4-1.8
			c0.2-0.9-0.9-1.2-1-2.5c0-0.5,0.3-1,0.8-2c0.3-0.7,0.7-1.3,1.2-1.9c0.6-0.7,1.2-1.4,1.9-1.9s1.5-1,2.3-1.4s1.7-0.7,2.6-0.9
			s1.8-0.3,2.7-0.4c0.9,0,1.8,0,2.7,0.2C86,3.4,86.9,3.6,87.8,4s1.7,0.8,2.5,1.3s1.5,1.1,2.2,1.8c0.6,0.7,1.2,1.4,1.6,2.2
			c0.5,0.8,0.8,1.6,1.1,2.5s0.5,1.8,0.5,2.7c0.1,0.9,0.1,1.8,0,2.7c-0.1,0.9-0.3,1.8-0.5,2.6c-0.3,0.9-0.6,1.7-1,2.5
			s-0.9,1.5-1.5,2.2s-1.3,1.3-2,1.8c-1,0.7-1.4,1-2,1.1c-1.1,0.1-1.5-0.7-2.4-0.5s-0.9,1.1-2,1.4c-0.5,0.1-1.1,0-2.3-0.2
			c-0.7-0.1-1.5-0.3-2.2-0.5s-1.4-0.5-2.1-0.9s-1.3-0.8-1.9-1.2C75.1,24.9,74.5,24.4,74,23.8z"/>
		<path d="M26,76.2c0.5,0.6,0.9,1.1,1.3,1.8c0.4,0.6,0.7,1.3,1,2s0.5,1.4,0.7,2.1c0.3,1.2,0.5,1.8,0.3,2.2c-0.3,1-1.2,1-1.4,1.8
			c-0.2,0.9,0.9,1.2,1,2.5c0,0.5-0.3,1-0.8,2c-0.3,0.7-0.7,1.3-1.2,1.9c-0.6,0.7-1.2,1.4-1.9,1.9c-0.7,0.6-1.5,1-2.3,1.4
			s-1.7,0.7-2.6,0.9c-0.9,0.2-1.8,0.3-2.7,0.4c-0.9,0-1.8,0-2.7-0.2s-1.8-0.4-2.7-0.7c-0.9-0.3-1.7-0.8-2.5-1.3S8,93.8,7.3,93.1
			c-0.6-0.7-1.2-1.4-1.6-2.2c-0.5-0.8-0.8-1.6-1.1-2.5s-0.5-1.8-0.5-2.7C4,84.8,4,83.9,4.1,83c0.1-0.9,0.3-1.8,0.5-2.6
			c0.3-0.9,0.6-1.7,1-2.5s0.9-1.5,1.5-2.2s1.3-1.3,2-1.8c1-0.7,1.4-1,2-1.1c1.1-0.1,1.5,0.7,2.4,0.5s0.9-1.1,2-1.4
			c0.5-0.1,1.1,0,2.3,0.2c0.7,0.1,1.5,0.3,2.2,0.5s1.4,0.5,2.1,0.9s1.3,0.8,1.9,1.2C24.9,75.1,25.5,75.6,26,76.2z"/>
	</g>
	<circle cx="50" cy="50" r="28"/>
</g>
</svg>
