<svg width="16" height="16" viewBox="0 0 16 16" fill="none" xmlns="http://www.w3.org/2000/svg">
<g clip-path="url(#clip0)">
<path fill-rule="evenodd" clip-rule="evenodd" d="M14 3.414V5C14 5.26522 14.1054 5.51957 14.2929 5.70711C14.4804 5.89464 14.7348 6 15 6C15.2652 6 15.5196 5.89464 15.7071 5.70711C15.8946 5.51957 16 5.26522 16 5V1C16 0.734784 15.8946 0.48043 15.7071 0.292893C15.5196 0.105357 15.2652 0 15 0L11 0C10.7348 0 10.4804 0.105357 10.2929 0.292893C10.1054 0.48043 10 0.734784 10 1C10 1.26522 10.1054 1.51957 10.2929 1.70711C10.4804 1.89464 10.7348 2 11 2H12.586L7.293 7.293C7.11084 7.4816 7.01005 7.7342 7.01233 7.9964C7.0146 8.2586 7.11977 8.50941 7.30518 8.69482C7.49059 8.88023 7.7414 8.9854 8.0036 8.98767C8.2658 8.98995 8.5184 8.88916 8.707 8.707L14 3.414ZM5.5 0H2C1.46957 0 0.960859 0.210714 0.585786 0.585786C0.210714 0.960859 0 1.46957 0 2L0 14C0 14.5304 0.210714 15.0391 0.585786 15.4142C0.960859 15.7893 1.46957 16 2 16H14C14.5304 16 15.0391 15.7893 15.4142 15.4142C15.7893 15.0391 16 14.5304 16 14V10.5C16 10.2348 15.8946 9.98043 15.7071 9.79289C15.5196 9.60536 15.2652 9.5 15 9.5C14.7348 9.5 14.4804 9.60536 14.2929 9.79289C14.1054 9.98043 14 10.2348 14 10.5V14H2V2H5.5C5.76522 2 6.01957 1.89464 6.20711 1.70711C6.39464 1.51957 6.5 1.26522 6.5 1C6.5 0.734784 6.39464 0.48043 6.20711 0.292893C6.01957 0.105357 5.76522 0 5.5 0V0Z" fill="#938DB7"/>
</g>
<defs>
<clipPath id="clip0">
<rect width="16" height="16" fill="white"/>
</clipPath>
</defs>
</svg>
