<?xml version="1.0" encoding="iso-8859-1"?>
<!-- Generator: Adobe Illustrator 19.0.0, SVG Export Plug-In . SVG Version: 6.00 Build 0)  -->
<svg version="1.1" id="Capa_1" xmlns="http://www.w3.org/2000/svg" xmlns:xlink="http://www.w3.org/1999/xlink" x="0px" y="0px"
	 viewBox="0 0 512 512" style="enable-background:new 0 0 512 512;" xml:space="preserve">
<g>
	<g>
		<path d="M507.606,131.674L380.327,4.394c-5.857-5.858-15.355-5.858-21.213,0l-65.64,65.64c-5.858,5.858-5.858,15.355,0,21.213
			l6.498,6.498l-171.68,85.84c-3.286,1.643-5.855,4.435-7.219,7.846c-97.668,244.17-119.955,299.886-120,300
			c-2.221,5.553-0.894,11.963,3.321,16.177c4.36,4.362,10.83,5.519,16.312,3.267l299.865-119.946
			c3.411-1.364,6.203-3.933,7.846-7.219l85.84-171.68l6.498,6.498c2.929,2.929,6.768,4.394,10.606,4.394
			c3.838,0,7.678-1.464,10.606-4.394l65.64-65.64C513.464,147.029,513.464,137.532,507.606,131.674z M304.134,365.192
			L77.281,455.933l128.33-128.33c5.875,2.817,12.451,4.398,19.389,4.398c24.813,0,45-20.187,45-45s-20.187-45-45-45
			s-45,20.187-45,45c0,6.938,1.581,13.515,4.398,19.389L56.068,434.72l90.741-226.854l175.524-87.761l69.563,69.563L304.134,365.192
			z M210,287.001c0-8.271,6.729-15,15-15s15,6.729,15,15s-6.729,15-15,15S210,295.272,210,287.001z M431.36,186.706l-10.799-10.799
			c-0.009-0.009-0.017-0.018-0.027-0.027l-84.413-84.413c-0.01-0.011-0.021-0.021-0.031-0.031L325.294,80.64l44.426-44.426
			L475.786,142.28L431.36,186.706z"/>
	</g>
</g>
<g>
	<g>
		<path d="M135,62.001H90v-47c0-8.284-6.716-15-15-15s-15,6.716-15,15v47H15c-8.284,0-15,6.716-15,15s6.716,15,15,15h45v45
			c0,8.284,6.716,15,15,15s15-6.716,15-15v-45h45c8.284,0,15-6.716,15-15S143.284,62.001,135,62.001z"/>
	</g>
</g>
<g>
</g>
<g>
</g>
<g>
</g>
<g>
</g>
<g>
</g>
<g>
</g>
<g>
</g>
<g>
</g>
<g>
</g>
<g>
</g>
<g>
</g>
<g>
</g>
<g>
</g>
<g>
</g>
<g>
</g>
</svg>
