<svg width="16" height="16" viewBox="0 0 16 16" fill="none" xmlns="http://www.w3.org/2000/svg">
<path fill-rule="evenodd" clip-rule="evenodd" d="M2.76405 0.996048C2.5296 0.761596 2.21161 0.629883 1.88005 0.629883C1.54848 0.629883 1.2305 0.761596 0.996048 0.996048C0.761596 1.2305 0.629883 1.54848 0.629883 1.88005C0.629883 2.21161 0.761596 2.5296 0.996048 2.76405L6.24005 8.00705L0.996048 13.249C0.761596 13.4835 0.629883 13.8015 0.629883 14.133C0.629883 14.4646 0.761596 14.7826 0.996048 15.017C1.2305 15.2515 1.54848 15.3832 1.88005 15.3832C2.21161 15.3832 2.5296 15.2515 2.76405 15.017L8.00705 9.77405L13.249 15.017C13.3651 15.1331 13.503 15.2252 13.6546 15.288C13.8063 15.3509 13.9689 15.3832 14.133 15.3832C14.2972 15.3832 14.4598 15.3509 14.6115 15.288C14.7631 15.2252 14.901 15.1331 15.017 15.017C15.1331 14.901 15.2252 14.7631 15.288 14.6115C15.3509 14.4598 15.3832 14.2972 15.3832 14.133C15.3832 13.9689 15.3509 13.8063 15.288 13.6546C15.2252 13.503 15.1331 13.3651 15.017 13.249L9.77405 8.00705L15.017 2.76405C15.2515 2.5296 15.3832 2.21161 15.3832 1.88005C15.3832 1.54848 15.2515 1.2305 15.017 0.996048C14.7826 0.761596 14.4646 0.629883 14.133 0.629883C13.8015 0.629883 13.4835 0.761596 13.249 0.996048L8.00705 6.24005L2.76405 0.996048Z" fill="#25213F"/>
</svg>
