<svg width="14" height="16" viewBox="0 0 14 16" fill="none" xmlns="http://www.w3.org/2000/svg">
<path d="M13.5 0.999761H9.75L9.45625 0.415386C9.39402 0.290453 9.29817 0.185362 9.17947 0.111936C9.06078 0.0385095 8.92395 -0.000338765 8.78438 -0.000238662H5.2125C5.07324 -0.000773991 4.93665 0.0379295 4.81838 0.111437C4.7001 0.184945 4.60492 0.290285 4.54375 0.415386L4.25 0.999761H0.5C0.367392 0.999761 0.240215 1.05244 0.146447 1.14621C0.0526784 1.23998 0 1.36715 0 1.49976L0 2.49976C0 2.63237 0.0526784 2.75955 0.146447 2.85331C0.240215 2.94708 0.367392 2.99976 0.5 2.99976H13.5C13.6326 2.99976 13.7598 2.94708 13.8536 2.85331C13.9473 2.75955 14 2.63237 14 2.49976V1.49976C14 1.36715 13.9473 1.23998 13.8536 1.14621C13.7598 1.05244 13.6326 0.999761 13.5 0.999761ZM1.6625 14.5935C1.68635 14.9743 1.85443 15.3317 2.13252 15.593C2.41061 15.8543 2.77781 15.9997 3.15937 15.9998H10.8406C11.2222 15.9997 11.5894 15.8543 11.8675 15.593C12.1456 15.3317 12.3137 14.9743 12.3375 14.5935L13 3.99976H1L1.6625 14.5935Z" fill="#25213F"/>
</svg>
