<?xml version="1.0" encoding="iso-8859-1"?>
<!-- Generator: Adobe Illustrator 19.0.0, SVG Export Plug-In . SVG Version: 6.00 Build 0)  -->
<svg version="1.1" id="Capa_1" xmlns="http://www.w3.org/2000/svg" xmlns:xlink="http://www.w3.org/1999/xlink" x="0px" y="0px"
	 viewBox="0 0 512 512" style="enable-background:new 0 0 512 512;" xml:space="preserve">
<g>
	<g>
		<path d="M497,122H392V15c0-8.284-6.716-15-15-15H15C6.716,0,0,6.716,0,15v362c0,8.284,6.716,15,15,15h107v105
			c0,8.284,6.716,15,15,15h360c8.284,0,15-6.716,15-15V137C512,128.716,505.284,122,497,122z M122,137v225H30V30h332v92H137
			C128.716,122,122,128.716,122,137z M362,152v210H152V152H362z M482,482H152v-90h225c8.284,0,15-6.716,15-15V152h90V482z"/>
	</g>
</g>
<g>
</g>
<g>
</g>
<g>
</g>
<g>
</g>
<g>
</g>
<g>
</g>
<g>
</g>
<g>
</g>
<g>
</g>
<g>
</g>
<g>
</g>
<g>
</g>
<g>
</g>
<g>
</g>
<g>
</g>
</svg>
