<svg width="20" height="20" viewBox="0 0 20 20" fill="none" xmlns="http://www.w3.org/2000/svg">
<g clip-path="url(#clip0)">
<path d="M18.346 6.99837L18.3289 6.98687C18.3043 6.97036 18.2815 6.96655 18.2531 6.97301C18.2201 6.9805 18.1751 7.00453 18.137 7.05475C18.1368 7.05503 18.1366 7.05531 18.1364 7.05558L17.7371 6.75469C17.5277 7.03495 17.2435 7.25045 16.9171 7.37642C16.5908 7.50239 16.2355 7.53372 15.8921 7.4668L18.346 6.99837ZM18.346 6.99837L18.364 7.00843L19.454 7.61707C19.4743 7.63365 19.4889 7.65626 19.4957 7.68178C19.5035 7.71123 19.5003 7.74253 19.4867 7.76978L19.4805 7.78212L19.4751 7.79478L15.5996 16.75H4.40024L0.52483 7.79631L0.519356 7.78367L0.513194 7.77134C0.499568 7.74409 0.496368 7.71279 0.504194 7.68334C0.510993 7.65776 0.525708 7.6351 0.546081 7.61851L1.63879 7.00656L1.65577 6.99705L1.67196 6.98625C1.69714 6.96946 1.72143 6.9655 1.74954 6.97165C1.78121 6.97858 1.82234 7.00062 1.85636 7.0463L2.25737 6.74766L1.85528 7.04484C2.09095 7.36372 2.40331 7.61793 2.7634 7.78394C3.12329 7.94984 3.51921 8.02227 3.91452 7.99451C5.21322 7.9061 6.12495 6.75435 6.12495 5.52344C6.12495 5.51722 6.12742 5.51126 6.13182 5.50687C6.13621 5.50247 6.14217 5.5 6.14839 5.5H7.66284C7.66683 5.5 7.67102 5.50068 7.67501 5.50202C7.67643 5.50249 7.67768 5.503 7.67877 5.50351C7.79309 6.03135 8.08395 6.50461 8.50356 6.84507C8.92671 7.18839 9.45504 7.37577 9.99995 7.37577C10.5449 7.37577 11.0732 7.18839 11.4963 6.84507C11.9158 6.50472 12.2066 6.03164 12.321 5.50399C12.3224 5.50328 12.3241 5.50256 12.326 5.50192C12.3301 5.50055 12.3339 5.5 12.3371 5.5H13.8515C13.8577 5.5 13.8637 5.50247 13.8681 5.50687C13.8725 5.51126 13.875 5.51722 13.875 5.52344C13.875 6.64431 14.6232 7.73881 15.7987 7.95799L18.346 6.99837ZM10.9375 3.59061C10.66 3.77603 10.3337 3.875 9.99995 3.875C9.5524 3.875 9.12318 3.69721 8.80671 3.38074C8.49024 3.06428 8.31245 2.63505 8.31245 2.1875C8.31245 1.85375 8.41142 1.52748 8.59685 1.24998C8.78227 0.972468 9.04582 0.756177 9.35417 0.628454C9.66252 0.500731 10.0018 0.467313 10.3292 0.532426C10.6565 0.597538 10.9572 0.758257 11.1932 0.994258C11.4292 1.23026 11.5899 1.53094 11.655 1.85829C11.7201 2.18563 11.6867 2.52493 11.559 2.83328C11.4313 3.14163 11.215 3.40518 10.9375 3.59061Z" stroke="white" fill="transparent"/>
<rect y="19" width="20" height="1" fill="white"/>
</g>
<defs>
<clipPath id="clip0">
<rect width="20" height="20" fill="white"/>
</clipPath>
</defs>
</svg>
