<?xml version="1.0" encoding="iso-8859-1"?>
<!-- Generator: Adobe Illustrator 19.0.0, SVG Export Plug-In . SVG Version: 6.00 Build 0)  -->
<svg version="1.1" id="Capa_1" xmlns="http://www.w3.org/2000/svg" xmlns:xlink="http://www.w3.org/1999/xlink" x="0px" y="0px"
	 viewBox="0 0 512 512" style="enable-background:new 0 0 512 512;" xml:space="preserve">
<g>
	<g>
		<path d="M407,482h-62c-8.284,0-15,6.716-15,15s6.716,15,15,15h62c8.284,0,15-6.716,15-15S415.284,482,407,482z"/>
	</g>
</g>
<g>
	<g>
		<path d="M285,482h-60c-8.284,0-15,6.716-15,15s6.716,15,15,15h60c8.284,0,15-6.716,15-15S293.284,482,285,482z"/>
	</g>
</g>
<g>
	<g>
		<path d="M497,210c-8.284,0-15,6.716-15,15v60c0,8.284,6.716,15,15,15s15-6.716,15-15v-60C512,216.716,505.284,210,497,210z"/>
	</g>
</g>
<g>
	<g>
		<path d="M497,330c-8.284,0-15,6.716-15,15v60c0,8.284,6.716,15,15,15s15-6.716,15-15v-60C512,336.716,505.284,330,497,330z"/>
	</g>
</g>
<g>
	<g>
		<path d="M165,482h-15v-15c0-8.284-6.716-15-15-15s-15,6.716-15,15v30c0,8.284,6.716,15,15,15h30c8.284,0,15-6.716,15-15
			S173.284,482,165,482z"/>
	</g>
</g>
<g>
	<g>
		<path d="M497,120h-30c-8.284,0-15,6.716-15,15s6.716,15,15,15h15v15c0,8.284,6.716,15,15,15s15-6.716,15-15v-30
			C512,126.716,505.284,120,497,120z"/>
	</g>
</g>
<g>
	<g>
		<path d="M497,452c-8.284,0-15,6.716-15,15v15h-15c-8.284,0-15,6.716-15,15s6.716,15,15,15h30c8.284,0,15-6.716,15-15v-30
			C512,458.716,505.284,452,497,452z"/>
	</g>
</g>
<g>
	<g>
		<path d="M407,120h-17V15c0-8.284-6.716-15-15-15H15C6.716,0,0,6.716,0,15v360c0,8.284,6.716,15,15,15h105v15
			c0,8.284,6.716,15,15,15s15-6.716,15-15v-30V150h225h32c8.284,0,15-6.716,15-15S415.284,120,407,120z M360,120H135
			c-8.284,0-15,6.716-15,15v225H30V30h330V120z"/>
	</g>
</g>
<g>
</g>
<g>
</g>
<g>
</g>
<g>
</g>
<g>
</g>
<g>
</g>
<g>
</g>
<g>
</g>
<g>
</g>
<g>
</g>
<g>
</g>
<g>
</g>
<g>
</g>
<g>
</g>
<g>
</g>
</svg>
