<svg width="16" height="16" viewBox="0 0 16 16" fill="none" xmlns="http://www.w3.org/2000/svg">
<path d="M15.6353 2.38932e-07H14.1538C14.103 -5.70824e-05 14.0527 0.0102 14.006 0.0301495C13.9593 0.0500991 13.9172 0.0793254 13.8821 0.116056C13.847 0.152787 13.8198 0.196257 13.802 0.24383C13.7843 0.291404 13.7763 0.342089 13.7788 0.392813L13.9038 2.97906C13.177 2.12265 12.2724 1.43487 11.2528 0.963568C10.2332 0.492266 9.12322 0.248763 8 0.25C3.72938 0.25 0.246877 3.73531 0.250002 8.00594C0.253127 12.2834 3.72188 15.75 8 15.75C9.91908 15.7527 11.7704 15.0407 13.1931 13.7528C13.2311 13.7188 13.2618 13.6774 13.2833 13.6311C13.3047 13.5848 13.3165 13.5347 13.3179 13.4837C13.3193 13.4327 13.3103 13.382 13.2914 13.3346C13.2725 13.2872 13.2442 13.2442 13.2081 13.2081L12.1456 12.1456C12.0784 12.0784 11.9881 12.0392 11.8931 12.036C11.798 12.0328 11.7054 12.0659 11.6338 12.1284C10.7942 12.8671 9.74946 13.3323 8.63879 13.462C7.52812 13.5917 6.4043 13.3798 5.41713 12.8545C4.42996 12.3292 3.62636 11.5155 3.11345 10.5219C2.60054 9.52824 2.40269 8.40185 2.54627 7.29289C2.68986 6.18393 3.16806 5.14507 3.91713 4.31482C4.66619 3.48457 5.65053 2.90236 6.73893 2.64582C7.82732 2.38928 8.96806 2.47059 10.0091 2.8789C11.0501 3.28722 11.9419 4.00315 12.5656 4.93125L9.39281 4.77906C9.34209 4.77665 9.2914 4.78457 9.24383 4.80233C9.19626 4.82009 9.15279 4.84733 9.11606 4.8824C9.07933 4.91746 9.0501 4.95962 9.03015 5.00632C9.0102 5.05302 8.99994 5.10328 9 5.15406V6.63563C9 6.73508 9.03951 6.83046 9.10984 6.90079C9.18016 6.97112 9.27555 7.01063 9.375 7.01063H15.6353C15.7348 7.01063 15.8302 6.97112 15.9005 6.90079C15.9708 6.83046 16.0103 6.73508 16.0103 6.63563V0.375C16.0103 0.275544 15.9708 0.180161 15.9005 0.109835C15.8302 0.0395091 15.7348 2.38932e-07 15.6353 2.38932e-07Z" fill="#25213F"/>
</svg>
