<?xml version="1.0" encoding="iso-8859-1"?>
<!-- Generator: Adobe Illustrator 19.0.0, SVG Export Plug-In . SVG Version: 6.00 Build 0)  -->
<svg version="1.1" id="Capa_1" xmlns="http://www.w3.org/2000/svg" xmlns:xlink="http://www.w3.org/1999/xlink" x="0px" y="0px"
	 viewBox="0 0 512 512" style="enable-background:new 0 0 512 512;" xml:space="preserve">
<g>
	<g>
		<path d="M497,90c8.291,0,15-6.709,15-15V15c0-8.291-6.709-15-15-15h-60c-8.291,0-15,6.709-15,15v15H90V15c0-8.401-6.599-15-15-15
			H15C6.599,0,0,6.599,0,15v60c0,8.399,6.599,15,15,15h15v332H15c-8.291,0-15,6.709-15,15v60c0,8.291,6.709,15,15,15h60
			c8.291,0,15-6.709,15-15v-15h332v15c0,8.399,6.599,15,15,15h60c8.401,0,15-6.601,15-15v-60c0-8.401-6.599-15-15-15h-15V90H497z
			 M452,422h-15c-8.401,0-15,6.599-15,15v15H90v-15c0-8.291-6.709-15-15-15H60V90h15c8.401,0,15-6.601,15-15V60h332v15
			c0,8.291,6.709,15,15,15h15V422z"/>
	</g>
</g>
<g>
	<g>
		<path d="M361,105H151c-8.291,0-15,6.709-15,15v60c0,6.064,3.647,11.543,9.258,13.857c5.625,2.329,12.056,1.04,16.348-3.252
			L187.211,165H226v176.459l-27.48,42.221c-3.062,4.6-3.354,10.518-0.747,15.396S205.463,407,211,407h90
			c5.537,0,10.62-3.047,13.228-7.925c2.608-4.878,2.314-10.796-0.747-15.396L286,341.459V165h38.789l25.605,25.605
			c4.307,4.307,10.781,5.596,16.348,3.252c5.61-2.314,9.258-7.793,9.258-13.857v-60C376,111.709,369.291,105,361,105z"/>
	</g>
</g>
<g>
</g>
<g>
</g>
<g>
</g>
<g>
</g>
<g>
</g>
<g>
</g>
<g>
</g>
<g>
</g>
<g>
</g>
<g>
</g>
<g>
</g>
<g>
</g>
<g>
</g>
<g>
</g>
<g>
</g>
</svg>
