<svg width="16" height="16" viewBox="0 0 16 16" fill="none" xmlns="http://www.w3.org/2000/svg">
<path d="M6.63541 7.01041H0.375C0.167906 7.01041 0 6.8425 0 6.63541V0.375C0 0.167906 0.167906 0 0.375 0H1.875C2.08209 0 2.25 0.167906 2.25 0.375V2.816C3.68041 1.22747 5.75812 0.233437 8.06797 0.250219C12.3463 0.281281 15.7695 3.73844 15.7604 8.01684C15.7513 12.2893 12.285 15.75 8.01041 15.75C6.00763 15.75 4.18241 14.9902 2.80697 13.7433C2.64762 13.5988 2.64028 13.351 2.79238 13.1989L3.85384 12.1374C3.99366 11.9976 4.21828 11.99 4.36637 12.121C5.33625 12.9792 6.61188 13.5 8.01041 13.5C11.05 13.5 13.5104 11.0401 13.5104 8C13.5104 4.96041 11.0505 2.5 8.01041 2.5C6.18241 2.5 4.56416 3.38987 3.56434 4.76041H6.63541C6.8425 4.76041 7.01041 4.92831 7.01041 5.13541V6.63541C7.01041 6.8425 6.8425 7.01041 6.63541 7.01041Z" fill="#25213F"/>
</svg>
