<svg width="24" height="24" viewBox="0 0 24 24" fill="none" xmlns="http://www.w3.org/2000/svg">
<path d="M5.74284 13.4761L9.98484 17.7181L16.5708 11.1321L12.3288 6.89007L5.74284 13.4761ZM4.77384 15.3361L4.18784 19.2731L8.12484 18.6871L4.77484 15.3361H4.77384ZM13.7428 5.47607L17.9848 9.71807L19.4608 8.24307L15.2178 4.00007L13.7428 5.47607ZM3.51484 12.8741L13.8048 2.58607C13.9906 2.40027 14.2111 2.25288 14.4538 2.15232C14.6965 2.05176 14.9566 2 15.2193 2C15.4821 2 15.7422 2.05176 15.9849 2.15232C16.2276 2.25288 16.4481 2.40027 16.6338 2.58607L20.8758 6.82807C21.0616 7.0138 21.209 7.23431 21.3096 7.47702C21.4102 7.71972 21.4619 7.97986 21.4619 8.24257C21.4619 8.50529 21.4102 8.76542 21.3096 9.00813C21.209 9.25083 21.0616 9.47135 20.8758 9.65707L10.5868 19.9451C10.2836 20.2483 9.89098 20.446 9.46684 20.5091L3.14684 21.4501C2.99236 21.473 2.83466 21.4594 2.68637 21.4105C2.53808 21.3615 2.40332 21.2785 2.29289 21.168C2.18246 21.0576 2.09943 20.9228 2.05045 20.7745C2.00148 20.6263 1.98791 20.4686 2.01084 20.3141L2.95184 13.9931C3.01491 13.5689 3.21264 13.1763 3.51584 12.8731L3.51484 12.8741Z" fill="#25213F"/>
</svg>
