<svg width="16" height="16" viewBox="0 0 16 16" fill="none" xmlns="http://www.w3.org/2000/svg">
<g clip-path="url(#clip0)">
<path d="M7.11448 13.1212L9.41061 10.825L10.8248 12.2393L8.52869 14.5354C6.57607 16.488 3.41025 16.488 1.45763 14.5354C-0.494991 12.5828 -0.494991 9.41694 1.45763 7.46432L3.75376 5.16819L5.16797 6.58241L2.87184 8.87854C1.70027 10.0501 1.70027 11.9496 2.87184 13.1212C4.04342 14.2928 5.94291 14.2928 7.11448 13.1212Z" fill="#938DB7"/>
<path d="M8.87628 2.8741L6.58219 5.16819L5.16797 3.75398L7.46206 1.45989C9.41469 -0.492735 12.5805 -0.492731 14.5331 1.45989C16.4858 3.41251 16.4858 6.57834 14.5331 8.53096L12.239 10.825L10.8248 9.41083L13.1189 7.11674C14.2905 5.94517 14.2905 4.04568 13.1189 2.8741C11.9473 1.70253 10.0478 1.70253 8.87628 2.8741Z" fill="#938DB7"/>
<path d="M4.4239 11.5759C4.03338 11.1854 4.03338 10.5523 4.4239 10.1617L10.0808 4.50487C10.4713 4.11435 11.1044 4.11435 11.495 4.50487C11.8855 4.8954 11.8855 5.52856 11.495 5.91909L5.83812 11.5759C5.44759 11.9665 4.81443 11.9665 4.4239 11.5759Z" fill="#938DB7"/>
</g>
<defs>
<clipPath id="clip0">
<rect width="16" height="16" fill="white"/>
</clipPath>
</defs>
</svg>
